<svg width="32" height="32" viewBox="0 0 32 32" fill="none" xmlns="http://www.w3.org/2000/svg">
<path d="M32 10.75V15.75C32 16.4404 31.4404 17 30.75 17H29.928L28.7417 27.5581C28.6699 28.1968 28.1289 28.6685 27.5009 28.6687C27.4543 28.6687 27.4074 28.666 27.3598 28.6606C26.6738 28.5837 26.1801 27.9648 26.2573 27.279L27.5683 15.6106C27.6394 14.9783 28.174 14.5 28.8105 14.5H29.5002V12H2.50002V14.5H28.8403C29.5307 14.5 30.0903 15.0598 30.0903 15.75C30.0903 16.4404 29.5307 17 28.8403 17H4.61088L5.84526 27.2976C5.99565 28.5532 7.0628 29.5 8.32746 29.5H23.7729C25.0468 29.5 26.1149 28.5452 26.2573 27.279C26.3342 26.593 26.9528 26.0996 27.6389 26.1765C28.3249 26.2537 28.8186 26.8723 28.7417 27.5583C28.457 30.0903 26.321 32 23.7729 32H8.32746C5.79814 32 3.66385 30.1062 3.36282 27.595L2.09303 17H1.25001C0.559575 17 0 16.4404 0 15.75V10.75C0 10.0595 0.559575 9.49998 1.25001 9.49998H5.68364L12.2889 0.509978C12.6976 -0.0461749 13.4798 -0.166048 14.0362 0.242888C14.5926 0.65158 14.7123 1.43381 14.3036 1.9902L8.78596 9.49998H23.2604L17.7426 1.9902C17.3339 1.43381 17.4535 0.65158 18.0099 0.242888C18.5663 -0.166048 19.3485 -0.0464191 19.7575 0.509978L26.3625 9.49998H30.75C31.4404 9.49998 32 10.0598 32 10.75ZM14.7501 20.75V25.75C14.7501 26.4404 15.3097 27 16.0001 27C16.6903 27 17.2501 26.4404 17.2501 25.75V20.75C17.2501 20.0596 16.6903 19.5 16.0001 19.5C15.3097 19.5 14.7501 20.0596 14.7501 20.75ZM19.7502 20.75V25.75C19.7502 26.4404 20.3097 27 21.0002 27C21.6904 27 22.2502 26.4404 22.2502 25.75V20.75C22.2502 20.0596 21.6904 19.5 21.0002 19.5C20.3097 19.5 19.7502 20.0596 19.7502 20.75ZM9.75007 20.75V25.75C9.75007 26.4404 10.3096 27 11.0001 27C11.6903 27 12.2501 26.4404 12.2501 25.75V20.75C12.2501 20.0596 11.6903 19.5 11.0001 19.5C10.3096 19.5 9.75007 20.0596 9.75007 20.75Z" fill="#065D63"/>
</svg>
