<svg width="18" height="18" viewBox="0 0 18 18" fill="none" xmlns="http://www.w3.org/2000/svg">
<path d="M3.84225 11.8574C5.55956 13.9024 7.62683 15.5126 9.98632 16.652C10.8847 17.0761 12.0861 17.5793 13.4245 17.6655C13.5075 17.6691 13.5869 17.6727 13.6699 17.6727C14.5682 17.6727 15.2898 17.3636 15.8778 16.7275C15.8815 16.7239 15.8887 16.7167 15.8923 16.7095C16.1015 16.4579 16.3396 16.2315 16.5886 15.9907C16.7582 15.8289 16.9313 15.66 17.0973 15.4875C17.8657 14.6896 17.8657 13.676 17.0901 12.9033L14.9218 10.7432C14.5538 10.3622 14.1136 10.1609 13.6518 10.1609C13.19 10.1609 12.7463 10.3622 12.3675 10.7396L11.0759 12.0263C10.9568 11.958 10.8342 11.8969 10.7187 11.8394C10.5744 11.7675 10.4409 11.6992 10.3218 11.6237C9.14571 10.8797 8.0778 9.90932 7.05679 8.66215C6.54088 8.0116 6.19453 7.46529 5.95281 6.90819C6.29194 6.60269 6.60943 6.28281 6.91609 5.97012C7.02432 5.8587 7.13617 5.74728 7.24801 5.63586C7.63765 5.24769 7.8469 4.79842 7.8469 4.34196C7.8469 3.8855 7.64126 3.43623 7.24801 3.04806L6.17289 1.977C6.04661 1.8512 5.92756 1.729 5.80489 1.6032C5.56678 1.3588 5.31784 1.10721 5.07251 0.880774C4.70091 0.517764 4.26436 0.327273 3.80257 0.327273C3.34438 0.327273 2.90423 0.517764 2.51819 0.884369L1.16888 2.22859C0.678217 2.71739 0.400417 3.31043 0.342692 3.99692C0.274144 4.85592 0.432887 5.76884 0.844175 6.87225C1.47554 8.57948 2.428 10.1645 3.84225 11.8574ZM1.22299 4.0724C1.26629 3.59437 1.45028 3.19542 1.79663 2.85038L3.13873 1.51335C3.34798 1.31207 3.57888 1.20784 3.80257 1.20784C4.02264 1.20784 4.24632 1.31207 4.45197 1.52054C4.69369 1.74337 4.92098 1.977 5.16631 2.22499C5.28898 2.35079 5.41525 2.47659 5.54152 2.60598L6.61664 3.67704C6.84033 3.89988 6.95578 4.12631 6.95578 4.34915C6.95578 4.57198 6.84033 4.79842 6.61664 5.02126C6.5048 5.13268 6.39296 5.24769 6.28112 5.35911C5.94559 5.69696 5.63172 6.01684 5.28537 6.32235C5.27815 6.32953 5.27455 6.33313 5.26733 6.34032C4.96788 6.63863 5.01478 6.92257 5.08694 7.13822C5.09055 7.149 5.09416 7.15619 5.09776 7.16697C5.37556 7.83189 5.7616 8.46447 6.3641 9.21924C7.44644 10.5491 8.5865 11.5806 9.84201 12.3749C9.99714 12.4756 10.1631 12.5546 10.3182 12.6337C10.4626 12.7056 10.596 12.7739 10.7151 12.8494C10.7295 12.8565 10.7404 12.8637 10.7548 12.8709C10.8738 12.932 10.9893 12.9608 11.1047 12.9608C11.3934 12.9608 11.581 12.7775 11.6423 12.7164L12.9916 11.3722C13.2009 11.1637 13.4282 11.0523 13.6518 11.0523C13.926 11.0523 14.1497 11.2212 14.2904 11.3722L16.4659 13.5358C16.8989 13.9671 16.8952 14.4344 16.4551 14.8908C16.3036 15.0526 16.1448 15.2071 15.9753 15.3689C15.7227 15.6133 15.4593 15.8649 15.2212 16.1488C14.8063 16.5945 14.3121 16.8029 13.6735 16.8029C13.6122 16.8029 13.5472 16.7993 13.4859 16.7957C12.3025 16.7203 11.2021 16.2602 10.376 15.8685C8.13192 14.7866 6.16206 13.2519 4.52773 11.3039C3.18203 9.69008 2.27647 8.18772 1.67758 6.57753C1.30597 5.58913 1.16527 4.79482 1.22299 4.0724Z" fill="#065D63"/>
<path fill-rule="evenodd" clip-rule="evenodd" d="M2.28689 0.62703C2.71284 0.222474 3.21298 0 3.74524 0C4.27974 0 4.77651 0.221378 5.18897 0.62333C5.44102 0.856128 5.69546 1.1134 5.93579 1.3601L5.94547 1.37003C6.06625 1.4939 6.1825 1.61314 6.30549 1.73567L7.39171 2.8179C7.82405 3.24485 8.06581 3.7557 8.06581 4.29013C8.06581 4.82554 7.81994 5.3357 7.39247 5.7616C7.27915 5.8745 7.16743 5.98582 7.05955 6.09688L7.05878 6.09767C6.78581 6.37604 6.50114 6.66337 6.19917 6.94237C6.42921 7.43154 6.75012 7.92628 7.21601 8.51394C8.23482 9.75831 9.29607 10.7214 10.4606 11.4581C10.5697 11.5273 10.6951 11.5918 10.8412 11.6646L10.8438 11.6658C10.9114 11.6995 10.9839 11.7357 11.0578 11.7744L12.2408 10.5958C12.6592 10.1789 13.1643 9.94306 13.7031 9.94306C14.2416 9.94306 14.7439 10.1787 15.1524 10.6009L17.3431 12.7835C17.7719 13.2108 17.9989 13.7187 18 14.2432C18.001 14.7671 17.7766 15.2803 17.3537 15.7194C17.1829 15.897 17.0054 16.0701 16.8331 16.2345C16.8166 16.2505 16.8002 16.2663 16.784 16.282C16.5525 16.5057 16.342 16.7092 16.1556 16.9318C16.162 16.9226 16.169 16.9113 16.1755 16.8985L15.9683 16.7953L16.1466 16.9425C16.1496 16.9389 16.1526 16.9354 16.1556 16.9318C16.148 16.9427 16.1412 16.9509 16.1369 16.9559C16.1307 16.9631 16.1248 16.9692 16.1211 16.973L16.1241 16.9698L15.9537 16.8134L16.1175 16.9766C16.1175 16.9766 16.1193 16.9748 16.1211 16.973C15.4816 17.6633 14.6904 18 13.7214 18C13.6357 18 13.554 17.9965 13.4749 17.993L13.4608 17.9924L13.4584 17.9922C12.0593 17.9021 10.8117 17.3771 9.89801 16.9457L9.89617 16.9448C7.48074 15.7783 5.36468 14.1297 3.60771 12.0372C2.16444 10.3095 1.18612 8.68395 0.536995 6.92865C0.113513 5.79234 -0.056432 4.83474 0.0163201 3.92296C0.0792898 3.17402 0.384268 2.52256 0.918728 1.99006L2.28488 0.628934L2.28689 0.62703ZM2.60848 0.95924L1.24629 2.31642C0.788726 2.7723 0.531911 3.32091 0.478068 3.96002C0.412315 4.78516 0.563346 5.67351 0.971362 6.76824C1.59885 8.46516 2.54691 10.0458 3.96309 11.7412C5.67839 13.784 7.74214 15.3915 10.0973 16.529C10.9995 16.955 12.1799 17.4468 13.486 17.5315L13.4918 17.5318C13.5734 17.5353 13.646 17.5385 13.7214 17.5385C14.5628 17.5385 15.227 17.2542 15.7743 16.6668L15.7899 16.648C15.9953 16.401 16.2264 16.1778 16.4573 15.9547C16.4752 15.9374 16.4931 15.9202 16.5109 15.9029L16.5121 15.9018C16.6824 15.7393 16.8548 15.571 17.0194 15.4C17.3734 15.0323 17.5375 14.6296 17.5368 14.2441C17.536 13.8591 17.3709 13.4639 17.0155 13.1099L14.8217 10.9242L14.8202 10.9226C14.4849 10.5754 14.0977 10.4046 13.7031 10.4046C13.3082 10.4046 12.916 10.5758 12.5684 10.9221L11.137 12.3482L10.9832 12.26C10.8697 12.1948 10.7517 12.136 10.6341 12.0774C10.4885 12.0049 10.3437 11.9311 10.2121 11.8476C8.99887 11.0801 7.90118 10.0812 6.85587 8.80424L6.85473 8.80285L6.85362 8.80145C6.32424 8.13386 5.96152 7.56407 5.70659 6.97648L5.64073 6.82467L5.76385 6.71375C6.10081 6.41018 6.41733 6.09137 6.72707 5.7755C6.83768 5.66163 6.95172 5.54802 7.06418 5.43597L7.06491 5.43525C7.42531 5.07617 7.60256 4.6778 7.60256 4.29013C7.60256 3.90163 7.42826 3.50371 7.06566 3.14576L7.06491 3.14501L5.97792 2.06203C5.85252 1.93708 5.73419 1.81572 5.61402 1.69247L5.60352 1.68169C5.36314 1.43494 5.115 1.18422 4.87178 0.959713L4.86937 0.95749L4.86703 0.9552C4.52856 0.624526 4.14349 0.461538 3.74524 0.461538C3.35175 0.461538 2.96259 0.623686 2.60848 0.95924ZM2.91321 1.26403C3.15605 1.03042 3.44435 0.890369 3.74524 0.890369C4.04393 0.890369 4.32484 1.03164 4.56303 1.27154C4.7778 1.46977 4.98169 1.67635 5.19146 1.88887C5.22382 1.92165 5.25631 1.95457 5.289 1.98762L5.29017 1.98881C5.35149 2.0517 5.41381 2.1147 5.47728 2.17885L5.47877 2.18035C5.5412 2.24344 5.60471 2.30763 5.66831 2.37279L6.75414 3.45463C7.00465 3.70422 7.16485 3.98841 7.16485 4.2974C7.16485 4.60638 7.00465 4.89057 6.75414 5.14016C6.69837 5.19573 6.64248 5.25231 6.58583 5.30966C6.52968 5.3665 6.47236 5.42453 6.41534 5.48135C6.38963 5.50724 6.364 5.53307 6.33843 5.55884C6.03031 5.86942 5.73094 6.17116 5.40324 6.46065L5.38994 6.4739C5.27154 6.59186 5.23396 6.69274 5.22398 6.77361C5.21327 6.86038 5.23132 6.94829 5.26352 7.04453C5.26352 7.04453 5.26237 7.04151 5.26431 7.04633C5.26556 7.04945 5.26814 7.0558 5.27109 7.06393C5.54153 7.70955 5.91862 8.32911 6.51564 9.0772C7.59612 10.4047 8.73027 11.4298 9.97547 12.2177L9.97769 12.2191C10.0967 12.2963 10.2215 12.3592 10.3542 12.4261C10.3816 12.4399 10.4092 12.4539 10.4373 12.4682C10.5794 12.539 10.7207 12.611 10.8497 12.692C10.8575 12.6961 10.8639 12.6998 10.868 12.7022L10.869 12.7027C10.8759 12.7066 10.8777 12.7076 10.8777 12.7076L10.8802 12.7088C10.9714 12.7556 11.052 12.7741 11.128 12.7741C11.3192 12.7741 11.4499 12.652 11.5077 12.5945L12.8719 11.2354C13.1113 10.9968 13.3966 10.8443 13.7031 10.8443C14.0737 10.8443 14.356 11.0681 14.5154 11.2382L16.7119 13.423C16.96 13.6701 17.1079 13.9535 17.1054 14.2636C17.103 14.5714 16.9529 14.8581 16.7055 15.1151C16.5482 15.2829 16.3845 15.4422 16.2129 15.6059C16.1999 15.6185 16.1869 15.6311 16.1738 15.6437C15.9296 15.88 15.6872 16.1144 15.4676 16.3763L15.4637 16.3809L15.4597 16.3853C14.994 16.8855 14.4315 17.1205 13.725 17.1205C13.6553 17.1205 13.5832 17.1165 13.5218 17.1129L13.5206 17.1128C12.2777 17.0335 11.1318 16.5517 10.2916 16.1532L10.2902 16.1526C7.9914 15.0442 5.97376 13.4719 4.30069 11.4775C2.92706 9.83007 1.99612 8.28826 1.37977 6.63113C0.996894 5.61255 0.844406 4.77434 0.906332 3.99925L0.906526 3.99683C0.955114 3.46029 1.16444 3.0063 1.55341 2.61877L2.91175 1.26543L2.91321 1.26403Z" fill="#065D63"/>
</svg>
