<svg width="18" height="18" viewBox="0 0 18 18" fill="none" xmlns="http://www.w3.org/2000/svg">
<path d="M9 0C4.0371 0 0 4.01571 0 8.95232C0 13.8889 4.0371 17.9046 9 17.9046C13.9629 17.9046 18 13.8889 18 8.95232C18 4.01571 13.9629 0 9 0Z" fill="white"/>
<path d="M9 0C4.0371 0 0 4.01571 0 8.95232C0 13.8889 4.0371 17.9046 9 17.9046C13.9629 17.9046 18 13.8889 18 8.95232C18 4.01571 13.9629 0 9 0ZM9 16.5178C4.80674 16.5178 1.39426 13.1234 1.39426 8.95232C1.39426 4.78127 4.80674 1.38687 9 1.38687C13.194 1.38687 16.6057 4.78127 16.6057 8.95232C16.6057 13.1234 13.1933 16.5178 9 16.5178Z" fill="#065D63"/>
<path d="M12.2068 10.5334L9.69715 8.66116V4.84726C9.69715 4.46378 9.38553 4.15381 9 4.15381C8.61448 4.15381 8.30286 4.46378 8.30286 4.84726V9.00792C8.30286 9.22634 8.40604 9.43232 8.58172 9.56268L11.3702 11.643C11.4957 11.7366 11.6421 11.7817 11.7878 11.7817C12.0004 11.7817 12.2096 11.6867 12.3462 11.5036C12.5777 11.1978 12.515 10.763 12.2068 10.5334Z" fill="#065D63"/>
</svg>
