<svg xmlns="http://www.w3.org/2000/svg" width="303" height="263" viewBox="0 0 303 263" fill="none">
<path d="M257.907 226.058C251.115 232.994 245.042 237.072 240.388 240.15C195.011 270.171 143.147 261.517 127.112 258.559C101.235 253.792 79.3947 250.42 60.6321 233.628C17.9923 195.458 20.0658 115.839 52.6516 66.5176C56.5128 60.6658 89.0433 12.8965 141.028 6.16284C142.299 5.99749 143.248 5.90562 144.078 5.81376C152.123 4.96861 201.951 0.522385 242.581 34.2457C248.396 39.0777 257.759 47.7773 266.44 61.0608C298.169 109.629 298.27 184.839 257.907 226.058Z" fill="#F4F7FA"/>
<path d="M275.529 190.007C280.323 192.436 286.352 190.208 288.981 185.012C291.621 179.817 289.868 173.64 285.074 171.201C284.821 171.074 284.568 170.968 284.314 170.863C285.201 167.991 285.877 165.097 286.32 162.194C286.595 162.194 286.87 162.183 287.155 162.162C292.624 161.676 296.964 156.65 296.848 150.927C296.732 145.214 292.202 140.98 286.732 141.465C286.447 141.486 286.162 141.539 285.887 141.582C285.317 138.752 284.536 135.985 283.543 133.303C283.797 133.155 284.05 133.007 284.293 132.828C288.971 129.544 290.47 123.071 287.63 118.372C284.789 113.673 278.707 112.511 274.019 115.795C273.776 115.964 273.554 116.144 273.332 116.334C271.484 114.296 269.457 112.395 267.261 110.674C267.419 110.421 267.567 110.167 267.704 109.893C270.344 104.698 273.786 99.0271 268.95 96.6724C257.768 91.2131 252.974 95.891 250.334 101.086C250.197 101.35 250.081 101.625 249.964 101.899C247.272 101.15 244.547 100.632 241.813 100.347C241.834 100.062 241.844 99.7663 241.834 99.4812C241.717 93.7685 243.418 90.6746 237.927 90.569C225.952 90.3367 221.908 95.5319 222.024 101.245C222.035 101.54 222.056 101.836 222.088 102.121C219.342 102.902 216.649 103.906 214.031 105.109C213.904 104.856 213.777 104.602 213.629 104.36C210.789 99.6607 204.707 98.4991 200.018 101.783C195.341 105.067 193.841 111.54 196.682 116.239C196.829 116.482 196.988 116.704 197.146 116.925C195.077 118.995 193.134 121.255 191.339 123.662C191.106 123.514 190.874 123.377 190.621 123.25C185.827 120.822 179.797 123.05 177.168 128.245C174.528 133.44 176.281 139.617 181.075 142.057C181.328 142.183 181.582 142.289 181.835 142.395C180.948 145.267 180.272 148.16 179.829 151.064C179.554 151.064 179.28 151.074 178.995 151.096C173.525 151.581 169.185 156.608 169.301 162.331C169.417 168.043 173.947 172.278 179.417 171.792C179.702 171.771 179.987 171.718 180.262 171.676C180.832 174.506 181.613 177.272 182.606 179.954C182.353 180.102 182.099 180.25 181.856 180.43C177.178 183.714 175.679 190.186 178.519 194.885C181.36 199.584 190.737 201.77 195.415 198.497C195.657 198.328 192.585 197.113 192.806 196.934C194.654 198.982 196.682 200.873 198.878 202.594C198.72 202.847 198.572 203.101 198.435 203.375C195.795 208.57 197.548 214.748 202.341 217.187C207.135 219.616 213.165 217.388 215.794 212.192C215.931 211.928 216.048 211.654 216.164 211.379C218.856 212.129 221.581 212.646 224.316 212.931C224.294 213.217 224.284 213.512 224.294 213.797C224.411 219.51 228.941 223.744 234.41 223.259C239.88 222.773 244.22 217.747 244.104 212.023C244.093 211.728 244.072 211.432 244.041 211.147C246.786 210.366 249.479 209.362 252.097 208.159C252.224 208.412 252.351 208.665 252.499 208.908C255.339 213.607 261.421 214.769 266.11 211.485C270.788 208.201 272.287 201.728 269.446 197.029C269.299 196.786 269.14 196.564 268.982 196.343C271.052 194.273 272.994 192.013 274.79 189.606C275.043 189.743 275.275 189.88 275.529 190.007ZM215.752 190.778C198.339 181.94 191.983 159.501 201.55 140.642C211.116 121.793 232.985 113.673 250.397 122.501C267.81 131.339 274.167 153.778 264.6 172.637C255.033 191.496 233.164 199.616 215.752 190.778Z" fill="#D8DEE8"/>
<path d="M287.152 162.172C292.622 161.686 296.962 156.66 296.846 150.937C296.73 145.224 292.2 140.99 286.73 141.476C286.445 141.497 286.16 141.55 285.885 141.592C285.315 138.762 284.534 135.995 283.541 133.313C283.794 133.165 284.048 133.018 284.291 132.838C288.969 129.554 294.755 121.634 291.461 117.242C285.188 108.91 278.705 112.522 274.027 115.795C273.784 115.964 273.562 116.144 273.341 116.334C271.493 114.296 269.465 112.395 267.269 110.674C267.427 110.42 267.575 110.167 267.712 109.892C269.149 107.062 269.275 103.947 268.325 101.308C263.805 109.269 259.349 117.252 254.967 125.288C268.853 135.467 273.288 155.52 264.608 172.615C257.259 187.103 242.634 195.244 228.358 194.23C227.724 195.878 227.101 197.546 226.415 199.183C224.567 203.618 222.465 207.968 220.354 212.319C221.673 212.572 223.004 212.762 224.345 212.899C224.324 213.185 224.313 213.48 224.324 213.765C224.44 219.478 227.914 224.335 237.819 223.807C243.299 223.512 244.249 217.715 244.133 212.002C244.123 211.706 244.102 211.411 244.07 211.125C246.815 210.344 249.508 209.341 252.127 208.137C252.253 208.391 252.38 208.644 252.528 208.887C255.369 213.586 265.199 215.592 269.877 212.308C274.555 209.024 272.306 201.717 269.476 197.008C269.328 196.765 269.17 196.543 269.011 196.321C271.081 194.252 273.024 191.992 274.819 189.584C275.051 189.732 275.284 189.869 275.537 189.996C280.331 192.425 286.36 190.197 288.99 185.001C291.63 179.806 289.877 173.629 285.083 171.19C284.829 171.063 284.576 170.957 284.322 170.852C285.209 167.98 285.885 165.086 286.329 162.183C286.593 162.204 286.878 162.204 287.152 162.172Z" fill="#D8DEE8"/>
<path d="M280.68 190.599C285.474 193.028 291.504 190.8 294.133 185.605C296.773 180.409 295.02 174.232 290.226 171.793C289.973 171.666 289.719 171.561 289.466 171.455C290.353 168.583 291.029 165.69 291.472 162.786C291.747 162.786 292.021 162.775 292.306 162.754C297.776 162.268 302.116 157.242 302 151.529C301.884 145.817 297.354 141.582 291.884 142.068C291.599 142.089 291.314 142.142 291.039 142.184C290.469 139.354 289.688 136.588 288.695 133.906C288.948 133.758 289.202 133.61 289.445 133.431C294.123 130.147 295.622 123.674 292.782 118.975C289.941 114.276 283.859 113.114 279.17 116.398C278.928 116.567 278.706 116.747 278.484 116.937C276.636 114.899 274.609 112.998 272.412 111.277C272.571 111.024 272.719 110.77 272.856 110.496C275.496 105.3 273.743 99.123 268.949 96.6838C264.155 94.2552 258.125 96.4832 255.496 101.678C255.359 101.942 255.243 102.217 255.127 102.492C252.434 101.742 249.71 101.224 246.975 100.939C246.996 100.654 247.006 100.359 246.996 100.073C246.88 94.3608 242.35 90.1264 236.88 90.6122C231.41 91.0979 227.07 96.1242 227.186 101.837C227.197 102.132 227.218 102.428 227.25 102.713C224.504 103.495 221.812 104.498 219.193 105.702C219.066 105.448 218.939 105.195 218.792 104.952C215.951 100.253 209.869 99.0914 205.181 102.375C200.503 105.659 199.003 112.132 201.844 116.831C201.992 117.074 202.15 117.296 202.308 117.518C200.239 119.587 198.296 121.847 196.501 124.254C196.268 124.107 196.036 123.969 195.783 123.843C190.989 121.414 184.959 123.642 182.33 128.837C179.69 134.032 181.443 140.21 186.237 142.649C186.49 142.776 186.744 142.881 186.997 142.987C186.11 145.859 185.434 148.752 184.991 151.656C184.716 151.656 184.442 151.667 184.157 151.688C178.687 152.174 174.347 157.2 174.463 162.923C174.579 168.636 179.109 172.87 184.579 172.384C184.864 172.363 185.149 172.31 185.424 172.268C185.994 175.098 186.775 177.865 187.768 180.547C187.515 180.695 187.261 180.842 187.018 181.022C182.341 184.306 180.841 190.779 183.682 195.478C186.522 200.177 192.604 201.338 197.293 198.054C197.536 197.885 197.757 197.706 197.979 197.516C199.827 199.554 201.854 201.454 204.051 203.176C203.892 203.429 203.744 203.682 203.607 203.957C200.967 209.152 202.72 215.329 207.514 217.769C212.308 220.197 218.338 217.969 220.967 212.774C221.104 212.51 221.22 212.235 221.336 211.961C224.029 212.711 226.753 213.228 229.488 213.513C229.467 213.798 229.457 214.094 229.467 214.379C229.583 220.092 234.113 224.326 239.583 223.84C245.053 223.355 249.393 218.328 249.277 212.605C249.266 212.309 249.245 212.014 249.213 211.729C251.959 210.947 254.651 209.944 257.27 208.74C257.397 208.994 257.524 209.247 257.671 209.49C260.512 214.189 266.594 215.351 271.283 212.067C275.96 208.783 277.46 202.31 274.619 197.611C274.471 197.368 274.313 197.146 274.155 196.924C276.224 194.855 278.167 192.595 279.962 190.187C280.195 190.325 280.438 190.473 280.68 190.599ZM220.914 191.37C203.502 182.532 197.145 160.093 206.712 141.234C216.279 122.385 238.147 114.265 255.56 123.093C272.972 131.931 279.329 154.37 269.762 173.229C260.195 192.078 238.327 200.198 220.914 191.37Z" fill="white"/>
<path d="M116.925 237.156C116.64 241.411 115.489 247.578 114.423 254.589L180.694 231.813C164.137 216.575 144.274 201.856 142.036 161.772C140.98 142.966 145.267 106.736 128.583 92.629C109.576 76.5576 97.3061 94.0229 84.9093 80.3907C65.5117 59.0712 35.6074 52.6828 19.3142 76.6104C3.22167 100.221 26.7692 144.17 81.1185 177.548C117.401 205.91 118.435 214.939 116.925 237.156Z" fill="#065D63"/>
<path d="M147.357 238.971C143.64 230.64 139.712 222.974 135.551 214.854L134.168 212.15C131.919 208.37 129.817 204.569 127.769 200.905C123.165 192.626 118.804 184.801 113.038 177.083C112.753 176.607 112.511 176.122 112.247 175.615C111.307 173.809 110.335 171.94 108.361 170.684L108.297 170.62C81.0857 128.119 44.6452 90.5059 0 58.8488L0.232308 58.5215C44.9092 90.1997 81.3708 127.833 108.614 170.367C110.652 171.676 111.687 173.672 112.606 175.425C112.87 175.932 113.112 176.396 113.376 176.85C119.152 184.569 123.513 192.404 128.128 200.704C130.166 204.368 132.278 208.159 134.527 211.95L135.921 214.663C140.081 222.784 144.02 230.46 147.737 238.802L147.357 238.971Z" fill="#FCFDFE"/>
<path d="M126.576 199.552C115.32 178.624 113.556 147.79 114.063 125.605C114.612 101.582 117.865 82.2584 117.896 82.0684L118.297 82.1317C118.266 82.3218 115.014 101.624 114.464 125.615C113.958 147.748 115.71 178.497 126.925 199.352L126.576 199.552Z" fill="#FCFDFE"/>
<path d="M65.1629 115.014C51.9742 93.4729 43.1254 67.8135 40.2215 59.3765C39.6619 57.7609 39.3029 56.6944 39.1973 56.5043L39.5563 56.3037C39.6724 56.5149 39.9681 57.3596 40.6122 59.2392C43.5161 67.6656 52.3543 93.2934 65.5219 114.803L65.1629 115.014Z" fill="#FCFDFE"/>
<path d="M91.6334 146.692C74.147 131.275 25.8377 134.485 25.352 134.517L25.3203 134.116C25.806 134.084 74.2948 130.864 91.9079 146.386L91.6334 146.692Z" fill="#FCFDFE"/>
<path d="M69.6729 183.682C79.1341 210.186 88.9544 197.008 101.689 195.561C122.143 210.63 129.724 228.517 114.783 251.357L90.8973 255.771C82.3336 258.274 71.5525 259.097 68.2579 247.683C64.5305 234.768 64.7522 225.677 48.2795 224.367C31.8069 223.058 21.7437 213.797 23.0953 198.856C24.5209 183.144 3.88778 169.701 11.216 156.977C23.9823 134.813 59.821 156.09 69.6729 183.682Z" fill="#2A2929" fill-opacity="0.7"/>
<path d="M91.6791 229.362C78.6277 222.245 66.4421 213.533 55.4709 203.481C44.4046 193.333 34.7111 181.961 26.6648 169.659C22.0503 162.605 17.9639 155.203 14.5215 147.674L14.8488 147.526C18.2912 155.045 22.3671 162.426 26.971 169.469C34.9962 181.749 44.6686 193.101 55.7137 203.227C66.6638 213.259 78.8283 221.949 91.848 229.056L91.6791 229.362Z" fill="#FCFDFE"/>
<path d="M72.2542 252.382L71.9902 252.128C75.4748 248.528 79.8781 245.138 85.0733 242.065C87.5548 240.597 90.0785 239.32 92.5811 238.274L92.7184 238.612C90.2369 239.647 87.7237 240.914 85.2634 242.382C80.0893 245.434 75.7071 248.802 72.2542 252.382Z" fill="#FCFDFE"/>
<path d="M62.5057 209.553C46.8672 202.235 22.2532 211.855 22.0103 211.96L21.873 211.622C22.1265 211.527 46.8883 201.844 62.6641 209.225L62.5057 209.553Z" fill="#FCFDFE"/>
<path d="M37.8573 184.907C28.1215 168.012 34.4994 142.416 34.5628 142.162L34.9112 142.257C34.8479 142.511 28.5017 167.959 38.1635 184.727L37.8573 184.907Z" fill="#FCFDFE"/>
<path d="M193.534 90.5591C194.04 77.8244 194.283 71.4465 191.643 66.6631C185.878 56.2093 172.742 51.8377 162.964 51.8272C149.237 51.8166 138.931 60.3908 132.416 65.8289C124.042 72.8087 125.489 74.9945 120.547 77.3281C106.883 83.7694 95.2783 67.2967 75.4583 67.001C53.6003 66.6842 37.2121 86.2931 33.2734 91.4144C12.2496 118.7 22.883 151.624 24.0339 154.971C34.6567 186.048 65.5852 203.017 91.4135 203.703C98.7946 203.904 117.685 204.411 125.901 192.933C133.799 181.887 125.087 169.111 135.679 153.398C137.157 151.202 141.645 144.549 149.944 140.231C159.321 135.352 164.706 138.066 174.411 132.607C182.277 128.182 186.512 122.037 187.335 120.791C192.541 112.987 192.942 105.406 193.534 90.5591Z" fill="#2A2929"/>
<g opacity="0.3">
<path opacity="0.3" d="M26.8008 161.856C48.4264 185.646 59.4082 190.599 65.0047 187.8C72.8398 183.883 68.2676 165.7 79.8512 158.994C90.2734 152.965 100.421 163.936 109.808 158.234C121.677 151.033 111.287 129.967 122.786 118.995C136.481 105.933 162.098 125.384 180.229 113.388C185.72 109.756 191.116 102.85 193.587 88.9961C193.566 89.5135 193.544 90.0309 193.523 90.5694C192.943 105.405 192.541 112.987 187.314 120.801C186.48 122.047 182.256 128.193 174.39 132.617C164.686 138.076 159.3 135.362 149.923 140.241C141.624 144.56 137.136 151.212 135.658 153.408C125.067 169.121 133.778 181.898 125.88 192.943C117.675 204.421 98.7843 203.914 91.3927 203.714C67.5495 203.08 39.3454 188.55 26.8008 161.856Z" fill="url(#paint0_linear)"/>
</g>
<path d="M275.073 140.517C275.073 140.517 277.977 137.043 283.415 136.884C288.863 136.715 296.276 133.495 299.465 133.21C300.236 133.136 300.616 132.925 300.679 132.639C300.817 132.059 297.279 131.225 294.143 131.119C288.578 130.929 285.337 133.072 284.587 131.974C283.753 130.749 287.343 127.402 286.678 126.652C286.171 126.072 283.732 127.941 281.113 129.07C279.254 129.873 272 138.553 272 138.553L275.073 140.517Z" fill="url(#paint1_linear)"/>
<path d="M275.249 134.223C276.601 136.947 277.953 139.671 279.304 142.396C277.974 149.734 275.249 160.568 269.167 172.437C262.62 185.214 247.689 214.337 221.407 216.977C201.365 218.994 184.544 204.643 178.177 199.152C172.285 194.073 167.005 189.596 164.439 182.447C160.395 171.181 164.481 157.284 174.27 144.191C179.095 137.75 189.127 139.133 191.978 146.662C196.476 158.53 204.058 166.777 212.769 168.393C222.569 170.209 233.476 163.567 238.123 160.748C245.028 156.556 246.792 153.335 255.377 146.693C263.328 140.548 270.529 136.577 275.249 134.223Z" fill="#065D63"/>
<g opacity="0.3">
<path opacity="0.3" d="M195.464 195.309C202.972 193.619 205.802 186.65 216.097 186.027C229.107 185.235 234.703 195.773 243.024 192.986C249.814 190.716 250.943 182.088 255.685 170.969C259.359 162.342 265.727 151.002 277.606 138.964C278.176 140.115 278.746 141.255 279.306 142.406C277.975 149.745 275.251 160.579 269.169 172.448C262.622 185.225 247.691 214.347 221.409 216.987C201.367 219.004 184.546 204.654 178.179 199.163C172.286 194.084 167.007 189.607 164.441 182.458C163.733 180.483 163.269 178.424 163.047 176.302C178.569 193.999 188.717 196.819 195.464 195.309Z" fill="url(#paint2_linear)"/>
</g>
<path d="M193.9 257.366C194.249 245.719 194.935 228.455 196.709 220.018C201.302 198.128 206.888 192.595 205.389 178.54C204.101 166.482 198.568 157.136 195.22 151.498C189.93 142.586 183.943 136.282 179.54 132.269C174.936 131.583 170.332 130.896 165.717 130.21C161.821 131.118 156.14 132.776 149.847 135.997C133.701 144.265 125.285 156.756 120.534 163.821C99.7949 194.633 100.207 237.472 100.365 245.234C100.207 248.423 100.164 251.495 100.238 254.357C109.573 257.461 121.125 260.133 134.937 261.316C133.796 250.144 132.423 236.596 132.856 231.792C133.87 220.599 135.76 210.63 137.893 202.098C139.9 209.606 141.747 218.107 143.12 227.494C143.986 233.428 144.884 249.436 145.475 261.896C159.572 262.245 175.696 261.041 193.9 257.366Z" fill="#065D63"/>
<path opacity="0.3" d="M175.572 240.102C180.63 222.172 196.364 210.937 192.489 204.474C189.004 198.667 175.847 206.988 164.115 199.469C151.117 191.138 155.246 173.24 146.112 170.526C137.273 167.897 121.941 181.254 118.288 196.692C114.898 211.021 123.789 217.832 121.561 232.879C120.083 242.837 114.571 250.809 108.615 256.849C116.229 258.845 124.993 260.471 134.929 261.316C133.789 250.144 132.416 236.596 132.849 231.792C133.863 220.599 135.753 210.631 137.886 202.099C139.892 209.606 141.74 218.107 143.113 227.494C143.979 233.428 144.876 249.436 145.468 261.896C154.359 262.129 164.052 261.728 174.569 260.482C173.534 253.84 173.64 246.955 175.572 240.102Z" fill="#055459"/>
<path d="M177.238 109.418C177.238 109.418 177.629 119.397 177.238 126.091C176.953 130.991 181.198 133.789 181.198 133.789C181.198 133.789 183.532 137.781 170.934 138.446C158.337 139.111 146.088 138.446 146.088 138.446C146.088 138.446 158.4 130.262 161.209 128.077C164.018 125.901 165.528 109.629 163.733 99.3232L177.238 109.418Z" fill="url(#paint3_linear)"/>
<path d="M180.469 77.2232C180.469 77.2232 186.879 92.6717 186.847 102.017C186.816 111.351 180.29 116.715 175.337 114.403C170.385 112.101 162.93 102.386 162.93 102.386C162.93 102.386 161.927 105.005 158.126 102.386C154.324 99.7676 151.505 85.09 158.896 89.261C158.896 89.261 157.724 85.1428 159.551 79.1767C161.357 73.2001 178.305 66.7589 180.469 77.2232Z" fill="url(#paint4_linear)"/>
<path d="M169.888 110.147C160.923 110.147 157.544 97.2965 157.502 97.1487C157.417 96.8108 157.618 96.4729 157.956 96.3884C158.294 96.3039 158.632 96.5046 158.716 96.8425C158.748 96.9797 162.391 110.802 171.873 108.669C172.211 108.595 172.549 108.806 172.623 109.144C172.697 109.482 172.485 109.809 172.148 109.894C171.366 110.063 170.606 110.147 169.888 110.147Z" fill="white"/>
<path d="M177.823 108.089C178.066 109.039 176.872 110.169 175.151 110.612C173.43 111.056 171.825 110.655 171.582 109.715C171.339 108.764 172.533 107.635 174.254 107.191C175.975 106.737 177.569 107.149 177.823 108.089Z" fill="white"/>
<path d="M158.225 99.7071C159.833 99.2887 160.593 96.8586 159.922 94.2793C159.252 91.7 157.404 89.9482 155.795 90.3665C154.187 90.7849 153.427 93.215 154.097 95.7943C154.768 98.3736 156.616 100.125 158.225 99.7071Z" fill="white"/>
<path d="M181.352 26.0542C184.851 7.20626 214.683 -3.07359 236.745 0.815828C240.901 1.54807 259.796 4.88593 265.378 18.6177C272.691 36.6099 254.556 66.023 229.879 69.3989C228.786 69.551 227.692 69.6461 226.608 69.6936C226.208 74.8859 207.76 82.1792 207.76 82.1792C195.493 83.6342 211.811 72.3944 207.76 65.6901C191.014 57.8542 178.737 40.1284 181.352 26.0542Z" fill="#F4B42D"/>
<path d="M215.377 32.5398C215.348 35.212 213.161 37.3041 210.48 37.2185C207.788 37.1329 205.62 34.8887 205.649 32.1975C205.677 29.5158 207.883 27.4236 210.575 27.5187C213.266 27.6233 215.406 29.8676 215.377 32.5398Z" fill="white"/>
<path d="M231.83 33.11C231.811 35.7536 229.671 37.8267 227.037 37.7507C224.403 37.6651 222.273 35.4398 222.301 32.7867C222.33 30.1335 224.488 28.0604 227.122 28.1555C229.747 28.2411 231.849 30.4663 231.83 33.11Z" fill="white"/>
<path d="M247.958 33.6621C247.939 36.2772 245.847 38.3408 243.269 38.2552C240.683 38.1696 238.6 35.9729 238.619 33.3388C238.638 30.7046 240.749 28.66 243.336 28.7551C245.904 28.8502 247.977 31.0469 247.958 33.6621Z" fill="white"/>
<defs>
<linearGradient id="paint0_linear" x1="182.729" y1="56.9586" x2="58.649" y2="197.519" gradientUnits="userSpaceOnUse">
<stop stop-color="#311944"/>
<stop offset="1" stop-color="#6B3976"/>
</linearGradient>
<linearGradient id="paint1_linear" x1="272.001" y1="133.535" x2="300.686" y2="133.535" gradientUnits="userSpaceOnUse">
<stop stop-color="#F9B776"/>
<stop offset="1" stop-color="#F47960"/>
</linearGradient>
<linearGradient id="paint2_linear" x1="256.682" y1="193.861" x2="184.679" y2="131.818" gradientUnits="userSpaceOnUse">
<stop stop-color="#FF9085"/>
<stop offset="1" stop-color="#FB6FBB"/>
</linearGradient>
<linearGradient id="paint3_linear" x1="146.089" y1="119.047" x2="181.371" y2="119.047" gradientUnits="userSpaceOnUse">
<stop stop-color="#F9B776"/>
<stop offset="1" stop-color="#F47960"/>
</linearGradient>
<linearGradient id="paint4_linear" x1="154.28" y1="93.3172" x2="186.85" y2="93.3172" gradientUnits="userSpaceOnUse">
<stop stop-color="#F9B776"/>
<stop offset="1" stop-color="#F47960"/>
</linearGradient>
</defs>
</svg>