<svg width="32" height="32" viewBox="0 0 32 32" fill="none" xmlns="http://www.w3.org/2000/svg">
<g clip-path="url(#clip0)">
<path d="M28.3826 19.3019H27.6687V15.5017C27.6687 14.0828 26.5142 12.9283 25.0952 12.9283H24.2327L26.7482 8.16383C27.0102 7.66769 27.063 7.09931 26.8969 6.56342C26.7306 6.02691 26.3649 5.58734 25.8671 5.32565L16.194 0.241484C15.1682 -0.297777 13.8936 0.0966685 13.3528 1.12063L7.1187 12.9283H5.56567C4.14671 12.9283 2.99231 14.0828 2.99231 15.5017V29.4266C2.99231 30.8455 4.14671 32 5.56567 32H25.0953C26.5143 32 27.6687 30.8455 27.6687 29.4266V25.6264H28.3826C28.7278 25.6264 29.0076 25.3465 29.0076 25.0014V19.9269C29.0076 19.5817 28.7278 19.3019 28.3826 19.3019ZM14.4582 1.70426C14.6777 1.28863 15.1954 1.12881 15.6124 1.34794L25.2856 6.43211C25.4874 6.53817 25.6357 6.71624 25.703 6.93343C25.7701 7.14993 25.7488 7.37962 25.6429 7.58019L22.8193 12.9283H21.1415L22.7363 9.90773C22.8138 9.76092 22.8298 9.58942 22.7806 9.43085C22.7314 9.27235 22.6213 9.13991 22.4744 9.06266C22.0649 8.84746 21.7641 8.48608 21.6275 8.0452C21.4912 7.60538 21.5345 7.13881 21.7496 6.73142C21.8271 6.58461 21.8431 6.4131 21.7939 6.25454C21.7447 6.09604 21.6345 5.9636 21.4877 5.88634L18.2074 4.16231C17.9024 4.00199 17.5249 4.11881 17.3639 4.42375C16.9189 5.26664 15.8691 5.5909 15.0239 5.14677C14.7189 4.98645 14.3414 5.10333 14.1804 5.40821L10.21 12.9282H8.53223L14.4582 1.70426ZM20.4335 8.41527C20.6061 8.97228 20.9305 9.45566 21.369 9.82005L19.728 12.9283H11.6235L15.0252 6.48554C16.1509 6.80099 17.3702 6.42423 18.1197 5.52846L20.4099 6.73217C20.2551 7.27906 20.2612 7.85951 20.4335 8.41527ZM26.4187 29.4266C26.4187 30.1563 25.825 30.75 25.0953 30.75H5.56567C4.83597 30.75 4.24233 30.1563 4.24233 29.4266V15.5017C4.24233 14.772 4.83597 14.1783 5.56567 14.1783H25.0953C25.825 14.1783 26.4187 14.772 26.4187 15.5017V19.3019H23.9783C22.2346 19.3019 20.816 20.7204 20.816 22.4642C20.816 24.2079 22.2346 25.6265 23.9783 25.6265H26.4187V29.4266ZM27.7575 24.3764H23.9782C22.9238 24.3764 22.0659 23.5185 22.0659 22.4641C22.0659 21.4097 22.9238 20.5518 23.9782 20.5518H27.7575V24.3764Z" fill="#065D63"/>
</g>
<defs>
<clipPath id="clip0">
<rect width="32" height="32" fill="white"/>
</clipPath>
</defs>
</svg>
