<svg width="23" height="17" viewBox="0 0 23 17" fill="none" xmlns="http://www.w3.org/2000/svg">
                            <path d="M5.50002 13.5037C5.80002 13.5037 6.10002 13.2037 6.10002 12.9037V10.4037C6.10002 10.1037 5.80002 9.80371 5.50002 9.80371C5.20002 9.80371 4.90002 10.1037 4.90002 10.4037V12.9037C4.90002 13.2037 5.20002 13.5037 5.50002 13.5037Z" fill="white"></path>
                            <path d="M8.00002 13.5041C8.30002 13.5041 8.60002 13.2041 8.60002 12.9041V10.4041C8.60002 10.0041 8.30002 9.7041 8.00002 9.7041C7.70002 9.7041 7.40002 10.0041 7.40002 10.3041V12.8041C7.40002 13.2041 7.70002 13.5041 8.00002 13.5041Z" fill="white"></path>
                            <path d="M10.5 13.5037C10.8 13.5037 11.1 13.2037 11.1 12.9037V10.4037C11.1 10.1037 10.8 9.80371 10.5 9.80371C10.2 9.80371 9.90002 10.1037 9.90002 10.4037V12.9037C9.90002 13.2037 10.2 13.5037 10.5 13.5037Z" fill="white"></path>
                            <path d="M22.3 9.80371H20.4V7.90371C20.4 7.60371 20.1 7.30371 19.8 7.30371C19.5 7.30371 19.2 7.60371 19.2 7.90371V9.80371H17.3C17 9.80371 16.7 10.1037 16.7 10.4037C16.7 10.7037 17 11.0037 17.3 11.0037H19.2V12.9037C19.2 13.2037 19.5 13.5037 19.8 13.5037C20.1 13.5037 20.4 13.2037 20.4 12.9037V11.0037H22.3C22.6 11.0037 22.9 10.7037 22.9 10.4037C22.9 10.1037 22.6 9.80371 22.3 9.80371Z" fill="white"></path>
                            <path d="M15.4 4.70405H13.2L9.9 0.304052C9.7 0.00405183 9.3 -0.0959482 9 0.104052C8.7 0.304052 8.7 0.704052 8.9 1.00405L11.7 4.80405H4.4L7.2 1.00405C7.4 0.704052 7.3 0.304052 7 0.104052C6.7 -0.0959482 6.3 0.00405183 6.1 0.304052L2.8 4.70405H0.6C0.3 4.70405 0 5.00405 0 5.40405V7.90405C0 8.20405 0.3 8.50405 0.6 8.50405H1L1.6 13.8041C1.8 15.1041 2.9 16.0041 4.2 16.0041H11.9C13.2 16.0041 14.2 15.0041 14.4 13.8041L15 8.50405H15.4C15.7 8.50405 16 8.20405 16 7.90405V5.40405C16 5.00405 15.7 4.70405 15.4 4.70405ZM13.1 13.6041C13 14.2041 12.5 14.7041 11.9 14.7041H4.2C3.6 14.7041 3 14.2041 3 13.6041L2.3 8.50405H13.7L13.1 13.6041ZM14.8 7.20405H14.5H1.3V6.00405H14.8V7.20405Z" fill="white"></path>
                        </svg>