<svg width="49" height="50" viewBox="0 0 49 50" fill="none" xmlns="http://www.w3.org/2000/svg">
<path d="M2 49.786C0.89543 49.786 0 48.8905 0 47.786V37.3545C0 36.2499 0.895431 35.3545 2 35.3545H3.75931C4.37696 35.3545 4.95897 35.402 5.50534 35.497C6.0636 35.592 6.55653 35.7762 6.98413 36.0493C7.41173 36.3107 7.7443 36.6907 7.98186 37.1896C8.23129 37.6766 8.35601 38.3239 8.35601 39.1316C8.35601 39.7136 8.26692 40.2066 8.08876 40.6104C7.92247 41.0024 7.67897 41.3171 7.35828 41.5547C7.04945 41.7922 6.6753 41.9526 6.23583 42.0357C6.79408 42.107 7.26325 42.2911 7.64334 42.5881C8.02343 42.8731 8.3085 43.2591 8.49854 43.7461C8.70046 44.2331 8.80142 44.8211 8.80142 45.51C8.80142 46.2583 8.70046 46.9056 8.49854 47.452C8.3085 47.9865 8.02937 48.426 7.66116 48.7704C7.29295 49.1149 6.83565 49.3703 6.28928 49.5365C5.75478 49.7028 5.13713 49.786 4.43635 49.786H2ZM3.18918 47.5589H3.86621C4.567 47.5589 5.04805 47.3807 5.30936 47.0244C5.58255 46.6681 5.71914 46.1454 5.71914 45.4565C5.71914 44.9102 5.65975 44.4766 5.54098 44.1559C5.4222 43.8352 5.22622 43.6036 4.95303 43.4611C4.67984 43.3067 4.31163 43.2294 3.8484 43.2294H3.18918V47.5589ZM3.18918 41.1271H3.81276C4.29975 41.1271 4.66796 41.0558 4.91739 40.9133C5.16683 40.7589 5.33312 40.5391 5.41626 40.2541C5.51128 39.969 5.55879 39.6245 5.55879 39.2207C5.55879 38.8406 5.48753 38.5259 5.34499 38.2764C5.21434 38.0151 5.01242 37.8191 4.73923 37.6885C4.47792 37.5578 4.14534 37.4925 3.7415 37.4925H3.18918V41.1271Z" fill="#065D63"/>
<path d="M14.6433 49.9998C13.5387 49.9998 12.6716 49.8216 12.0421 49.4653C11.4245 49.0971 10.9909 48.5685 10.7415 47.8796C10.4921 47.1788 10.3673 46.3236 10.3673 45.314V36.9313C10.3673 36.0604 11.0733 35.3545 11.9441 35.3545V35.3545C12.8149 35.3545 13.5209 36.0604 13.5209 36.9313V45.795C13.5209 46.092 13.5446 46.3889 13.5922 46.6859C13.6397 46.9828 13.7406 47.2263 13.895 47.4164C14.0613 47.6064 14.3108 47.7014 14.6433 47.7014C14.9878 47.7014 15.2372 47.6064 15.3916 47.4164C15.546 47.2263 15.6411 46.9828 15.6767 46.6859C15.7242 46.3889 15.748 46.092 15.748 45.795V36.9402C15.748 36.0644 16.4579 35.3545 17.3336 35.3545V35.3545C18.2094 35.3545 18.9193 36.0644 18.9193 36.9402V45.314C18.9193 46.3236 18.7887 47.1788 18.5274 47.8796C18.2779 48.5685 17.8444 49.0971 17.2267 49.4653C16.6091 49.8216 15.748 49.9998 14.6433 49.9998Z" fill="#065D63"/>
<path d="M22.5431 49.786C21.6624 49.786 20.9485 49.0721 20.9485 48.1914V37.3545C20.9485 36.2499 21.8439 35.3545 22.9485 35.3545H24.9216C25.8956 35.3545 26.7389 35.4614 27.4516 35.6752C28.1642 35.889 28.7165 36.275 29.1085 36.8333C29.5123 37.3797 29.7143 38.1576 29.7143 39.1673C29.7143 39.7611 29.6668 40.2897 29.5717 40.7529C29.4767 41.2162 29.2985 41.62 29.0372 41.9645C28.7878 42.297 28.4255 42.5762 27.9504 42.8019L29.3644 47.7953C29.6472 48.7939 28.897 49.786 27.8592 49.786V49.786C27.1387 49.786 26.5113 49.2939 26.3398 48.5941L25.0463 43.3185H24.1377V48.1914C24.1377 49.0721 23.4237 49.786 22.5431 49.786V49.786ZM24.1377 41.4834H25.0285C25.4798 41.4834 25.8302 41.4062 26.0797 41.2518C26.3291 41.0855 26.5013 40.8539 26.5964 40.557C26.7033 40.2481 26.7567 39.8799 26.7567 39.4523C26.7567 38.8347 26.6439 38.3536 26.4182 38.0092C26.1925 37.6647 25.7768 37.4925 25.171 37.4925H24.1377V41.4834Z" fill="#065D63"/>
<path d="M33.6315 49.786C32.5269 49.786 31.6315 48.8905 31.6315 47.786V37.3545C31.6315 36.2499 32.5269 35.3545 33.6315 35.3545H37.03C37.6302 35.3545 38.1168 35.8411 38.1168 36.4413V36.4413C38.1168 37.0415 37.6302 37.5281 37.03 37.5281H34.8207V41.1093H36.2282C36.8383 41.1093 37.3328 41.6038 37.3328 42.2139V42.2139C37.3328 42.824 36.8383 43.3185 36.2282 43.3185H34.8207V47.6302H37.0745C37.6698 47.6302 38.1524 48.1128 38.1524 48.7081V48.7081C38.1524 49.3034 37.6698 49.786 37.0745 49.786H33.6315Z" fill="#065D63"/>
<path d="M41.1949 49.786C40.3142 49.786 39.6003 49.0721 39.6003 48.1914V36.9491C39.6003 36.0684 40.3142 35.3545 41.1949 35.3545V35.3545C42.0755 35.3545 42.7895 36.0684 42.7895 36.9491V41.2518L44.845 36.249C45.0673 35.7078 45.5945 35.3545 46.1796 35.3545V35.3545C47.2057 35.3545 47.9039 36.3952 47.5148 37.3446L45.6579 41.8754L47.7406 47.7651C48.0893 48.7513 47.3578 49.786 46.3117 49.786V49.786C45.656 49.786 45.0747 49.3644 44.8711 48.7412L43.128 43.4076L42.7895 43.9777V48.1914C42.7895 49.0721 42.0755 49.786 41.1949 49.786V49.786Z" fill="#065D63"/>
<path d="M23.9084 27.8763C24.0763 30.1093 26.0783 31.8153 28.1816 31.0469C34.3163 28.8056 38.6956 22.9178 38.6956 16.0071C38.6956 7.16664 31.5289 0 22.6884 0C13.8479 0 6.68127 7.16664 6.68127 16.0071C6.68127 23.0131 11.1821 28.9678 17.45 31.1375C19.5684 31.8708 21.5429 30.1124 21.6691 27.8743V27.8743C21.7024 27.2851 21.4232 26.7254 20.9408 26.3854C18.08 24.3689 11.1401 18.9871 11.1401 14.2063C11.0749 12.6444 11.6964 11.1225 12.869 9.97335C14.0415 8.82416 15.6698 8.14102 17.398 8.07317C18.4821 8.0884 19.5425 8.36187 20.4722 8.86593C20.5585 8.91268 20.6433 8.95813 20.7267 9.00278C21.5419 9.4395 22.2168 9.801 22.6931 10.5786C23.1694 9.801 23.8441 9.43957 24.6594 9.00285L24.6601 9.00244C24.7433 8.9579 24.8279 8.91257 24.9139 8.86593C25.8436 8.36187 26.9041 8.0884 27.9882 8.07317C29.7164 8.14102 31.3446 8.82416 32.5172 9.97335C33.6897 11.1225 34.3113 12.6444 34.2461 14.2063C34.2461 18.8914 27.5814 24.1547 24.6221 26.2609C24.1347 26.6077 23.8561 27.1807 23.901 27.7773L23.9084 27.8763Z" fill="#DA9308"/>
<path d="M18.6518 16.1463C18.6518 18.1451 18.2779 19.7653 17.8166 19.7653C17.3554 19.7653 16.9815 18.1451 16.9815 16.1463C16.9815 14.1476 17.3554 12.5273 17.8166 12.5273C18.2779 12.5273 18.6518 14.1476 18.6518 16.1463Z" fill="#DA9308"/>
<path d="M23.6627 18.095C23.6627 20.8625 23.2265 23.106 22.6884 23.106C22.1503 23.106 21.714 20.8625 21.714 18.095C21.714 15.3276 22.1503 13.0841 22.6884 13.0841C23.2265 13.0841 23.6627 15.3276 23.6627 18.095Z" fill="#DA9308"/>
<path d="M27.5601 19.7653C28.0214 19.7653 28.3953 18.1451 28.3953 16.1463C28.3953 14.1476 28.0214 12.5273 27.5601 12.5273C27.0989 12.5273 26.725 14.1476 26.725 16.1463C26.725 18.1451 27.0989 19.7653 27.5601 19.7653Z" fill="#DA9308"/>
</svg>
