<svg width="448" height="170" viewBox="0 0 448 170" fill="none" xmlns="http://www.w3.org/2000/svg">
<path d="M142.726 54.5372C156.317 29.4786 196.049 -9.89585 243.005 2.27951C289.96 14.4549 312.458 66.9536 307.267 111.738C303.338 145.635 274.077 176.707 223.938 168.664C146.963 156.316 112.901 109.421 142.726 54.5372Z" fill="#EEEEEE"/>
<path d="M11.336 50.0478C12.104 44.8158 13.568 40.2557 15.728 36.3678C17.936 32.4798 20.648 29.2398 23.864 26.6478C27.128 24.0558 30.848 22.1357 35.024 20.8877C39.2 19.5918 43.688 18.9438 48.488 18.9438C53.672 18.9438 58.28 19.6878 62.312 21.1758C66.344 22.6158 69.752 24.5838 72.536 27.0798C75.32 29.5758 77.432 32.4797 78.872 35.7917C80.312 39.0558 81.032 42.5118 81.032 46.1598C81.032 49.4718 80.696 52.3998 80.024 54.9438C79.352 57.4398 78.344 59.6238 77 61.4958C75.704 63.3198 74.072 64.8798 72.104 66.1758C70.184 67.4238 67.976 68.4798 65.48 69.3438C77.096 73.4238 82.904 81.3438 82.904 93.1038C82.904 98.6718 81.896 103.52 79.88 107.648C77.864 111.776 75.152 115.208 71.744 117.944C68.384 120.68 64.472 122.744 60.008 124.136C55.544 125.48 50.888 126.152 46.04 126.152C41.048 126.152 36.608 125.624 32.72 124.568C28.832 123.464 25.376 121.784 22.352 119.528C19.328 117.224 16.664 114.296 14.36 110.744C12.104 107.192 10.136 102.968 8.456 98.0718L18.392 94.0398C20.984 93.0318 23.384 92.7678 25.592 93.2478C27.8 93.7278 29.384 94.8318 30.344 96.5598C32.504 100.544 34.784 103.448 37.184 105.272C39.632 107.048 42.488 107.936 45.752 107.936C48.248 107.936 50.408 107.528 52.232 106.712C54.104 105.848 55.64 104.768 56.84 103.472C58.088 102.128 59.024 100.616 59.648 98.9358C60.272 97.2558 60.584 95.5518 60.584 93.8238C60.584 91.5678 60.416 89.5518 60.08 87.7758C59.792 85.9518 58.928 84.3918 57.488 83.0958C56.048 81.7998 53.864 80.8158 50.936 80.1438C48.056 79.4238 44.024 79.0638 38.84 79.0638V63.6558C43.208 63.6558 46.736 63.3198 49.424 62.6478C52.112 61.9758 54.176 61.0638 55.616 59.9118C57.104 58.7118 58.088 57.2718 58.568 55.5918C59.048 53.9118 59.288 52.0638 59.288 50.0478C59.288 45.9198 58.28 42.7517 56.264 40.5437C54.296 38.2878 51.272 37.1598 47.192 37.1598C43.88 37.1598 41.072 38.0478 38.768 39.8237C36.512 41.5518 34.952 43.7118 34.088 46.3038C33.08 48.9437 31.76 50.6957 30.128 51.5597C28.496 52.4237 26.168 52.6157 23.144 52.1357L11.336 50.0478ZM190.923 50.3358L151.035 144.368C150.363 145.856 149.547 146.936 148.587 147.608C147.627 148.328 146.091 148.688 143.979 148.688H127.275L141.675 118.448L111.867 50.3358H131.595C133.323 50.3358 134.643 50.7198 135.555 51.4878C136.515 52.2558 137.211 53.1678 137.643 54.2238L149.883 86.4078C151.035 89.3358 151.971 92.3358 152.691 95.4078C153.219 93.8718 153.747 92.3358 154.275 90.7998C154.803 89.2638 155.355 87.7518 155.931 86.2638L167.019 54.2238C167.451 53.1198 168.219 52.2078 169.323 51.4878C170.427 50.7198 171.627 50.3358 172.923 50.3358H190.923ZM238.516 78.7038C238.516 76.9278 238.276 75.1998 237.796 73.5198C237.364 71.8398 236.62 70.3518 235.564 69.0558C234.556 67.7118 233.212 66.6318 231.532 65.8158C229.852 64.9998 227.812 64.5918 225.412 64.5918C221.188 64.5918 217.876 65.8158 215.476 68.2638C213.076 70.6638 211.492 74.1438 210.724 78.7038H238.516ZM210.436 91.6638C211.156 97.9038 213.052 102.44 216.124 105.272C219.196 108.056 223.156 109.448 228.004 109.448C230.596 109.448 232.828 109.136 234.7 108.512C236.572 107.888 238.228 107.192 239.668 106.424C241.156 105.656 242.5 104.96 243.7 104.336C244.948 103.712 246.244 103.4 247.588 103.4C249.364 103.4 250.708 104.048 251.62 105.344L258.1 113.336C255.796 115.976 253.3 118.136 250.612 119.816C247.972 121.448 245.236 122.744 242.404 123.704C239.62 124.616 236.812 125.24 233.98 125.576C231.196 125.96 228.532 126.152 225.988 126.152C220.756 126.152 215.836 125.312 211.228 123.632C206.668 121.904 202.66 119.36 199.204 116C195.796 112.64 193.084 108.464 191.068 103.472C189.1 98.4798 188.116 92.6718 188.116 86.0478C188.116 81.0558 188.956 76.3278 190.636 71.8638C192.364 67.3998 194.812 63.4878 197.98 60.1278C201.196 56.7678 205.06 54.1038 209.572 52.1357C214.132 50.1677 219.268 49.1837 224.98 49.1837C229.924 49.1837 234.436 49.9518 238.516 51.4878C242.644 53.0238 246.172 55.2558 249.1 58.1838C252.076 61.1118 254.38 64.7118 256.012 68.9838C257.692 73.2078 258.532 78.0078 258.532 83.3838C258.532 85.0638 258.46 86.4318 258.316 87.4878C258.172 88.5438 257.908 89.3838 257.524 90.0078C257.14 90.6318 256.612 91.0638 255.94 91.3038C255.316 91.5438 254.5 91.6638 253.492 91.6638H210.436ZM305.341 94.6158C300.877 94.8078 297.205 95.1918 294.325 95.7678C291.445 96.3438 289.165 97.0638 287.485 97.9278C285.805 98.7918 284.629 99.7758 283.957 100.88C283.333 101.984 283.021 103.184 283.021 104.48C283.021 107.024 283.717 108.824 285.109 109.88C286.501 110.888 288.541 111.392 291.229 111.392C294.109 111.392 296.629 110.888 298.789 109.88C300.949 108.872 303.133 107.24 305.341 104.984V94.6158ZM265.165 60.7038C269.677 56.7198 274.669 53.7678 280.141 51.8478C285.661 49.8798 291.565 48.8958 297.853 48.8958C302.365 48.8958 306.421 49.6398 310.021 51.1278C313.669 52.5678 316.741 54.6078 319.237 57.2478C321.781 59.8398 323.725 62.9358 325.069 66.5358C326.413 70.1358 327.085 74.0718 327.085 78.3438V125H316.861C314.749 125 313.141 124.712 312.037 124.136C310.981 123.56 310.093 122.36 309.373 120.536L307.789 116.432C305.917 118.016 304.117 119.408 302.389 120.608C300.661 121.808 298.861 122.84 296.989 123.704C295.165 124.52 293.197 125.12 291.085 125.504C289.021 125.936 286.717 126.152 284.173 126.152C280.765 126.152 277.669 125.72 274.885 124.856C272.101 123.944 269.725 122.624 267.757 120.896C265.837 119.168 264.349 117.032 263.293 114.488C262.237 111.896 261.709 108.92 261.709 105.56C261.709 102.872 262.381 100.16 263.725 97.4238C265.069 94.6398 267.397 92.1198 270.709 89.8638C274.021 87.5598 278.485 85.6398 284.101 84.1038C289.717 82.5678 296.797 81.7038 305.341 81.5118V78.3438C305.341 73.9758 304.429 70.8318 302.605 68.9118C300.829 66.9438 298.285 65.9598 294.973 65.9598C292.333 65.9598 290.173 66.2478 288.493 66.8238C286.813 67.3998 285.301 68.0478 283.957 68.7678C282.661 69.4878 281.389 70.1358 280.141 70.7118C278.893 71.2878 277.405 71.5758 275.677 71.5758C274.141 71.5758 272.845 71.1918 271.789 70.4238C270.733 69.6558 269.869 68.7438 269.197 67.6878L265.165 60.7038ZM359.353 61.8558C361.657 57.8238 364.297 54.6558 367.273 52.3518C370.297 50.0478 373.753 48.8958 377.641 48.8958C381.001 48.8958 383.737 49.6878 385.849 51.2718L384.409 67.6878C384.169 68.7438 383.761 69.4638 383.185 69.8478C382.657 70.2318 381.913 70.4238 380.953 70.4238C380.569 70.4238 380.065 70.3998 379.441 70.3518C378.817 70.3038 378.169 70.2558 377.497 70.2078C376.825 70.1118 376.129 70.0398 375.409 69.9918C374.737 69.8958 374.113 69.8478 373.537 69.8478C370.273 69.8478 367.657 70.7118 365.689 72.4398C363.769 74.1678 362.137 76.5678 360.793 79.6398V125H338.473V50.3358H351.721C352.825 50.3358 353.737 50.4318 354.457 50.6238C355.225 50.8158 355.849 51.1278 356.329 51.5597C356.857 51.9437 357.241 52.4718 357.481 53.1438C357.769 53.8158 358.009 54.6318 358.201 55.5918L359.353 61.8558ZM438.025 66.6798C437.449 67.5918 436.825 68.2398 436.153 68.6238C435.529 69.0078 434.713 69.1998 433.705 69.1998C432.649 69.1998 431.593 68.9838 430.537 68.5518C429.481 68.0718 428.329 67.5678 427.081 67.0398C425.881 66.5118 424.513 66.0318 422.977 65.5998C421.441 65.1198 419.689 64.8798 417.721 64.8798C414.889 64.8798 412.705 65.4318 411.169 66.5358C409.681 67.5918 408.937 69.0798 408.937 70.9998C408.937 72.3918 409.417 73.5438 410.377 74.4558C411.385 75.3678 412.705 76.1838 414.337 76.9038C415.969 77.5758 417.817 78.2238 419.881 78.8478C421.945 79.4718 424.057 80.1678 426.217 80.9358C428.377 81.7038 430.489 82.6158 432.553 83.6718C434.617 84.6798 436.465 85.9518 438.097 87.4878C439.729 88.9758 441.025 90.7998 441.985 92.9598C442.993 95.1198 443.497 97.7118 443.497 100.736C443.497 104.432 442.825 107.84 441.481 110.96C440.137 114.08 438.121 116.768 435.433 119.024C432.793 121.28 429.505 123.032 425.569 124.28C421.681 125.528 417.193 126.152 412.105 126.152C409.561 126.152 407.017 125.912 404.473 125.432C401.929 124.952 399.457 124.304 397.057 123.488C394.705 122.672 392.521 121.712 390.505 120.608C388.489 119.456 386.761 118.232 385.321 116.936L390.505 108.728C391.081 107.768 391.801 107.024 392.665 106.496C393.577 105.92 394.729 105.632 396.121 105.632C397.417 105.632 398.569 105.92 399.577 106.496C400.633 107.072 401.761 107.696 402.961 108.368C404.161 109.04 405.553 109.664 407.137 110.24C408.769 110.816 410.809 111.104 413.257 111.104C414.985 111.104 416.449 110.936 417.649 110.6C418.849 110.216 419.809 109.712 420.529 109.088C421.249 108.464 421.777 107.768 422.113 107C422.449 106.232 422.617 105.44 422.617 104.624C422.617 103.136 422.113 101.912 421.105 100.952C420.097 99.9918 418.777 99.1758 417.145 98.5038C415.513 97.7838 413.641 97.1358 411.529 96.5598C409.465 95.9358 407.353 95.2398 405.193 94.4718C403.033 93.7038 400.897 92.7918 398.785 91.7358C396.721 90.6318 394.873 89.2638 393.241 87.6318C391.609 85.9518 390.289 83.9118 389.281 81.5118C388.273 79.1118 387.769 76.2078 387.769 72.7998C387.769 69.6318 388.369 66.6318 389.569 63.7998C390.817 60.9198 392.665 58.3998 395.113 56.2398C397.561 54.0798 400.633 52.3758 404.329 51.1278C408.025 49.8318 412.345 49.1837 417.289 49.1837C419.977 49.1837 422.569 49.4237 425.065 49.9037C427.609 50.3838 429.985 51.0558 432.193 51.9197C434.401 52.7838 436.417 53.8158 438.241 55.0158C440.065 56.1678 441.673 57.4398 443.065 58.8318L438.025 66.6798Z" fill="#F6C969"/>
<path d="M6.336 48.0478C7.104 42.8158 8.568 38.2557 10.728 34.3678C12.936 30.4798 15.648 27.2398 18.864 24.6478C22.128 22.0558 25.848 20.1357 30.024 18.8877C34.2 17.5918 38.688 16.9438 43.488 16.9438C48.672 16.9438 53.28 17.6878 57.312 19.1758C61.344 20.6158 64.752 22.5838 67.536 25.0798C70.32 27.5758 72.432 30.4797 73.872 33.7917C75.312 37.0558 76.032 40.5118 76.032 44.1598C76.032 47.4718 75.696 50.3998 75.024 52.9438C74.352 55.4398 73.344 57.6238 72 59.4958C70.704 61.3198 69.072 62.8798 67.104 64.1758C65.184 65.4238 62.976 66.4798 60.48 67.3438C72.096 71.4238 77.904 79.3438 77.904 91.1038C77.904 96.6718 76.896 101.52 74.88 105.648C72.864 109.776 70.152 113.208 66.744 115.944C63.384 118.68 59.472 120.744 55.008 122.136C50.544 123.48 45.888 124.152 41.04 124.152C36.048 124.152 31.608 123.624 27.72 122.568C23.832 121.464 20.376 119.784 17.352 117.528C14.328 115.224 11.664 112.296 9.36 108.744C7.104 105.192 5.136 100.968 3.456 96.0718L13.392 92.0398C15.984 91.0318 18.384 90.7678 20.592 91.2478C22.8 91.7278 24.384 92.8318 25.344 94.5598C27.504 98.5438 29.784 101.448 32.184 103.272C34.632 105.048 37.488 105.936 40.752 105.936C43.248 105.936 45.408 105.528 47.232 104.712C49.104 103.848 50.64 102.768 51.84 101.472C53.088 100.128 54.024 98.6158 54.648 96.9358C55.272 95.2558 55.584 93.5518 55.584 91.8238C55.584 89.5678 55.416 87.5518 55.08 85.7758C54.792 83.9518 53.928 82.3918 52.488 81.0958C51.048 79.7998 48.864 78.8158 45.936 78.1438C43.056 77.4238 39.024 77.0638 33.84 77.0638V61.6558C38.208 61.6558 41.736 61.3198 44.424 60.6478C47.112 59.9758 49.176 59.0638 50.616 57.9118C52.104 56.7118 53.088 55.2718 53.568 53.5918C54.048 51.9118 54.288 50.0638 54.288 48.0478C54.288 43.9198 53.28 40.7517 51.264 38.5437C49.296 36.2878 46.272 35.1598 42.192 35.1598C38.88 35.1598 36.072 36.0478 33.768 37.8237C31.512 39.5518 29.952 41.7118 29.088 44.3038C28.08 46.9437 26.76 48.6957 25.128 49.5597C23.496 50.4237 21.168 50.6157 18.144 50.1357L6.336 48.0478ZM185.923 48.3358L146.035 142.368C145.363 143.856 144.547 144.936 143.587 145.608C142.627 146.328 141.091 146.688 138.979 146.688H122.275L136.675 116.448L106.867 48.3358H126.595C128.323 48.3358 129.643 48.7198 130.555 49.4878C131.515 50.2558 132.211 51.1678 132.643 52.2238L144.883 84.4078C146.035 87.3358 146.971 90.3358 147.691 93.4078C148.219 91.8718 148.747 90.3358 149.275 88.7998C149.803 87.2638 150.355 85.7518 150.931 84.2638L162.019 52.2238C162.451 51.1198 163.219 50.2078 164.323 49.4878C165.427 48.7198 166.627 48.3358 167.923 48.3358H185.923ZM233.516 76.7038C233.516 74.9278 233.276 73.1998 232.796 71.5198C232.364 69.8398 231.62 68.3518 230.564 67.0558C229.556 65.7118 228.212 64.6318 226.532 63.8158C224.852 62.9998 222.812 62.5918 220.412 62.5918C216.188 62.5918 212.876 63.8158 210.476 66.2638C208.076 68.6638 206.492 72.1438 205.724 76.7038H233.516ZM205.436 89.6638C206.156 95.9038 208.052 100.44 211.124 103.272C214.196 106.056 218.156 107.448 223.004 107.448C225.596 107.448 227.828 107.136 229.7 106.512C231.572 105.888 233.228 105.192 234.668 104.424C236.156 103.656 237.5 102.96 238.7 102.336C239.948 101.712 241.244 101.4 242.588 101.4C244.364 101.4 245.708 102.048 246.62 103.344L253.1 111.336C250.796 113.976 248.3 116.136 245.612 117.816C242.972 119.448 240.236 120.744 237.404 121.704C234.62 122.616 231.812 123.24 228.98 123.576C226.196 123.96 223.532 124.152 220.988 124.152C215.756 124.152 210.836 123.312 206.228 121.632C201.668 119.904 197.66 117.36 194.204 114C190.796 110.64 188.084 106.464 186.068 101.472C184.1 96.4798 183.116 90.6718 183.116 84.0478C183.116 79.0558 183.956 74.3278 185.636 69.8638C187.364 65.3998 189.812 61.4878 192.98 58.1278C196.196 54.7678 200.06 52.1038 204.572 50.1357C209.132 48.1677 214.268 47.1837 219.98 47.1837C224.924 47.1837 229.436 47.9518 233.516 49.4878C237.644 51.0238 241.172 53.2558 244.1 56.1838C247.076 59.1118 249.38 62.7118 251.012 66.9838C252.692 71.2078 253.532 76.0078 253.532 81.3838C253.532 83.0638 253.46 84.4318 253.316 85.4878C253.172 86.5438 252.908 87.3838 252.524 88.0078C252.14 88.6318 251.612 89.0638 250.94 89.3038C250.316 89.5438 249.5 89.6638 248.492 89.6638H205.436ZM300.341 92.6158C295.877 92.8078 292.205 93.1918 289.325 93.7678C286.445 94.3438 284.165 95.0638 282.485 95.9278C280.805 96.7918 279.629 97.7758 278.957 98.8798C278.333 99.9838 278.021 101.184 278.021 102.48C278.021 105.024 278.717 106.824 280.109 107.88C281.501 108.888 283.541 109.392 286.229 109.392C289.109 109.392 291.629 108.888 293.789 107.88C295.949 106.872 298.133 105.24 300.341 102.984V92.6158ZM260.165 58.7038C264.677 54.7198 269.669 51.7678 275.141 49.8478C280.661 47.8798 286.565 46.8958 292.853 46.8958C297.365 46.8958 301.421 47.6398 305.021 49.1278C308.669 50.5678 311.741 52.6078 314.237 55.2478C316.781 57.8398 318.725 60.9358 320.069 64.5358C321.413 68.1358 322.085 72.0718 322.085 76.3438V123H311.861C309.749 123 308.141 122.712 307.037 122.136C305.981 121.56 305.093 120.36 304.373 118.536L302.789 114.432C300.917 116.016 299.117 117.408 297.389 118.608C295.661 119.808 293.861 120.84 291.989 121.704C290.165 122.52 288.197 123.12 286.085 123.504C284.021 123.936 281.717 124.152 279.173 124.152C275.765 124.152 272.669 123.72 269.885 122.856C267.101 121.944 264.725 120.624 262.757 118.896C260.837 117.168 259.349 115.032 258.293 112.488C257.237 109.896 256.709 106.92 256.709 103.56C256.709 100.872 257.381 98.1598 258.725 95.4238C260.069 92.6398 262.397 90.1198 265.709 87.8638C269.021 85.5598 273.485 83.6398 279.101 82.1038C284.717 80.5678 291.797 79.7038 300.341 79.5118V76.3438C300.341 71.9758 299.429 68.8318 297.605 66.9118C295.829 64.9438 293.285 63.9598 289.973 63.9598C287.333 63.9598 285.173 64.2478 283.493 64.8238C281.813 65.3998 280.301 66.0478 278.957 66.7678C277.661 67.4878 276.389 68.1358 275.141 68.7118C273.893 69.2878 272.405 69.5758 270.677 69.5758C269.141 69.5758 267.845 69.1918 266.789 68.4238C265.733 67.6558 264.869 66.7438 264.197 65.6878L260.165 58.7038ZM354.353 59.8558C356.657 55.8238 359.297 52.6558 362.273 50.3518C365.297 48.0478 368.753 46.8958 372.641 46.8958C376.001 46.8958 378.737 47.6878 380.849 49.2718L379.409 65.6878C379.169 66.7438 378.761 67.4638 378.185 67.8478C377.657 68.2318 376.913 68.4238 375.953 68.4238C375.569 68.4238 375.065 68.3998 374.441 68.3518C373.817 68.3038 373.169 68.2558 372.497 68.2078C371.825 68.1118 371.129 68.0398 370.409 67.9918C369.737 67.8958 369.113 67.8478 368.537 67.8478C365.273 67.8478 362.657 68.7118 360.689 70.4398C358.769 72.1678 357.137 74.5678 355.793 77.6398V123H333.473V48.3358H346.721C347.825 48.3358 348.737 48.4318 349.457 48.6238C350.225 48.8158 350.849 49.1278 351.329 49.5597C351.857 49.9437 352.241 50.4718 352.481 51.1438C352.769 51.8158 353.009 52.6318 353.201 53.5918L354.353 59.8558ZM433.025 64.6798C432.449 65.5918 431.825 66.2398 431.153 66.6238C430.529 67.0078 429.713 67.1998 428.705 67.1998C427.649 67.1998 426.593 66.9838 425.537 66.5518C424.481 66.0718 423.329 65.5678 422.081 65.0398C420.881 64.5118 419.513 64.0318 417.977 63.5998C416.441 63.1198 414.689 62.8798 412.721 62.8798C409.889 62.8798 407.705 63.4318 406.169 64.5358C404.681 65.5918 403.937 67.0798 403.937 68.9998C403.937 70.3918 404.417 71.5438 405.377 72.4558C406.385 73.3678 407.705 74.1838 409.337 74.9038C410.969 75.5758 412.817 76.2238 414.881 76.8478C416.945 77.4718 419.057 78.1678 421.217 78.9358C423.377 79.7038 425.489 80.6158 427.553 81.6718C429.617 82.6798 431.465 83.9518 433.097 85.4878C434.729 86.9758 436.025 88.7998 436.985 90.9598C437.993 93.1198 438.497 95.7118 438.497 98.7358C438.497 102.432 437.825 105.84 436.481 108.96C435.137 112.08 433.121 114.768 430.433 117.024C427.793 119.28 424.505 121.032 420.569 122.28C416.681 123.528 412.193 124.152 407.105 124.152C404.561 124.152 402.017 123.912 399.473 123.432C396.929 122.952 394.457 122.304 392.057 121.488C389.705 120.672 387.521 119.712 385.505 118.608C383.489 117.456 381.761 116.232 380.321 114.936L385.505 106.728C386.081 105.768 386.801 105.024 387.665 104.496C388.577 103.92 389.729 103.632 391.121 103.632C392.417 103.632 393.569 103.92 394.577 104.496C395.633 105.072 396.761 105.696 397.961 106.368C399.161 107.04 400.553 107.664 402.137 108.24C403.769 108.816 405.809 109.104 408.257 109.104C409.985 109.104 411.449 108.936 412.649 108.6C413.849 108.216 414.809 107.712 415.529 107.088C416.249 106.464 416.777 105.768 417.113 105C417.449 104.232 417.617 103.44 417.617 102.624C417.617 101.136 417.113 99.9118 416.105 98.9518C415.097 97.9918 413.777 97.1758 412.145 96.5038C410.513 95.7838 408.641 95.1358 406.529 94.5598C404.465 93.9358 402.353 93.2398 400.193 92.4718C398.033 91.7038 395.897 90.7918 393.785 89.7358C391.721 88.6318 389.873 87.2638 388.241 85.6318C386.609 83.9518 385.289 81.9118 384.281 79.5118C383.273 77.1118 382.769 74.2078 382.769 70.7998C382.769 67.6318 383.369 64.6318 384.569 61.7998C385.817 58.9198 387.665 56.3998 390.113 54.2398C392.561 52.0798 395.633 50.3758 399.329 49.1278C403.025 47.8318 407.345 47.1837 412.289 47.1837C414.977 47.1837 417.569 47.4237 420.065 47.9037C422.609 48.3838 424.985 49.0558 427.193 49.9197C429.401 50.7838 431.417 51.8158 433.241 53.0158C435.065 54.1678 436.673 55.4398 438.065 56.8318L433.025 64.6798Z" fill="#F6C969"/>
<path d="M6.336 48.0478L5.64342 47.9461L5.54469 48.6187L6.21411 48.7371L6.336 48.0478ZM10.728 34.3678L10.1193 34.0221L10.1161 34.0278L10.728 34.3678ZM18.864 24.6478L18.4287 24.0996L18.4247 24.1027L18.864 24.6478ZM30.024 18.8877L30.2244 19.5585L30.2315 19.5563L30.024 18.8877ZM57.312 19.1758L57.0696 19.8325L57.0766 19.835L57.312 19.1758ZM67.536 25.0798L67.0687 25.601L67.0687 25.601L67.536 25.0798ZM73.872 33.7917L73.23 34.0709L73.2316 34.0743L73.872 33.7917ZM75.024 52.9438L75.6999 53.1257L75.7008 53.1225L75.024 52.9438ZM72 59.4958L71.4314 59.0875L71.4294 59.0903L72 59.4958ZM67.104 64.1758L67.4855 64.7627L67.489 64.7604L67.104 64.1758ZM60.48 67.3438L60.251 66.6823L58.354 67.3389L60.248 68.0042L60.48 67.3438ZM74.88 105.648L75.509 105.955L75.509 105.955L74.88 105.648ZM66.744 115.944L66.3058 115.398L66.302 115.401L66.744 115.944ZM55.008 122.136L55.2098 122.806L55.2164 122.804L55.008 122.136ZM27.72 122.568L27.5288 123.241L27.5365 123.243L27.72 122.568ZM17.352 117.528L16.9277 118.085L16.9334 118.089L17.352 117.528ZM9.36 108.744L8.76908 109.119L8.77273 109.125L9.36 108.744ZM3.456 96.0718L3.19279 95.4231L2.57885 95.6723L2.79389 96.2989L3.456 96.0718ZM13.392 92.0398L13.1383 91.3873L13.1288 91.3911L13.392 92.0398ZM20.592 91.2478L20.4433 91.9318L20.4433 91.9318L20.592 91.2478ZM25.344 94.5598L25.9594 94.2261L25.9559 94.2198L25.344 94.5598ZM32.184 103.272L31.7604 103.829L31.7666 103.834L31.7729 103.838L32.184 103.272ZM47.232 104.712L47.5179 105.351L47.5253 105.347L47.232 104.712ZM51.84 101.472L51.327 100.995L51.3264 100.996L51.84 101.472ZM54.648 96.9358L55.3042 97.1795L55.3042 97.1795L54.648 96.9358ZM55.08 85.7758L54.3886 85.8849L54.3902 85.8954L54.3922 85.9059L55.08 85.7758ZM52.488 81.0958L52.0197 81.6161L52.0197 81.6161L52.488 81.0958ZM45.936 78.1438L45.7662 78.823L45.7794 78.826L45.936 78.1438ZM33.84 77.0638H33.14V77.7638H33.84V77.0638ZM33.84 61.6558V60.9558H33.14V61.6558H33.84ZM50.616 57.9118L51.0533 58.4584L51.0554 58.4566L50.616 57.9118ZM51.264 38.5437L50.7365 39.0039L50.7417 39.0099L50.7471 39.0157L51.264 38.5437ZM33.768 37.8237L34.1937 38.3795L34.1954 38.3782L33.768 37.8237ZM29.088 44.3038L29.742 44.5534L29.7473 44.5394L29.7521 44.5251L29.088 44.3038ZM25.128 49.5597L24.8005 48.9411L24.8005 48.9411L25.128 49.5597ZM18.144 50.1357L18.0221 50.8252L18.0343 50.8271L18.144 50.1357ZM7.02858 48.1494C7.78657 42.9856 9.22792 38.5093 11.3399 34.7077L10.1161 34.0278C7.90808 38.0022 6.42143 42.6459 5.64342 47.9461L7.02858 48.1494ZM11.3367 34.7134C13.5049 30.8956 16.1612 27.7252 19.3033 25.1928L18.4247 24.1027C15.1348 26.7543 12.3671 30.0639 10.1193 34.0221L11.3367 34.7134ZM19.2993 25.1959C22.4904 22.6619 26.1299 20.7821 30.2244 19.5584L29.8236 18.2171C25.5662 19.4894 21.7656 21.4496 18.4287 24.0996L19.2993 25.1959ZM30.2315 19.5563C34.3341 18.2831 38.7515 17.6438 43.488 17.6438V16.2438C38.6245 16.2438 34.0659 16.9004 29.8165 18.2192L30.2315 19.5563ZM43.488 17.6438C48.6059 17.6438 53.1294 18.3783 57.0696 19.8325L57.5544 18.519C53.4306 16.9972 48.7381 16.2438 43.488 16.2438V17.6438ZM57.0766 19.835C61.0354 21.2488 64.3614 23.1737 67.0687 25.601L68.0033 24.5586C65.1426 21.9938 61.6526 19.9827 57.5474 18.5165L57.0766 19.835ZM67.0687 25.601C69.7805 28.0322 71.8316 30.8545 73.2301 34.0709L74.514 33.5126C73.0324 30.105 70.8595 27.1193 68.0033 24.5586L67.0687 25.601ZM73.2316 34.0743C74.6314 37.2472 75.332 40.6068 75.332 44.1598H76.732C76.732 40.4167 75.9926 36.8643 74.5124 33.5092L73.2316 34.0743ZM75.332 44.1598C75.332 47.4262 75.0004 50.2921 74.3472 52.765L75.7008 53.1225C76.3916 50.5074 76.732 47.5173 76.732 44.1598H75.332ZM74.3481 52.7618C73.6953 55.1863 72.7207 57.2917 71.4314 59.0875L72.5686 59.904C73.9673 57.9558 75.0087 55.6932 75.6999 53.1257L74.3481 52.7618ZM71.4294 59.0903C70.1863 60.8399 68.6185 62.3403 66.719 63.5911L67.489 64.7604C69.5255 63.4192 71.2218 61.7996 72.5706 59.9012L71.4294 59.0903ZM66.7225 63.5888C64.8568 64.8016 62.7014 65.8341 60.251 66.6823L60.709 68.0052C63.2506 67.1254 65.5113 66.0459 67.4855 64.7627L66.7225 63.5888ZM60.248 68.0042C65.9568 70.0093 70.1819 72.9374 72.9835 76.7577C75.7832 80.5754 77.204 85.3425 77.204 91.1038H78.604C78.604 85.105 77.1208 80.0321 74.1125 75.9298C71.1061 71.8301 66.6192 68.7582 60.712 66.6833L60.248 68.0042ZM77.204 91.1038C77.204 96.5875 76.2114 101.326 74.251 105.341L75.509 105.955C77.5806 101.713 78.604 96.756 78.604 91.1038H77.204ZM74.251 105.341C72.2779 109.381 69.6293 112.73 66.3058 115.398L67.1822 116.49C70.6747 113.686 73.4501 110.171 75.509 105.955L74.251 105.341ZM66.302 115.401C63.0165 118.076 59.1853 120.1 54.7996 121.467L55.2164 122.804C59.7588 121.388 63.7515 119.283 67.186 116.487L66.302 115.401ZM54.8062 121.465C50.4102 122.789 45.8224 123.452 41.04 123.452V124.852C45.9536 124.852 50.6778 124.171 55.2098 122.806L54.8062 121.465ZM41.04 123.452C36.0959 123.452 31.7194 122.929 27.9035 121.892L27.5365 123.243C31.4966 124.319 36.0002 124.852 41.04 124.852V123.452ZM27.9112 121.894C24.0993 120.812 20.7215 119.168 17.7706 116.967L16.9334 118.089C20.0305 120.399 23.5647 122.116 27.5288 123.241L27.9112 121.894ZM17.7762 116.971C14.8231 114.721 12.2124 111.855 9.94727 108.363L8.77273 109.125C11.1156 112.737 13.8329 115.727 16.9278 118.085L17.7762 116.971ZM9.95089 108.368C7.73019 104.872 5.78418 100.7 4.11811 95.8446L2.79389 96.2989C4.48782 101.236 6.47781 105.511 8.76911 109.119L9.95089 108.368ZM3.71921 96.7204L13.6552 92.6884L13.1288 91.3911L3.19279 95.4231L3.71921 96.7204ZM13.6457 92.6922C16.1393 91.7224 18.3978 91.4871 20.4433 91.9318L20.7407 90.5637C18.3702 90.0484 15.8287 90.3411 13.1383 91.3874L13.6457 92.6922ZM20.4433 91.9318C22.4858 92.3758 23.8844 93.3738 24.7321 94.8997L25.9559 94.2198C24.8836 92.2897 23.1142 91.0797 20.7407 90.5637L20.4433 91.9318ZM24.7286 94.8934C26.9143 98.9248 29.2518 101.922 31.7604 103.829L32.6076 102.714C30.3162 100.973 28.0937 98.1627 25.9594 94.2261L24.7286 94.8934ZM31.7729 103.838C34.3501 105.708 37.3527 106.636 40.752 106.636V105.236C37.6233 105.236 34.9139 104.387 32.5951 102.705L31.7729 103.838ZM40.752 106.636C43.3227 106.636 45.5845 106.216 47.5179 105.351L46.9461 104.073C45.2315 104.84 43.1733 105.236 40.752 105.236V106.636ZM47.5253 105.347C49.4668 104.451 51.0819 103.321 52.3536 101.947L51.3264 100.996C50.1981 102.215 48.7412 103.244 46.9387 104.076L47.5253 105.347ZM52.353 101.948C53.662 100.538 54.6474 98.9477 55.3042 97.1795L53.9918 96.692C53.4006 98.2838 52.514 99.7172 51.327 100.995L52.353 101.948ZM55.3042 97.1795C55.9561 95.4244 56.284 93.638 56.284 91.8238H54.884C54.884 93.4655 54.5879 95.0871 53.9918 96.692L55.3042 97.1795ZM56.284 91.8238C56.284 89.5343 56.1136 87.4735 55.7678 85.6456L54.3922 85.9059C54.7184 87.63 54.884 89.6012 54.884 91.8238H56.284ZM55.7714 85.6666C55.4571 83.6758 54.5093 81.9731 52.9563 80.5754L52.0197 81.6161C53.3467 82.8104 54.1269 84.2277 54.3886 85.8849L55.7714 85.6666ZM52.9563 80.5754C51.3921 79.1677 49.0784 78.1468 46.0926 77.4615L45.7794 78.826C48.6496 79.4847 50.7039 80.4318 52.0197 81.6161L52.9563 80.5754ZM46.1058 77.4647C43.1439 76.7242 39.0455 76.3638 33.84 76.3638V77.7638C39.0025 77.7638 42.9681 78.1233 45.7662 78.8229L46.1058 77.4647ZM34.54 77.0638V61.6558H33.14V77.0638H34.54ZM33.84 62.3558C38.2364 62.3558 41.8279 62.0183 44.5938 61.3269L44.2542 59.9687C41.6441 60.6212 38.1796 60.9558 33.84 60.9558V62.3558ZM44.5938 61.3269C47.3348 60.6416 49.5053 59.6968 51.0533 58.4584L50.1787 57.3651C48.8467 58.4308 46.8892 59.3099 44.2542 59.9687L44.5938 61.3269ZM51.0554 58.4566C52.6447 57.175 53.7177 55.616 54.2411 53.7841L52.8949 53.3994C52.4583 54.9275 51.5633 56.2485 50.1766 57.3669L51.0554 58.4566ZM54.2411 53.7841C54.7414 52.0328 54.988 50.119 54.988 48.0478H53.588C53.588 50.0085 53.3546 51.7907 52.8949 53.3994L54.2411 53.7841ZM54.988 48.0478C54.988 43.812 53.9531 40.4508 51.7809 38.0718L50.7471 39.0157C52.6069 41.0527 53.588 44.0275 53.588 48.0478H54.988ZM51.7915 38.0836C49.6472 35.6255 46.3973 34.4598 42.192 34.4598V35.8598C46.1467 35.8598 48.9448 36.95 50.7365 39.0039L51.7915 38.0836ZM42.192 34.4598C38.7478 34.4598 35.7838 35.3861 33.3406 37.2693L34.1954 38.3782C36.3602 36.7094 39.0122 35.8598 42.192 35.8598V34.4598ZM33.3423 37.268C30.98 39.0775 29.334 41.3521 28.4239 44.0824L29.7521 44.5251C30.57 42.0714 32.0441 40.026 34.1937 38.3795L33.3423 37.268ZM28.434 44.0541C27.4557 46.6164 26.2206 48.1893 24.8005 48.9411L25.4555 50.1784C27.2994 49.2022 28.7043 47.2711 29.742 44.5534L28.434 44.0541ZM24.8005 48.9411C23.3653 49.7009 21.2179 49.9149 18.2537 49.4444L18.0343 50.8271C21.1181 51.3166 23.6267 51.1466 25.4555 50.1784L24.8005 48.9411ZM18.2659 49.4464L6.45789 47.3584L6.21411 48.7371L18.0221 50.8251L18.2659 49.4464ZM185.923 48.3358L186.568 48.6091L186.98 47.6358H185.923V48.3358ZM146.035 142.368L146.673 142.656L146.676 142.649L146.68 142.641L146.035 142.368ZM143.587 145.608L143.186 145.034L143.176 145.041L143.167 145.048L143.587 145.608ZM122.275 146.688L121.643 146.387L121.166 147.388H122.275V146.688ZM136.675 116.448L137.307 116.749L137.445 116.46L137.316 116.167L136.675 116.448ZM106.867 48.3358V47.6358H105.797L106.226 48.6164L106.867 48.3358ZM130.555 49.4878L130.104 50.0232L130.111 50.0289L130.118 50.0344L130.555 49.4878ZM132.643 52.2238L133.297 51.9749L133.294 51.9668L133.291 51.9587L132.643 52.2238ZM144.883 84.4078L144.229 84.6566L144.232 84.664L144.883 84.4078ZM147.691 93.4078L147.01 93.5675L147.564 95.9317L148.353 93.6353L147.691 93.4078ZM150.931 84.2638L151.584 84.5164L151.588 84.5046L151.593 84.4927L150.931 84.2638ZM162.019 52.2238L161.367 51.9687L161.362 51.9817L161.358 51.9948L162.019 52.2238ZM164.323 49.4878L164.706 50.0741L164.714 50.0684L164.723 50.0624L164.323 49.4878ZM185.279 48.0624L145.391 142.094L146.68 142.641L186.568 48.6091L185.279 48.0624ZM145.397 142.08C144.758 143.496 144.01 144.457 143.186 145.034L143.989 146.181C145.084 145.414 145.969 144.215 146.673 142.656L145.397 142.08ZM143.167 145.048C142.39 145.63 141.042 145.988 138.979 145.988V147.388C141.14 147.388 142.864 147.025 144.007 146.168L143.167 145.048ZM138.979 145.988H122.275V147.388H138.979V145.988ZM122.907 146.989L137.307 116.749L136.043 116.147L121.643 146.387L122.907 146.989ZM137.316 116.167L107.508 48.0551L106.226 48.6164L136.034 116.728L137.316 116.167ZM106.867 49.0358H126.595V47.6358H106.867V49.0358ZM126.595 49.0358C128.231 49.0358 129.365 49.4003 130.104 50.0232L131.006 48.9523C129.922 48.0392 128.416 47.6358 126.595 47.6358V49.0358ZM130.118 50.0344C130.992 50.7339 131.612 51.5515 131.995 52.4888L133.291 51.9587C132.81 50.784 132.038 49.7776 130.992 48.9411L130.118 50.0344ZM131.989 52.4726L144.229 84.6566L145.537 84.1589L133.297 51.9749L131.989 52.4726ZM144.232 84.664C145.371 87.5605 146.297 90.5283 147.01 93.5675L148.373 93.248C147.645 90.1432 146.699 87.111 145.535 84.1515L144.232 84.664ZM148.353 93.6353C148.881 92.0993 149.409 90.5633 149.937 89.0273L148.613 88.5722C148.085 90.1082 147.557 91.6442 147.029 93.1802L148.353 93.6353ZM149.937 89.0273C150.462 87.4996 151.011 85.996 151.584 84.5164L150.278 84.0111C149.699 85.5075 149.144 87.0279 148.613 88.5722L149.937 89.0273ZM151.593 84.4927L162.681 52.4527L161.358 51.9948L150.27 84.0348L151.593 84.4927ZM162.671 52.4788C163.044 51.5257 163.709 50.7237 164.706 50.0741L163.941 48.9014C162.729 49.6918 161.858 50.7138 161.367 51.9687L162.671 52.4788ZM164.723 50.0624C165.714 49.3727 166.776 49.0358 167.923 49.0358V47.6358C166.479 47.6358 165.14 48.0668 163.923 48.9131L164.723 50.0624ZM167.923 49.0358H185.923V47.6358H167.923V49.0358ZM233.516 76.7038V77.4038H234.216V76.7038H233.516ZM232.796 71.5198L232.118 71.6941L232.121 71.7031L232.123 71.7121L232.796 71.5198ZM230.564 67.0558L230.004 67.4758L230.013 67.487L230.022 67.4979L230.564 67.0558ZM226.532 63.8158L226.226 64.4454L226.226 64.4454L226.532 63.8158ZM210.476 66.2638L210.971 66.7588L210.976 66.7538L210.476 66.2638ZM205.724 76.7038L205.034 76.5875L204.896 77.4038H205.724V76.7038ZM205.436 89.6638V88.9638H204.651L204.741 89.744L205.436 89.6638ZM211.124 103.272L210.65 103.786L210.654 103.79L211.124 103.272ZM229.7 106.512L229.479 105.848L229.479 105.848L229.7 106.512ZM234.668 104.424L234.347 103.802L234.339 103.806L234.668 104.424ZM238.7 102.336L238.387 101.71L238.377 101.715L238.7 102.336ZM246.62 103.344L246.048 103.747L246.062 103.766L246.077 103.785L246.62 103.344ZM253.1 111.336L253.628 111.796L254.015 111.352L253.644 110.895L253.1 111.336ZM245.612 117.816L245.98 118.411L245.983 118.409L245.612 117.816ZM237.404 121.704L237.622 122.369L237.629 122.367L237.404 121.704ZM228.98 123.576L228.898 122.881L228.885 122.882L228.98 123.576ZM206.228 121.632L205.98 122.286L205.988 122.289L206.228 121.632ZM194.204 114L193.713 114.498L193.716 114.502L194.204 114ZM186.068 101.472L185.417 101.728L185.419 101.734L186.068 101.472ZM185.636 69.8638L184.983 69.611L184.981 69.6172L185.636 69.8638ZM192.98 58.1278L192.475 57.6437L192.471 57.6475L192.98 58.1278ZM204.572 50.1357L204.295 49.493L204.292 49.4941L204.572 50.1357ZM233.516 49.4878L233.27 50.1429L233.272 50.1438L233.516 49.4878ZM244.1 56.1838L243.605 56.6787L243.609 56.6827L244.1 56.1838ZM251.012 66.9838L250.358 67.2336L250.362 67.2425L251.012 66.9838ZM253.316 85.4878L254.01 85.5823L254.01 85.5823L253.316 85.4878ZM252.524 88.0078L251.928 87.6409L251.928 87.6409L252.524 88.0078ZM250.94 89.3038L250.705 88.6445L250.697 88.6474L250.689 88.6504L250.94 89.3038ZM234.216 76.7038C234.216 74.8638 233.967 73.071 233.469 71.3274L232.123 71.7121C232.585 73.3285 232.816 74.9917 232.816 76.7038H234.216ZM233.474 71.3454C233.018 69.5712 232.229 67.991 231.107 66.6136L230.022 67.4979C231.011 68.7125 231.711 70.1083 232.118 71.6941L233.474 71.3454ZM231.124 66.6358C230.042 65.1931 228.607 64.0452 226.838 63.1861L226.226 64.4454C227.818 65.2183 229.07 66.2304 230.004 67.4758L231.124 66.6358ZM226.838 63.1861C225.04 62.3126 222.889 61.8918 220.412 61.8918V63.2918C222.735 63.2918 224.665 63.687 226.226 64.4454L226.838 63.1861ZM220.412 61.8918C216.047 61.8918 212.537 63.1615 209.976 65.7737L210.976 66.7538C213.215 64.47 216.33 63.2918 220.412 63.2918V61.8918ZM209.981 65.7688C207.447 68.303 205.818 71.935 205.034 76.5875L206.415 76.82C207.167 72.3525 208.705 69.0245 210.971 66.7587L209.981 65.7688ZM205.724 77.4038H233.516V76.0038H205.724V77.4038ZM204.741 89.744C205.471 96.0695 207.405 100.796 210.65 103.786L211.599 102.757C208.699 100.084 206.842 95.738 206.132 89.5835L204.741 89.744ZM210.654 103.79C213.876 106.711 218.014 108.148 223.004 108.148V106.748C218.299 106.748 214.516 105.401 211.594 102.753L210.654 103.79ZM223.004 108.148C225.649 108.148 227.96 107.83 229.922 107.176L229.479 105.848C227.697 106.442 225.543 106.748 223.004 106.748V108.148ZM229.922 107.176C231.823 106.542 233.517 105.831 234.998 105.041L234.339 103.806C232.94 104.552 231.321 105.234 229.479 105.848L229.922 107.176ZM234.989 105.046C236.478 104.278 237.822 103.581 239.023 102.957L238.377 101.715C237.178 102.338 235.835 103.034 234.347 103.802L234.989 105.046ZM239.013 102.962C240.168 102.385 241.357 102.1 242.588 102.1V100.7C241.131 100.7 239.729 101.039 238.387 101.71L239.013 102.962ZM242.588 102.1C244.168 102.1 245.284 102.662 246.048 103.747L247.193 102.941C246.132 101.434 244.56 100.7 242.588 100.7V102.1ZM246.077 103.785L252.557 111.777L253.644 110.895L247.164 102.903L246.077 103.785ZM252.573 110.875C250.309 113.469 247.865 115.582 245.241 117.222L245.983 118.409C248.735 116.689 251.283 114.483 253.628 111.796L252.573 110.875ZM245.244 117.22C242.648 118.826 239.959 120.098 237.18 121.041L237.629 122.367C240.513 121.389 243.297 120.07 245.98 118.411L245.244 117.22ZM237.186 121.039C234.445 121.937 231.683 122.55 228.898 122.881L229.063 124.271C231.942 123.929 234.795 123.295 237.622 122.369L237.186 121.039ZM228.885 122.882C226.129 123.262 223.497 123.452 220.988 123.452V124.852C223.567 124.852 226.263 124.657 229.076 124.269L228.885 122.882ZM220.988 123.452C215.833 123.452 210.994 122.624 206.468 120.974L205.988 122.289C210.678 123.999 215.68 124.852 220.988 124.852V123.452ZM206.476 120.977C202.005 119.283 198.079 116.79 194.692 113.498L193.716 114.502C197.242 117.929 201.332 120.525 205.98 122.286L206.476 120.977ZM194.696 113.501C191.364 110.216 188.702 106.124 186.717 101.21L185.419 101.734C187.467 106.804 190.229 111.063 193.713 114.498L194.696 113.501ZM186.719 101.215C184.79 96.3215 183.816 90.6038 183.816 84.0478H182.416C182.416 90.7397 183.41 96.638 185.417 101.728L186.719 101.215ZM183.816 84.0478C183.816 79.136 184.642 74.4919 186.291 70.1103L184.981 69.6172C183.27 74.1637 182.416 78.9755 182.416 84.0478H183.816ZM186.289 70.1164C187.986 65.7337 190.386 61.8997 193.49 58.608L192.471 57.6475C189.239 61.0758 186.743 65.0658 184.983 69.6111L186.289 70.1164ZM193.486 58.6118C196.634 55.3226 200.42 52.7105 204.852 50.7774L204.292 49.4941C199.7 51.497 195.758 54.2129 192.475 57.6437L193.486 58.6118ZM204.85 50.7784C209.31 48.8535 214.349 47.8837 219.98 47.8837V46.4837C214.187 46.4837 208.955 47.482 204.295 49.4931L204.85 50.7784ZM219.98 47.8837C224.851 47.8837 229.278 48.6402 233.27 50.1429L233.763 48.8326C229.594 47.2633 224.997 46.4837 219.98 46.4837V47.8837ZM233.272 50.1438C237.312 51.647 240.753 53.8263 243.605 56.6787L244.595 55.6888C241.592 52.6852 237.976 50.4005 233.76 48.8317L233.272 50.1438ZM243.609 56.6827C246.507 59.5338 248.759 63.0463 250.358 67.2336L251.666 66.7339C250.002 62.3772 247.645 58.6897 244.591 55.6848L243.609 56.6827ZM250.362 67.2425C252.004 71.3706 252.832 76.0805 252.832 81.3838H254.232C254.232 75.935 253.381 71.0449 251.663 66.7251L250.362 67.2425ZM252.832 81.3838C252.832 83.0479 252.761 84.381 252.623 85.3932L254.01 85.5823C254.16 84.4825 254.232 83.0796 254.232 81.3838H252.832ZM252.623 85.3932C252.486 86.393 252.243 87.1287 251.928 87.6409L253.12 88.3746C253.573 87.6388 253.858 86.6945 254.01 85.5823L252.623 85.3932ZM251.928 87.6409C251.625 88.1332 251.223 88.4596 250.705 88.6445L251.176 89.963C252.002 89.6679 252.655 89.1303 253.12 88.3746L251.928 87.6409ZM250.689 88.6504C250.175 88.8481 249.454 88.9638 248.492 88.9638V90.3638C249.547 90.3638 250.457 90.2394 251.192 89.9571L250.689 88.6504ZM248.492 88.9638H205.436V90.3638H248.492V88.9638ZM300.341 92.6158H301.041V91.885L300.311 91.9164L300.341 92.6158ZM289.325 93.7678L289.188 93.0813L289.188 93.0813L289.325 93.7678ZM278.957 98.8798L278.359 98.5158L278.353 98.5255L278.348 98.5353L278.957 98.8798ZM280.109 107.88L279.686 108.437L279.692 108.442L279.699 108.447L280.109 107.88ZM300.341 102.984L300.842 103.473L301.041 103.269V102.984H300.341ZM260.165 58.7038L259.702 58.179L259.273 58.5579L259.559 59.0537L260.165 58.7038ZM275.141 49.8478L275.373 50.5083L275.376 50.5071L275.141 49.8478ZM305.021 49.1278L304.754 49.7748L304.764 49.7789L305.021 49.1278ZM314.237 55.2478L313.729 55.7287L313.738 55.7381L314.237 55.2478ZM322.085 123V123.7H322.785V123H322.085ZM307.037 122.136L306.702 122.75L306.713 122.756L307.037 122.136ZM304.373 118.536L303.72 118.788L303.722 118.793L304.373 118.536ZM302.789 114.432L303.442 114.18L303.088 113.262L302.337 113.897L302.789 114.432ZM297.389 118.608L296.99 118.033L296.99 118.033L297.389 118.608ZM291.989 121.704L292.275 122.343L292.283 122.339L291.989 121.704ZM286.085 123.504L285.96 122.815L285.951 122.817L285.942 122.819L286.085 123.504ZM269.885 122.856L269.667 123.521L269.678 123.524L269.885 122.856ZM262.757 118.896L262.289 119.416L262.295 119.422L262.757 118.896ZM258.293 112.488L257.645 112.752L257.647 112.756L258.293 112.488ZM258.725 95.4238L259.354 95.7324L259.356 95.7281L258.725 95.4238ZM265.709 87.8638L266.103 88.4423L266.109 88.4384L265.709 87.8638ZM279.101 82.1038L279.286 82.779L279.286 82.779L279.101 82.1038ZM300.341 79.5118L300.357 80.2116L301.041 80.1962V79.5118H300.341ZM297.605 66.9118L297.086 67.3807L297.092 67.3874L297.098 67.3939L297.605 66.9118ZM283.493 64.8238L283.72 65.4859L283.72 65.4859L283.493 64.8238ZM278.957 66.7678L278.627 66.1506L278.617 66.1558L278.957 66.7678ZM275.141 68.7118L275.435 69.3473L275.435 69.3473L275.141 68.7118ZM266.789 68.4238L266.378 68.9899L266.378 68.9899L266.789 68.4238ZM264.197 65.6878L263.591 66.0377L263.599 66.0508L263.607 66.0636L264.197 65.6878ZM300.311 91.9164C295.828 92.1092 292.116 92.4956 289.188 93.0813L289.463 94.4542C292.294 93.8879 295.927 93.5063 300.371 93.3151L300.311 91.9164ZM289.188 93.0813C286.275 93.6639 283.925 94.3999 282.165 95.3053L282.805 96.5503C284.405 95.7276 286.615 95.0236 289.463 94.4542L289.188 93.0813ZM282.165 95.3053C280.42 96.2026 279.122 97.2621 278.359 98.5158L279.555 99.2437C280.136 98.2894 281.19 97.3809 282.805 96.5503L282.165 95.3053ZM278.348 98.5353C277.663 99.7468 277.321 101.066 277.321 102.48H278.721C278.721 101.302 279.003 100.221 279.567 99.2242L278.348 98.5353ZM277.321 102.48C277.321 105.138 278.051 107.197 279.686 108.437L280.532 107.322C279.384 106.451 278.721 104.909 278.721 102.48H277.321ZM279.699 108.447C281.26 109.578 283.471 110.092 286.229 110.092V108.692C283.611 108.692 281.742 108.198 280.52 107.313L279.699 108.447ZM286.229 110.092C289.191 110.092 291.815 109.573 294.085 108.514L293.493 107.245C291.443 108.202 289.028 108.692 286.229 108.692V110.092ZM294.085 108.514C296.342 107.461 298.593 105.771 300.842 103.473L299.841 102.494C297.674 104.708 295.557 106.282 293.493 107.245L294.085 108.514ZM301.041 102.984V92.6158H299.641V102.984H301.041ZM260.629 59.2285C265.075 55.3019 269.989 52.3972 275.373 50.5083L274.909 49.1872C269.349 51.1383 264.279 54.1376 259.702 58.179L260.629 59.2285ZM275.376 50.5071C280.816 48.5679 286.639 47.5958 292.853 47.5958V46.1958C286.491 46.1958 280.507 47.1916 274.906 49.1884L275.376 50.5071ZM292.853 47.5958C297.288 47.5958 301.251 48.3268 304.754 49.7747L305.289 48.4808C301.592 46.9527 297.443 46.1958 292.853 46.1958V47.5958ZM304.764 49.7789C308.325 51.1843 311.308 53.1689 313.729 55.7287L314.746 54.7668C312.174 52.0466 309.014 49.9512 305.278 48.4766L304.764 49.7789ZM313.738 55.7381C316.209 58.2561 318.102 61.267 319.413 64.7806L320.725 64.2909C319.349 60.6045 317.353 57.4234 314.737 54.7574L313.738 55.7381ZM319.413 64.7806C320.725 68.294 321.385 72.146 321.385 76.3438H322.785C322.785 71.9975 322.101 67.9775 320.725 64.2909L319.413 64.7806ZM321.385 76.3438V123H322.785V76.3438H321.385ZM322.085 122.3H311.861V123.7H322.085V122.3ZM311.861 122.3C309.793 122.3 308.318 122.015 307.361 121.515L306.713 122.756C307.964 123.409 309.705 123.7 311.861 123.7V122.3ZM307.372 121.521C306.527 121.06 305.719 120.04 305.024 118.279L303.722 118.793C304.467 120.68 305.436 122.06 306.702 122.75L307.372 121.521ZM305.026 118.284L303.442 114.18L302.136 114.684L303.72 118.788L305.026 118.284ZM302.337 113.897C300.479 115.469 298.697 116.847 296.99 118.033L297.789 119.183C299.537 117.968 301.355 116.562 303.241 114.966L302.337 113.897ZM296.99 118.033C295.295 119.21 293.53 120.222 291.696 121.068L292.283 122.339C294.192 121.458 296.028 120.405 297.789 119.183L296.99 118.033ZM291.703 121.065C289.934 121.856 288.021 122.44 285.96 122.815L286.21 124.192C288.374 123.799 290.396 123.183 292.275 122.343L291.703 121.065ZM285.942 122.819C283.933 123.239 281.679 123.452 279.173 123.452V124.852C281.756 124.852 284.109 124.633 286.229 124.189L285.942 122.819ZM279.173 123.452C275.824 123.452 272.799 123.027 270.093 122.187L269.678 123.524C272.539 124.412 275.706 124.852 279.173 124.852V123.452ZM270.103 122.191C267.398 121.304 265.108 120.028 263.219 118.37L262.295 119.422C264.342 121.219 266.804 122.583 269.667 123.521L270.103 122.191ZM263.226 118.375C261.388 116.722 259.959 114.674 258.94 112.219L257.647 112.756C258.74 115.39 260.286 117.614 262.289 119.416L263.226 118.375ZM258.942 112.224C257.926 109.731 257.409 106.847 257.409 103.56H256.009C256.009 106.993 256.549 110.061 257.645 112.752L258.942 112.224ZM257.409 103.56C257.409 100.992 258.05 98.3853 259.354 95.7324L258.097 95.1151C256.712 97.9342 256.009 100.751 256.009 103.56H257.409ZM259.356 95.7281C260.633 93.0827 262.863 90.6492 266.103 88.4423L265.315 87.2852C261.931 89.5903 259.506 92.1968 258.095 95.1194L259.356 95.7281ZM266.109 88.4384C269.333 86.1953 273.716 84.3024 279.286 82.779L278.917 81.4286C273.255 82.9771 268.709 84.9243 265.31 87.2891L266.109 88.4384ZM279.286 82.779C284.828 81.2633 291.846 80.4028 300.357 80.2116L300.326 78.8119C291.748 79.0047 284.607 79.8723 278.917 81.4286L279.286 82.779ZM301.041 79.5118V76.3438H299.641V79.5118H301.041ZM301.041 76.3438C301.041 71.9062 300.12 68.542 298.113 66.4296L297.098 67.3939C298.739 69.1215 299.641 72.0453 299.641 76.3438H301.041ZM298.125 66.4428C296.184 64.2924 293.43 63.2598 289.973 63.2598V64.6598C293.14 64.6598 295.474 65.5951 297.086 67.3807L298.125 66.4428ZM289.973 63.2598C287.29 63.2598 285.046 63.5515 283.266 64.1616L283.72 65.4859C285.301 64.944 287.377 64.6598 289.973 64.6598V63.2598ZM283.266 64.1616C281.556 64.7479 280.009 65.4103 278.627 66.1507L279.288 67.3848C280.594 66.6852 282.07 66.0516 283.72 65.4859L283.266 64.1616ZM278.617 66.1558C277.335 66.868 276.079 67.508 274.848 68.0762L275.435 69.3473C276.7 68.7635 277.987 68.1075 279.297 67.3797L278.617 66.1558ZM274.848 68.0762C273.712 68.6003 272.329 68.8758 270.677 68.8758V70.2758C272.481 70.2758 274.074 69.9752 275.435 69.3473L274.848 68.0762ZM270.677 68.8758C269.262 68.8758 268.117 68.524 267.201 67.8576L266.378 68.9899C267.573 69.8595 269.02 70.2758 270.677 70.2758V68.8758ZM267.201 67.8576C266.213 67.139 265.411 66.2907 264.788 65.3119L263.607 66.0636C264.328 67.1968 265.254 68.1725 266.378 68.9899L267.201 67.8576ZM264.803 65.3378L260.771 58.3538L259.559 59.0537L263.591 66.0377L264.803 65.3378ZM354.353 59.8558L353.664 59.9824L354.01 61.8654L354.96 60.2031L354.353 59.8558ZM362.273 50.3518L361.848 49.7949L361.844 49.7982L362.273 50.3518ZM380.849 49.2718L381.546 49.3329L381.58 48.9452L381.269 48.7118L380.849 49.2718ZM379.409 65.6878L380.091 65.8429L380.102 65.7964L380.106 65.7489L379.409 65.6878ZM378.185 67.8478L377.796 67.2653L377.784 67.2732L377.773 67.2816L378.185 67.8478ZM374.441 68.3518L374.494 67.6538L374.494 67.6538L374.441 68.3518ZM372.497 68.2078L372.398 68.9007L372.422 68.9042L372.447 68.906L372.497 68.2078ZM370.409 67.9918L370.31 68.6847L370.336 68.6884L370.362 68.6902L370.409 67.9918ZM360.689 70.4398L360.227 69.9137L360.22 69.9194L360.689 70.4398ZM355.793 77.6398L355.151 77.3592L355.093 77.4933V77.6398H355.793ZM355.793 123V123.7H356.493V123H355.793ZM333.473 123H332.773V123.7H333.473V123ZM333.473 48.3358V47.6358H332.773V48.3358H333.473ZM349.457 48.6238L349.276 49.3002L349.287 49.3029L349.457 48.6238ZM351.329 49.5597L350.86 50.0801L350.887 50.1044L350.917 50.1259L351.329 49.5597ZM352.481 51.1438L351.821 51.3792L351.829 51.3996L351.837 51.4195L352.481 51.1438ZM353.201 53.5918L353.889 53.4651L353.887 53.4545L353.201 53.5918ZM354.96 60.2031C357.229 56.2328 359.813 53.1415 362.701 50.9053L361.844 49.7982C358.78 52.17 356.084 55.4147 353.745 59.5085L354.96 60.2031ZM362.697 50.9086C365.596 48.6997 368.902 47.5958 372.641 47.5958V46.1958C368.603 46.1958 364.997 47.3958 361.848 49.7949L362.697 50.9086ZM372.641 47.5958C375.891 47.5958 378.467 48.3608 380.429 49.8318L381.269 48.7118C379.006 47.0147 376.11 46.1958 372.641 46.1958V47.5958ZM380.151 49.2106L378.711 65.6266L380.106 65.7489L381.546 49.3329L380.151 49.2106ZM378.726 65.5326C378.504 66.5089 378.158 67.0242 377.796 67.2653L378.573 68.4302C379.363 67.9033 379.833 66.9786 380.091 65.8429L378.726 65.5326ZM377.773 67.2816C377.409 67.5463 376.831 67.7238 375.953 67.7238V69.1238C376.994 69.1238 377.904 68.9172 378.596 68.4139L377.773 67.2816ZM375.953 67.7238C375.594 67.7238 375.11 67.7012 374.494 67.6538L374.387 69.0497C375.019 69.0983 375.543 69.1238 375.953 69.1238V67.7238ZM374.494 67.6538C373.869 67.6057 373.22 67.5576 372.546 67.5095L372.447 68.906C373.117 68.9539 373.764 69.0018 374.387 69.0497L374.494 67.6538ZM372.596 67.5148C371.905 67.4162 371.192 67.3424 370.455 67.2933L370.362 68.6902C371.065 68.7371 371.744 68.8074 372.398 68.9007L372.596 67.5148ZM370.508 67.2988C369.808 67.1989 369.151 67.1478 368.537 67.1478V68.5478C369.074 68.5478 369.665 68.5926 370.31 68.6847L370.508 67.2988ZM368.537 67.1478C365.146 67.1478 362.352 68.0479 360.227 69.9137L361.15 70.9658C362.961 69.3756 365.399 68.5478 368.537 68.5478V67.1478ZM360.22 69.9194C358.208 71.7309 356.524 74.222 355.151 77.3592L356.434 77.9203C357.749 74.9135 359.329 72.6046 361.157 70.9601L360.22 69.9194ZM355.093 77.6398V123H356.493V77.6398H355.093ZM355.793 122.3H333.473V123.7H355.793V122.3ZM334.173 123V48.3358H332.773V123H334.173ZM333.473 49.0358H346.721V47.6358H333.473V49.0358ZM346.721 49.0358C347.79 49.0358 348.636 49.1294 349.276 49.3001L349.637 47.9474C348.837 47.7341 347.859 47.6358 346.721 47.6358V49.0358ZM349.287 49.3029C349.969 49.4733 350.482 49.74 350.86 50.0801L351.797 49.0394C351.215 48.5155 350.481 48.1582 349.626 47.9447L349.287 49.3029ZM350.917 50.1259C351.32 50.4193 351.624 50.8269 351.821 51.3792L353.14 50.9083C352.857 50.1166 352.393 49.4682 351.74 48.9936L350.917 50.1259ZM351.837 51.4195C352.101 52.0349 352.329 52.8017 352.514 53.729L353.887 53.4545C353.688 52.4618 353.436 51.5966 353.124 50.868L351.837 51.4195ZM352.512 53.7184L353.664 59.9824L355.041 59.7291L353.889 53.4651L352.512 53.7184ZM433.025 64.6798L432.436 64.3015L432.433 64.306L433.025 64.6798ZM431.153 66.6238L430.806 66.016L430.796 66.0216L430.786 66.0276L431.153 66.6238ZM425.537 66.5518L425.247 67.189L425.259 67.1946L425.272 67.1996L425.537 66.5518ZM422.081 65.0398L421.799 65.6805L421.808 65.6844L422.081 65.0398ZM417.977 63.5998L417.768 64.2679L417.778 64.2709L417.787 64.2736L417.977 63.5998ZM406.169 64.5358L406.574 65.1066L406.577 65.1042L406.169 64.5358ZM405.377 72.4558L404.895 72.9633L404.901 72.9691L404.907 72.9748L405.377 72.4558ZM409.337 74.9038L409.054 75.5442L409.062 75.5477L409.07 75.551L409.337 74.9038ZM414.881 76.8478L415.083 76.1777L415.083 76.1777L414.881 76.8478ZM421.217 78.9358L421.451 78.2762L421.451 78.2762L421.217 78.9358ZM427.553 81.6718L427.234 82.295L427.246 82.3008L427.553 81.6718ZM433.097 85.4878L432.617 85.9976L432.625 86.005L433.097 85.4878ZM436.985 90.9598L436.345 91.2441L436.351 91.2558L436.985 90.9598ZM436.481 108.96L437.124 109.237L437.124 109.237L436.481 108.96ZM430.433 117.024L429.983 116.488L429.978 116.492L430.433 117.024ZM420.569 122.28L420.357 121.612L420.355 121.613L420.569 122.28ZM399.473 123.432L399.603 122.744L399.603 122.744L399.473 123.432ZM392.057 121.488L391.827 122.149L391.832 122.15L392.057 121.488ZM385.505 118.608L385.158 119.216L385.169 119.222L385.505 118.608ZM380.321 114.936L379.729 114.562L379.414 115.061L379.853 115.456L380.321 114.936ZM385.505 106.728L386.097 107.102L386.101 107.095L386.105 107.088L385.505 106.728ZM387.665 104.496L388.03 105.093L388.039 105.088L387.665 104.496ZM394.577 104.496L394.23 105.104L394.242 105.11L394.577 104.496ZM402.137 108.24L401.898 108.898L401.904 108.9L402.137 108.24ZM412.649 108.6L412.838 109.274L412.85 109.27L412.862 109.266L412.649 108.6ZM415.529 107.088L415.07 106.559L415.07 106.559L415.529 107.088ZM417.113 105L417.754 105.28L417.754 105.28L417.113 105ZM416.105 98.9518L416.588 98.4449L416.588 98.4449L416.105 98.9518ZM412.145 96.5038L411.862 97.1442L411.87 97.1477L411.878 97.151L412.145 96.5038ZM406.529 94.5598L406.326 95.2298L406.335 95.2326L406.345 95.2351L406.529 94.5598ZM400.193 92.4718L400.427 91.8122L400.427 91.8122L400.193 92.4718ZM393.785 89.7358L393.455 90.353L393.463 90.3575L393.472 90.3619L393.785 89.7358ZM388.241 85.6318L387.739 86.1196L387.746 86.1267L388.241 85.6318ZM384.281 79.5118L384.926 79.2407L384.926 79.2407L384.281 79.5118ZM384.569 61.7998L383.927 61.5214L383.924 61.5266L384.569 61.7998ZM390.113 54.2398L389.65 53.7149L389.65 53.7149L390.113 54.2398ZM399.329 49.1278L399.553 49.791L399.561 49.7883L399.329 49.1278ZM420.065 47.9037L419.933 48.5912L419.935 48.5916L420.065 47.9037ZM427.193 49.9197L427.448 49.2679L427.448 49.2679L427.193 49.9197ZM433.241 53.0158L432.856 53.6006L432.867 53.6076L433.241 53.0158ZM438.065 56.8318L438.654 57.21L438.959 56.7355L438.56 56.3368L438.065 56.8318ZM432.433 64.306C431.895 65.1572 431.347 65.7067 430.806 66.016L431.5 67.2315C432.303 66.7728 433.002 66.0263 433.617 65.0535L432.433 64.306ZM430.786 66.0276C430.306 66.3228 429.63 66.4998 428.705 66.4998V67.8998C429.796 67.8998 430.751 67.6927 431.52 67.2199L430.786 66.0276ZM428.705 66.4998C427.747 66.4998 426.781 66.3042 425.802 65.9039L425.272 67.1996C426.405 67.6633 427.551 67.8998 428.705 67.8998V66.4998ZM425.827 65.9145C424.764 65.4316 423.606 64.9251 422.354 64.3951L421.808 65.6844C423.051 66.2104 424.198 66.7119 425.247 67.189L425.827 65.9145ZM422.363 64.399C421.127 63.8554 419.727 63.3649 418.166 62.9259L417.787 64.2736C419.298 64.6986 420.635 65.1681 421.799 65.6805L422.363 64.399ZM418.186 62.9316C416.569 62.4264 414.745 62.1798 412.721 62.1798V63.5798C414.633 63.5798 416.313 63.8131 417.768 64.2679L418.186 62.9316ZM412.721 62.1798C409.811 62.1798 407.461 62.7448 405.76 63.9673L406.577 65.1042C407.948 64.1187 409.966 63.5798 412.721 63.5798V62.1798ZM405.764 63.9649C404.08 65.1601 403.237 66.8669 403.237 68.9998H404.637C404.637 67.2926 405.282 66.0234 406.574 65.1066L405.764 63.9649ZM403.237 68.9998C403.237 70.5726 403.788 71.9117 404.895 72.9633L405.859 71.9483C405.046 71.1758 404.637 70.2109 404.637 68.9998H403.237ZM404.907 72.9748C405.985 73.9499 407.374 74.8029 409.054 75.5442L409.619 74.2633C408.036 73.5646 406.785 72.7856 405.847 71.9367L404.907 72.9748ZM409.07 75.551C410.727 76.2333 412.597 76.8886 414.678 77.5178L415.083 76.1777C413.037 75.5589 411.21 74.9182 409.603 74.2565L409.07 75.551ZM414.678 77.5178C416.731 78.1384 418.832 78.8308 420.982 79.5953L421.451 78.2762C419.281 77.5047 417.159 76.8051 415.083 76.1777L414.678 77.5178ZM420.982 79.5953C423.113 80.3529 425.197 81.2527 427.234 82.2949L427.872 81.0486C425.781 79.9788 423.641 79.0546 421.451 78.2762L420.982 79.5953ZM427.246 82.3008C429.248 83.2787 431.038 84.5109 432.617 85.9975L433.577 84.978C431.892 83.3926 429.986 82.0808 427.86 81.0428L427.246 82.3008ZM432.625 86.005C434.181 87.4233 435.422 89.1662 436.345 91.2441L437.625 90.6755C436.628 88.4333 435.277 86.5282 433.569 84.9705L432.625 86.005ZM436.351 91.2558C437.305 93.3017 437.797 95.7874 437.797 98.7358H439.197C439.197 95.6361 438.68 92.9378 437.619 90.6637L436.351 91.2558ZM437.797 98.7358C437.797 102.345 437.141 105.658 435.838 108.683L437.124 109.237C438.509 106.022 439.197 102.519 439.197 98.7358H437.797ZM435.838 108.683C434.539 111.699 432.59 114.299 429.983 116.488L430.883 117.56C433.652 115.236 435.735 112.46 437.124 109.237L435.838 108.683ZM429.978 116.492C427.421 118.676 424.221 120.388 420.357 121.612L420.78 122.947C424.789 121.676 428.164 119.883 430.888 117.556L429.978 116.492ZM420.355 121.613C416.551 122.834 412.137 123.452 407.105 123.452V124.852C412.248 124.852 416.811 124.221 420.783 122.946L420.355 121.613ZM407.105 123.452C404.605 123.452 402.105 123.216 399.603 122.744L399.343 124.12C401.929 124.608 404.517 124.852 407.105 124.852V123.452ZM399.603 122.744C397.09 122.27 394.65 121.63 392.282 120.825L391.832 122.15C394.263 122.977 396.767 123.634 399.343 124.12L399.603 122.744ZM392.286 120.826C389.968 120.022 387.82 119.078 385.841 117.994L385.169 119.222C387.222 120.346 389.442 121.321 391.827 122.149L392.286 120.826ZM385.852 118C383.871 116.868 382.186 115.672 380.789 114.415L379.853 115.456C381.336 116.791 383.106 118.043 385.158 119.216L385.852 118ZM380.913 115.31L386.097 107.102L384.913 106.354L379.729 114.562L380.913 115.31ZM386.105 107.088C386.629 106.214 387.272 105.556 388.03 105.093L387.3 103.898C386.33 104.491 385.533 105.321 384.905 106.368L386.105 107.088ZM388.039 105.088C388.811 104.6 389.823 104.332 391.121 104.332V102.932C389.634 102.932 388.343 103.239 387.291 103.904L388.039 105.088ZM391.121 104.332C392.31 104.332 393.339 104.595 394.23 105.104L394.924 103.888C393.799 103.245 392.524 102.932 391.121 102.932V104.332ZM394.242 105.11C395.295 105.685 396.421 106.308 397.619 106.979L398.303 105.757C397.101 105.084 395.971 104.459 394.912 103.881L394.242 105.11ZM397.619 106.979C398.858 107.673 400.286 108.311 401.898 108.898L402.376 107.582C400.82 107.016 399.464 106.407 398.303 105.757L397.619 106.979ZM401.904 108.9C403.635 109.511 405.76 109.804 408.257 109.804V108.404C405.858 108.404 403.903 108.121 402.37 107.58L401.904 108.9ZM408.257 109.804C410.026 109.804 411.558 109.632 412.838 109.274L412.46 107.926C411.34 108.239 409.944 108.404 408.257 108.404V109.804ZM412.862 109.266C414.125 108.862 415.177 108.319 415.987 107.617L415.07 106.559C414.441 107.104 413.573 107.569 412.436 107.933L412.862 109.266ZM415.987 107.617C416.775 106.934 417.371 106.156 417.754 105.28L416.472 104.719C416.183 105.38 415.723 105.994 415.07 106.559L415.987 107.617ZM417.754 105.28C418.128 104.426 418.317 103.539 418.317 102.624H416.917C416.917 103.341 416.77 104.037 416.472 104.719L417.754 105.28ZM418.317 102.624C418.317 100.959 417.745 99.5468 416.588 98.4449L415.622 99.4587C416.481 100.277 416.917 101.313 416.917 102.624H418.317ZM416.588 98.4449C415.503 97.4114 414.103 96.553 412.411 95.8565L411.878 97.151C413.451 97.7985 414.691 98.5721 415.622 99.4587L416.588 98.4449ZM412.427 95.8633C410.757 95.1265 408.851 94.4676 406.713 93.8844L406.345 95.2351C408.43 95.8039 410.268 96.441 411.862 97.1442L412.427 95.8633ZM406.731 93.8897C404.679 93.2691 402.577 92.5767 400.427 91.8122L399.958 93.1313C402.128 93.9028 404.251 94.6024 406.326 95.2298L406.731 93.8897ZM400.427 91.8122C398.295 91.054 396.185 90.1533 394.098 89.1097L393.472 90.3619C395.609 91.4302 397.771 92.3535 399.958 93.1313L400.427 91.8122ZM394.115 89.1185C392.111 88.0465 390.319 86.7195 388.736 85.1368L387.746 86.1267C389.427 87.8081 391.331 89.217 393.455 90.353L394.115 89.1185ZM388.743 85.144C387.178 83.5333 385.904 81.5691 384.926 79.2407L383.635 79.7828C384.674 82.2544 386.039 84.3702 387.739 86.1195L388.743 85.144ZM384.926 79.2407C383.964 76.9486 383.469 74.1421 383.469 70.7998H382.069C382.069 74.2734 382.582 77.2749 383.635 79.7828L384.926 79.2407ZM383.469 70.7998C383.469 67.7227 384.051 64.8159 385.213 62.0729L383.924 61.5266C382.687 64.4477 382.069 67.5408 382.069 70.7998H383.469ZM385.211 62.0781C386.417 59.2962 388.202 56.8594 390.576 54.7646L389.65 53.7149C387.128 55.9401 385.217 58.5433 383.927 61.5214L385.211 62.0781ZM390.576 54.7646C392.942 52.6769 395.928 51.0149 399.553 49.791L399.105 48.4645C395.338 49.7366 392.18 51.4826 389.65 53.7149L390.576 54.7646ZM399.561 49.7883C403.165 48.5242 407.404 47.8837 412.289 47.8837V46.4837C407.286 46.4837 402.884 47.1393 399.097 48.4672L399.561 49.7883ZM412.289 47.8837C414.935 47.8837 417.483 48.12 419.933 48.5912L420.197 47.2163C417.655 46.7275 415.019 46.4837 412.289 46.4837V47.8837ZM419.935 48.5916C422.44 49.0643 424.774 49.7249 426.938 50.5716L427.448 49.2679C425.196 48.3866 422.778 47.7032 420.195 47.2159L419.935 48.5916ZM426.938 50.5716C429.104 51.4193 431.076 52.4295 432.856 53.6005L433.626 52.431C431.758 51.202 429.698 50.1482 427.448 49.2679L426.938 50.5716ZM432.867 53.6076C434.651 54.7345 436.218 55.9747 437.57 57.3267L438.56 56.3368C437.128 54.9048 435.478 53.601 433.615 52.4239L432.867 53.6076ZM437.476 56.4535L432.436 64.3015L433.614 65.058L438.654 57.21L437.476 56.4535Z" fill="#065D63"/>
</svg>
