<svg width="168" height="172" viewBox="0 0 168 172" fill="none" xmlns="http://www.w3.org/2000/svg">
<path d="M145.107 48.589C158.006 61.4881 158.28 88.4604 128.5 118.5C94.0355 143.839 71.4756 153.539 54.9524 143.999C31.2145 130.294 0.960456 107.876 34.9284 51.8507C58.0392 21.716 107.485 15.3035 145.107 48.589Z" fill="#EEEEEE"/>
<path d="M139 59.2861V116.754C139 120.601 135.879 123.72 132.029 123.72H90.3055L82.7067 127.203L56.7909 139.08C55.7118 139.571 54.4565 139.481 53.4589 138.84C52.4613 138.199 51.8584 137.095 51.8587 135.91V123.72H44.8873C41.0372 123.72 37.916 120.601 37.916 116.754V59.2861C37.916 55.439 41.0372 52.3203 44.8873 52.3203H132.029C135.879 52.3203 139 55.439 139 59.2861Z" fill="#CCA146"/>
<path d="M87.2803 121.278H87.3895H129.113C132.687 121.278 135.584 118.382 135.584 114.812V57.3437C135.584 53.7731 132.687 50.8779 129.113 50.8779H41.9713C38.3969 50.8779 35.5 53.7731 35.5 57.3437V114.812C35.5 118.382 38.3969 121.278 41.9713 121.278H48.9426H49.4426V121.778V133.968C49.4425 134.983 49.9587 135.928 50.8132 136.477C51.6674 137.026 52.7423 137.104 53.6665 136.683L87.2803 121.278ZM87.2803 121.278L87.1811 121.323L79.5824 124.806L53.6675 136.682L87.2803 121.278Z" fill="white" stroke="#065D63"/>
<path d="M58.7924 90.914H70.4427V107.01C70.4427 109.55 67.9031 111.72 64.6175 111.72C61.332 111.72 58.7924 109.55 58.7924 107.01V90.914Z" fill="#CCA146" stroke="#065D63" stroke-width="0.7"/>
<path d="M110.932 77.6477C110.199 77.6476 109.568 77.2253 109.42 76.6371C109.273 76.0489 109.651 75.4568 110.324 75.22L121.13 71.4248C121.911 71.1613 122.805 71.4603 123.137 72.096C123.47 72.7317 123.118 73.4684 122.347 73.75L111.54 77.5453C111.348 77.6128 111.141 77.6477 110.932 77.6477Z" fill="#F6C969"/>
<path d="M121.738 85.2382H110.931C110.078 85.2382 109.387 84.6718 109.387 83.9731C109.387 83.2744 110.078 82.708 110.931 82.708H121.738C122.59 82.708 123.281 83.2744 123.281 83.9731C123.281 84.6718 122.59 85.2382 121.738 85.2382Z" fill="#F6C969"/>
<path d="M121.738 96.6243C121.529 96.6243 121.322 96.5894 121.129 96.5218L110.323 92.7266C109.552 92.445 109.2 91.7083 109.533 91.0726C109.865 90.4369 110.759 90.1379 111.539 90.4013L122.346 94.1966C123.019 94.4333 123.397 95.0254 123.25 95.6136C123.102 96.2019 122.47 96.6241 121.738 96.6243Z" fill="#F6C969"/>
<path d="M70.4427 100.769V108.01C70.4427 110.549 67.9031 112.72 64.6175 112.72C61.332 112.72 58.7924 110.549 58.7924 108.01V100.769H70.4427Z" fill="#ECBF5E" stroke="#065D63" stroke-width="0.7"/>
<path d="M95.315 105.454C92.1235 98.5249 86.9594 94.9636 82.5037 93.1379C80.157 92.1765 78.0066 91.6959 76.4419 91.4555C75.6593 91.3352 75.0223 91.2749 74.5794 91.2446C74.3579 91.2295 74.1849 91.2219 74.0663 91.2181C74.007 91.2162 73.9614 91.2152 73.9301 91.2147L73.8941 91.2143L73.8843 91.2142L73.8815 91.2142L73.8806 91.2142C73.8803 91.2142 73.8801 91.2142 73.8801 91.5642V91.2142H56.8985C51.9077 91.2142 47.9857 87.9106 47.9857 83.9737C47.9857 80.0368 51.9077 76.7332 56.8985 76.7332H73.8801V76.3832C73.8801 76.7332 73.8803 76.7332 73.8806 76.7332L73.8815 76.7332L73.8843 76.7332L73.8941 76.7331L73.9301 76.7327C73.9614 76.7322 74.007 76.7312 74.0663 76.7293C74.1849 76.7254 74.3579 76.7178 74.5794 76.7027C75.0223 76.6725 75.6593 76.6122 76.4419 76.4919C78.0066 76.2515 80.157 75.7709 82.5037 74.8094C86.9594 72.9837 92.1235 69.4224 95.315 62.4935L98.2275 83.9737L95.315 105.454Z" fill="#F6C969" stroke="#065D63" stroke-width="0.7"/>
<path d="M73.8804 82.7085H70.7928C69.9402 82.7085 69.249 82.1421 69.249 81.4435C69.249 80.7448 69.9402 80.1784 70.7928 80.1784H73.8804C78.6464 79.9792 83.2606 78.7392 87.2449 76.5868C87.708 76.3409 88.2959 76.3161 88.7872 76.5218C89.2786 76.7275 89.5987 77.1323 89.6271 77.5838C89.6554 78.0354 89.3876 78.465 88.9246 78.7109C84.4444 81.1357 79.2445 82.5175 73.8804 82.7085Z" fill="white"/>
<path d="M100.125 57.7567C102.557 57.7567 104.406 59.3612 104.406 61.202V106.745C104.406 108.586 102.557 110.19 100.125 110.19C97.6916 110.19 95.8432 108.586 95.8432 106.745V61.202C95.8432 59.3612 97.6916 57.7567 100.125 57.7567Z" fill="#ECBF5E" stroke="#065D63" stroke-width="0.7"/>
<path d="M64.2674 91.2138L56.8989 91.2138L56.8985 91.2138M64.2674 91.2138H56.8985M64.2674 91.2138V76.7328M64.2674 91.2138V76.7328M56.8985 91.2138C51.9111 91.2075 47.9931 87.9077 47.9857 83.973C47.986 80.0363 51.9078 76.7328 56.8985 76.7328H64.2674M56.8985 91.2138L64.2674 76.7328" fill="#ECBF5E" stroke="#065D63" stroke-width="0.7"/>
</svg>
