<svg width="16" height="16" viewBox="0 0 16 16" fill="none" xmlns="http://www.w3.org/2000/svg">
<path d="M3.41533 10.5399C4.94183 12.3577 6.7794 13.789 8.87673 14.8018C9.67526 15.1788 10.7432 15.626 11.9329 15.7027C12.0067 15.7059 12.0772 15.7091 12.151 15.7091C12.9495 15.7091 13.5909 15.4343 14.1136 14.8689C14.1168 14.8657 14.1233 14.8593 14.1265 14.8529C14.3125 14.6292 14.5241 14.428 14.7454 14.2139C14.8961 14.0701 15.0501 13.92 15.1976 13.7666C15.8807 13.0574 15.8807 12.1565 15.1912 11.4696L13.2638 9.54948C12.9367 9.21083 12.5455 9.03193 12.135 9.03193C11.7245 9.03193 11.33 9.21084 10.9933 9.54629L9.84522 10.69C9.73939 10.6293 9.63036 10.575 9.52774 10.5239C9.39946 10.46 9.2808 10.3993 9.17498 10.3322C8.12952 9.67089 7.18027 8.80829 6.27271 7.69969C5.81412 7.12143 5.50625 6.63581 5.29139 6.14062C5.59284 5.86906 5.87505 5.58472 6.14764 5.30677C6.24384 5.20773 6.34326 5.10869 6.44267 5.00965C6.78902 4.66461 6.97502 4.26526 6.97502 3.85952C6.97502 3.45378 6.79223 3.05442 6.44267 2.70938L5.48701 1.75733C5.37477 1.64551 5.26894 1.53689 5.1599 1.42507C4.94825 1.20782 4.72697 0.984184 4.5089 0.782911C4.17858 0.460234 3.79054 0.290909 3.38006 0.290909C2.97278 0.290909 2.58153 0.460234 2.23839 0.786106L1.039 1.98097C0.602859 2.41546 0.355926 2.94261 0.304615 3.55282C0.243684 4.31638 0.384788 5.12786 0.750378 6.10867C1.31159 7.62621 2.15822 9.03512 3.41533 10.5399ZM1.08711 3.61991C1.12559 3.195 1.28914 2.84037 1.59701 2.53367L2.78998 1.3452C2.97599 1.16629 3.18123 1.07364 3.38006 1.07364C3.57568 1.07364 3.77451 1.16629 3.95731 1.35159C4.17217 1.54967 4.37421 1.75733 4.59228 1.97777C4.70131 2.08959 4.81355 2.20141 4.9258 2.31642L5.88146 3.26848C6.08029 3.46656 6.18291 3.66783 6.18291 3.86591C6.18291 4.06399 6.08029 4.26526 5.88146 4.46334C5.78205 4.56238 5.68263 4.66461 5.58322 4.76365C5.28497 5.06396 5.00597 5.3483 4.69811 5.61986C4.69169 5.62625 4.68848 5.62945 4.68207 5.63584C4.4159 5.90101 4.45759 6.1534 4.52172 6.34508C4.52493 6.35467 4.52814 6.36106 4.53135 6.37064C4.77828 6.96168 5.12142 7.52397 5.65698 8.19488C6.61905 9.37697 7.63244 10.2939 8.74845 10.9999C8.88635 11.0894 9.03387 11.1597 9.17177 11.23C9.30004 11.2939 9.4187 11.3546 9.52453 11.4216C9.53736 11.428 9.54698 11.4344 9.55981 11.4408C9.66564 11.4951 9.76826 11.5207 9.87088 11.5207C10.1274 11.5207 10.2942 11.3578 10.3487 11.3034L11.5481 10.1086C11.7341 9.92328 11.9361 9.82424 12.135 9.82424C12.3787 9.82424 12.5775 9.9744 12.7026 10.1086L14.6364 12.0319C15.0212 12.4152 15.018 12.8306 14.6268 13.2363C14.4921 13.3801 14.351 13.5174 14.2002 13.6612C13.9757 13.8785 13.7416 14.1021 13.53 14.3545C13.1612 14.7506 12.7218 14.9359 12.1542 14.9359C12.0997 14.9359 12.042 14.9327 11.9875 14.9296C10.9356 14.8625 9.95747 14.4535 9.22308 14.1053C7.22837 13.1437 5.47739 11.7795 4.02465 10.0479C2.82847 8.61341 2.02353 7.27797 1.49118 5.84669C1.16086 4.96812 1.03579 4.26207 1.08711 3.61991Z" fill="#065D63"/>
<path fill-rule="evenodd" clip-rule="evenodd" d="M2.03279 0.55736C2.41141 0.197755 2.85598 0 3.32911 0C3.80422 0 4.24579 0.196781 4.61242 0.554071C4.83647 0.761003 5.06263 0.989685 5.27626 1.20898L5.28486 1.2178C5.39222 1.32791 5.49556 1.4339 5.60488 1.54282L6.57041 2.5048C6.95471 2.88431 7.16961 3.3384 7.16961 3.81345C7.16961 4.28936 6.95106 4.74284 6.57108 5.12142C6.47036 5.22178 6.37105 5.32072 6.27516 5.41945L6.27447 5.42015C6.03183 5.66759 5.77879 5.923 5.51037 6.17099C5.71485 6.60581 6.00011 7.04558 6.41423 7.56794C7.31984 8.67405 8.26317 9.53015 9.2983 10.185C9.3953 10.2465 9.50672 10.3038 9.63666 10.3685L9.6389 10.3696C9.69906 10.3996 9.76349 10.4317 9.82917 10.4661L10.8807 9.41845C11.2527 9.0479 11.7016 8.83828 12.1806 8.83828C12.6592 8.83828 13.1057 9.04771 13.4688 9.42303L15.4161 11.3631C15.7973 11.7429 15.9991 12.1944 16 12.6606C16.0009 13.1263 15.8014 13.5825 15.4255 13.9728C15.2737 14.1307 15.1159 14.2846 14.9627 14.4307C14.9481 14.4449 14.9335 14.4589 14.9191 14.4729C14.7134 14.6717 14.5262 14.8526 14.3605 15.0505C14.3662 15.0423 14.3724 15.0323 14.3782 15.0209L14.194 14.9291L14.3526 15.06C14.3552 15.0568 14.3579 15.0537 14.3605 15.0505C14.3538 15.0602 14.3477 15.0674 14.3439 15.0719C14.3384 15.0783 14.3332 15.0837 14.3299 15.0871L14.3325 15.0842L14.1811 14.9453L14.3267 15.0903C14.3267 15.0903 14.3283 15.0887 14.3299 15.0871C13.7614 15.7007 13.0581 16 12.1968 16C12.1206 16 12.048 15.9968 11.9777 15.9938L11.9652 15.9932L11.963 15.9931C10.7194 15.913 9.61038 15.4463 8.79823 15.0628L8.7966 15.062C6.64955 14.0252 4.7686 12.5598 3.20686 10.6998C1.92395 9.16397 1.05433 7.71907 0.477329 6.1588C0.1009 5.14874 -0.0501618 4.29754 0.0145067 3.48708C0.0704798 2.82136 0.341571 2.24227 0.816647 1.76894L2.03101 0.559052L2.03279 0.55736ZM2.31865 0.852658L1.10781 2.05904C0.70109 2.46427 0.47281 2.95192 0.424949 3.52002C0.366502 4.25348 0.500752 5.04312 0.863433 6.01622C1.4212 7.52458 2.26392 8.92958 3.52274 10.4366C5.04746 12.2525 6.8819 13.6813 8.97542 14.6925C9.77734 15.0711 10.8266 15.5083 11.9875 15.5836L11.9927 15.5838C12.0653 15.5869 12.1298 15.5897 12.1968 15.5897C12.9447 15.5897 13.5351 15.3371 14.0216 14.8149L14.0355 14.7983C14.2181 14.5787 14.4235 14.3803 14.6287 14.182C14.6446 14.1666 14.6605 14.1513 14.6764 14.1359L14.6774 14.1349C14.8288 13.9905 14.9821 13.8409 15.1283 13.6889C15.443 13.3621 15.5889 13.0041 15.5882 12.6614C15.5875 12.3192 15.4408 11.9679 15.1249 11.6532L13.1749 9.71038L13.1735 9.70896C12.8755 9.40036 12.5313 9.24854 12.1806 9.24854C11.8295 9.24854 11.4809 9.40072 11.1719 9.70854L9.89958 10.9762L9.76284 10.8977C9.66194 10.8399 9.55708 10.7876 9.45251 10.7355C9.32307 10.671 9.19439 10.6054 9.0774 10.5312C7.999 9.84896 7.02327 8.96109 6.09411 7.82599L6.0931 7.82476L6.09211 7.82351C5.62155 7.2301 5.29913 6.72362 5.07253 6.20132L5.01398 6.06638L5.12343 5.96778C5.42294 5.69794 5.70429 5.41455 5.97962 5.13378C6.07794 5.03256 6.17931 4.93157 6.27927 4.83197L6.27992 4.83133C6.60027 4.51215 6.75783 4.15804 6.75783 3.81345C6.75783 3.46812 6.6029 3.11441 6.28059 2.79623L6.27992 2.79556L5.31371 1.83291C5.20224 1.72185 5.09706 1.61397 4.99024 1.50442L4.9809 1.49484C4.76724 1.27551 4.54667 1.05264 4.33047 0.853079L4.32833 0.851103L4.32625 0.849067C4.02539 0.555134 3.68311 0.410256 3.32911 0.410256C2.97933 0.410256 2.63341 0.554388 2.31865 0.852658ZM2.58952 1.12358C2.80538 0.91593 3.06164 0.791439 3.32911 0.791439C3.59461 0.791439 3.8443 0.917009 4.05603 1.13026C4.24693 1.30646 4.42817 1.49008 4.61463 1.679C4.64339 1.70813 4.67227 1.7374 4.70134 1.76678L4.70238 1.76783C4.75688 1.82373 4.81228 1.87973 4.8687 1.93675L4.87002 1.93809C4.92551 1.99417 4.98196 2.05123 5.0385 2.10915L6.00368 3.07078C6.22636 3.29264 6.36876 3.54525 6.36876 3.81991C6.36876 4.09456 6.22636 4.34718 6.00368 4.56903C5.95411 4.61843 5.90443 4.66872 5.85407 4.71969C5.80416 4.77023 5.75321 4.82181 5.70252 4.87231C5.67967 4.89533 5.65689 4.91829 5.63416 4.9412C5.36027 5.21726 5.09417 5.48548 4.80288 5.7428L4.79106 5.75458C4.68582 5.85943 4.6524 5.9491 4.64354 6.02099C4.63402 6.09811 4.65006 6.17626 4.67868 6.2618C4.67868 6.2618 4.67767 6.25912 4.67939 6.26341C4.6805 6.26617 4.68279 6.27182 4.68541 6.27905C4.9258 6.85293 5.261 7.40366 5.79168 8.06863C6.75211 9.24865 7.76024 10.1598 8.86708 10.8602L8.86906 10.8614C8.9748 10.93 9.08575 10.986 9.20374 11.0455C9.22805 11.0577 9.25266 11.0701 9.27759 11.0828C9.4039 11.1458 9.52948 11.2098 9.64414 11.2818C9.65107 11.2855 9.65679 11.2887 9.66048 11.2908L9.66133 11.2913C9.66744 11.2948 9.66908 11.2956 9.66908 11.2956L9.6713 11.2967C9.75238 11.3384 9.82403 11.3547 9.89151 11.3547C10.0615 11.3547 10.1777 11.2463 10.229 11.1951L11.4416 9.98699C11.6545 9.7749 11.9081 9.63941 12.1806 9.63941C12.5099 9.63941 12.7609 9.83835 12.9026 9.98949L14.855 11.9316C15.0755 12.1512 15.207 12.4031 15.2048 12.6788C15.2026 12.9524 15.0692 13.2072 14.8493 13.4356C14.7096 13.5848 14.564 13.7264 14.4115 13.8719C14.3999 13.8831 14.3883 13.8943 14.3768 13.9055C14.1596 14.1156 13.9442 14.3239 13.749 14.5567L13.7456 14.5608L13.7419 14.5647C13.328 15.0094 12.828 15.2183 12.2 15.2183C12.138 15.2183 12.0739 15.2146 12.0193 15.2114L12.0183 15.2114C10.9136 15.1409 9.89493 14.7126 9.14808 14.3584L9.14688 14.3579C7.10346 13.3727 5.31001 11.975 3.82283 10.2022C2.60183 8.73784 1.77432 7.36734 1.22646 5.89434C0.886128 4.98893 0.750583 4.24386 0.805629 3.55489L0.805801 3.55274C0.84899 3.07581 1.03506 2.67227 1.38081 2.3278L2.58822 1.12483L2.58952 1.12358Z" fill="#065D63"/>
</svg>
