<svg width="168" height="159" viewBox="0 0 168 159" fill="none" xmlns="http://www.w3.org/2000/svg">
<path d="M122.635 131.525C152 117.038 171.614 93.8243 144.262 52.1527C128.129 31.0683 87.5 20.0002 53.5 22.5006C31.7407 24.1009 -9.00004 48.0005 19.0001 95.9965C54.5 140.001 73.8714 155.583 122.635 131.525Z" fill="#EEEEEE"/>
<rect x="32.0283" y="38.0366" width="101.081" height="85.1208" rx="6" fill="#CCA146"/>
<rect x="29.3364" y="35.8765" width="100.081" height="84.1208" rx="5.5" fill="white" stroke="#065D63"/>
<path d="M89.6973 108.658C97.0139 108.658 102.967 102.705 102.967 95.3882V91.8007H105.959V95.3882C105.959 104.355 98.6639 111.65 89.6973 111.65H78.85V108.658H89.6973Z" fill="#CCA146" stroke="#065D63" stroke-width="0.7"/>
<path d="M51.0436 76.3351C51.2336 61.4243 63.5415 49.3495 78.5 49.3495C93.4585 49.3495 105.766 61.4243 105.956 76.3351H102.965C102.775 63.0702 91.8041 52.3409 78.5 52.3409C65.1959 52.3409 54.2253 63.0702 54.0353 76.3351H51.0436Z" fill="#ECBF5E" stroke="#065D63" stroke-width="0.7"/>
<path d="M78.85 52.3434V49.3517C93.65 49.5383 105.768 61.5407 105.956 76.3351H102.965C102.776 63.1867 91.996 52.5296 78.85 52.3434Z" fill="#CCA146" stroke="#065D63" stroke-width="0.7"/>
<path d="M61.5387 92.9464H52.5371C49.6771 92.9464 47.35 90.6193 47.35 87.7593V80.3765C47.35 77.5165 49.6771 75.1894 52.5371 75.1894H61.5387V92.9464Z" fill="#ECBF5E" stroke="#065D63" stroke-width="0.7"/>
<path d="M104.463 92.9464H95.4613V75.1894H104.463C107.323 75.1894 109.65 77.5165 109.65 80.3765V87.7593C109.65 90.6193 107.323 92.9464 104.463 92.9464Z" fill="#CCA146" stroke="#065D63" stroke-width="0.7"/>
<path d="M78.5 104.021C67.5001 104.021 58.5473 95.0695 58.5473 84.0679C58.5473 73.0663 67.5001 64.1151 78.5 64.1151C89.4999 64.1151 98.4527 73.0663 98.4527 84.0679C98.4527 95.0695 89.4999 104.021 78.5 104.021Z" fill="#F6C969" stroke="#065D63" stroke-width="0.7"/>
<path d="M98.8027 84.0679C98.8027 72.8729 89.6932 63.7651 78.5 63.7651V104.371C89.6932 104.371 98.8027 95.2628 98.8027 84.0679Z" fill="#ECBF5E"/>
<path d="M84.0371 78.5309C84.0371 80.4875 82.9667 82.3332 81.2686 83.3297C80.7147 83.6621 80.3457 84.2526 80.3457 84.917V87.7594H76.6543V84.9169C76.6543 83.3666 77.3557 81.8532 78.5 80.8194C79.2462 80.0733 80.3457 79.8551 80.3457 78.5308C80.3457 77.497 79.5337 76.6851 78.5 76.6851C77.4663 76.6851 76.6543 77.497 76.6543 78.5308H72.9629C72.9629 75.4668 75.436 72.9937 78.5 72.9937C81.564 72.9937 84.0371 75.4669 84.0371 78.5309Z" fill="#2B787D"/>
<path d="M76.6543 91.4507H80.3457V95.1421H76.6543V91.4507Z" fill="#2B787D"/>
<path d="M78.5 91.4507H80.3457V95.1421H78.5V91.4507Z" fill="#065D63"/>
<path d="M84.0371 78.5308C84.0371 80.4873 82.9667 82.333 81.2686 83.3296C80.7147 83.6619 80.3457 84.2524 80.3457 84.9169V87.7593H78.5V80.8194C79.2462 80.0733 80.3457 79.8551 80.3457 78.5308C80.3457 77.497 79.5337 76.6851 78.5 76.6851V72.9937C81.564 72.9937 84.0371 75.4668 84.0371 78.5308Z" fill="#065D63"/>
</svg>
