<svg xmlns="http://www.w3.org/2000/svg" width="209" height="589" viewBox="0 0 209 589" fill="none">
<g opacity="0.1">
<path d="M15.504 399.084L52.1361 359.334V359.007L15.352 319.42C5.92801 329.562 0 343.63 0 359.17C0 374.711 5.92801 388.779 15.504 399.084Z" fill="#F8C96C"/>
<path d="M104.272 415.116L104.424 471.061L104.576 471.224H156.561C156.561 456.829 151.545 442.434 141.361 431.474C131.176 420.514 117.648 415.116 104.272 415.116Z" fill="#F8C96C"/>
<path d="M52.2876 27.9189L52.4396 55.8915L52.5916 56.0551H78.5836C78.5836 48.8575 75.9996 41.6599 70.9836 36.0981C65.8156 30.6998 58.9756 27.9189 52.2876 27.9189Z" fill="#DA9308"/>
<path d="M52.4406 84.5163L52.2886 56.5435L52.1366 56.3799L26.1445 56.3799C26.1445 63.5776 28.7285 70.7753 33.7445 76.3371C39.0646 81.8989 45.7526 84.5163 52.4406 84.5163Z" fill="#FCCE76"/>
<path d="M0 302.733H104.272L104.272 415.114L0 302.733Z" fill="#FCCE76"/>
<path d="M0.152344 415.606H52.1364L52.1364 471.551L0.152344 415.606Z" fill="#FCCE76"/>
<path d="M208.697 415.606V471.551H156.713L208.697 415.606Z" fill="#FCCE76"/>
<path d="M156.713 303.062H208.697V359.007L156.713 303.062Z" fill="#FCCE76"/>
<path d="M0 55.8876L0 0.105957L51.9841 0.105957L0 55.8876Z" fill="#FCCE76"/>
<path d="M104.272 302.733H156.561V377.326L104.272 302.733Z" fill="#F8C96C"/>
<path d="M156.561 224.216H104.272L104.272 302.735L156.561 224.216Z" fill="#F8C96C"/>
<path d="M104.425 415.605V377.327H156.713L104.425 415.605Z" fill="#EFA30F"/>
<path d="M156.559 264.782V303.06H208.847L156.559 264.782Z" fill="#EFA30F"/>
<path d="M103.817 471.385H0.152344L0.152344 582.948H103.817L103.817 471.385Z" fill="#EFA30F"/>
<path d="M207.481 112.651L103.816 112.651L103.816 224.214H207.481V112.651Z" fill="#EFA30F"/>
<path d="M103.817 112.651L0.152344 112.651L0.152344 151.584L103.817 151.584V112.651Z" fill="#DA9308"/>
<path d="M135.335 -6.86646e-05L135.335 112.544L171.967 112.544V-6.86646e-05L135.335 -6.86646e-05Z" fill="#FCCE76"/>
<path d="M190.277 0.0739288L190.277 112.618H208.669V0.0739288H190.277Z" fill="#F8C96C"/>
<path d="M103.817 171.051L0.152344 171.051L0.152344 190.517L103.817 190.517V171.051Z" fill="#FCCE76"/>
<path d="M155.648 527.167H103.816L103.816 582.948H155.648V527.167Z" fill="#FCCE76"/>
<path d="M209 531.489H155.562V589H209V531.489Z" fill="#FCCE76"/>
<path d="M155.648 471.386H103.816L103.816 527.167H155.648V471.386Z" fill="#FCCE76"/>
<path d="M103.665 527.167L103.817 583.112L103.969 583.275H155.953C155.953 568.88 150.937 554.485 140.753 543.525C130.569 532.565 117.193 527.003 103.665 527.167Z" fill="#EFA30F"/>
<path d="M103.967 527.167L103.815 583.112L103.663 583.275H51.6792C51.6792 568.88 56.6952 554.485 66.8792 543.525C77.2152 532.565 90.5913 527.003 103.967 527.167Z" fill="#F8C96C"/>
<path d="M52.4404 27.9168C67.0324 27.9168 78.8885 40.6762 78.8885 56.38C78.8885 72.0839 67.0324 84.8433 52.4404 84.8433C37.8484 84.8433 25.9924 72.0839 25.9924 56.38C25.9924 40.6762 37.8484 27.9168 52.4404 27.9168ZM52.4404 0.10791C23.5604 0.10791 0.152344 25.2995 0.152344 56.38C0.152344 87.4606 23.5604 112.652 52.4404 112.652C81.3205 112.652 104.729 87.4606 104.729 56.38C104.729 25.2995 81.3205 0.10791 52.4404 0.10791Z" fill="#EFA30F"/>
</g>
</svg>