<svg width="9" height="16" viewBox="0 0 9 16" fill="none" xmlns="http://www.w3.org/2000/svg">
<path d="M5.15625 16H2.34375C2.08466 16 1.875 15.7903 1.875 15.5312V9.375H0.46875C0.209656 9.375 0 9.16534 0 8.90625V6.09375C0 5.83466 0.209656 5.625 0.46875 5.625H1.875V3.28125C1.875 1.47216 3.34716 0 5.15625 0H7.96875C8.22784 0 8.4375 0.209656 8.4375 0.46875V3.28125C8.4375 3.54034 8.22784 3.75 7.96875 3.75H5.625V5.625H7.96875C8.10653 5.625 8.23747 5.68544 8.32625 5.79072C8.4155 5.896 8.45397 6.03472 8.43106 6.17066L7.96231 8.98316C7.92478 9.20928 7.72931 9.375 7.49997 9.375H5.62497V15.5312C5.625 15.7903 5.41534 16 5.15625 16Z" fill="#065D63"/>
</svg>
