<svg width="449" height="182" viewBox="0 0 449 182" fill="none" xmlns="http://www.w3.org/2000/svg">
<path d="M63.0006 55.4915C91.2639 24.6746 149.855 -11.4814 247.501 3.49176C340.5 25.4915 371.796 77.9157 361 132.991C352.83 174.678 279.635 195.183 177.501 171.991C63.0005 145.991 0.978302 122.987 63.0006 55.4915Z" fill="#EEEEEE"/>
<path d="M79.672 130.865V146.993H19.912V130.865H40.072V77.9447C40.072 76.6007 40.096 75.2567 40.144 73.9127C40.192 72.5207 40.264 71.1287 40.36 69.7367L28.408 79.6727C27.352 80.4887 26.296 80.9927 25.24 81.1847C24.232 81.3287 23.272 81.3287 22.36 81.1847C21.448 80.9927 20.632 80.6807 19.912 80.2487C19.192 79.7687 18.664 79.2887 18.328 78.8087L11.272 69.4487L43.96 42.0167H62.392V130.865H79.672Z" fill="#CCA146"/>
<path d="M75.672 128.865V144.993H15.912V128.865H36.072V75.9447C36.072 74.6007 36.096 73.2567 36.144 71.9127C36.192 70.5207 36.264 69.1287 36.36 67.7367L24.408 77.6727C23.352 78.4887 22.296 78.9927 21.24 79.1847C20.232 79.3287 19.272 79.3287 18.36 79.1847C17.448 78.9927 16.632 78.6807 15.912 78.2487C15.192 77.7687 14.664 77.2887 14.328 76.8087L7.272 67.4487L39.96 40.0167H58.392V128.865H75.672Z" fill="#F6C969"/>
<path d="M75.672 128.865H76.372V128.165H75.672V128.865ZM75.672 144.993V145.693H76.372V144.993H75.672ZM15.912 144.993H15.212V145.693H15.912V144.993ZM15.912 128.865V128.165H15.212V128.865H15.912ZM36.072 128.865V129.565H36.772V128.865H36.072ZM36.144 71.9127L36.8436 71.9377L36.8436 71.9368L36.144 71.9127ZM36.36 67.7367L37.0583 67.7848L37.1709 66.1522L35.9125 67.1984L36.36 67.7367ZM24.408 77.6727L24.836 78.2266L24.8459 78.2189L24.8555 78.211L24.408 77.6727ZM21.24 79.1847L21.339 79.8776L21.3521 79.8758L21.3652 79.8734L21.24 79.1847ZM18.36 79.1847L18.2158 79.8697L18.2332 79.8733L18.2508 79.8761L18.36 79.1847ZM15.912 78.2487L15.5237 78.8311L15.5376 78.8403L15.5519 78.8489L15.912 78.2487ZM14.328 76.8087L14.9015 76.4072L14.8944 76.3971L14.887 76.3873L14.328 76.8087ZM7.272 67.4487L6.82202 66.9125L6.31312 67.3395L6.71303 67.87L7.272 67.4487ZM39.96 40.0167V39.3167H39.7052L39.51 39.4805L39.96 40.0167ZM58.392 40.0167H59.092V39.3167H58.392V40.0167ZM58.392 128.865H57.692V129.565H58.392V128.865ZM74.972 128.865V144.993H76.372V128.865H74.972ZM75.672 144.293H15.912V145.693H75.672V144.293ZM16.612 144.993V128.865H15.212V144.993H16.612ZM15.912 129.565H36.072V128.165H15.912V129.565ZM36.772 128.865V75.9447H35.372V128.865H36.772ZM36.772 75.9447C36.772 74.609 36.7959 73.2733 36.8436 71.9377L35.4444 71.8877C35.3962 73.24 35.372 74.5923 35.372 75.9447H36.772ZM36.8436 71.9368C36.8913 70.5528 36.9629 69.1688 37.0583 67.7848L35.6617 67.6885C35.5651 69.0885 35.4927 70.4885 35.4444 71.8885L36.8436 71.9368ZM35.9125 67.1984L23.9605 77.1344L24.8555 78.211L36.8075 68.275L35.9125 67.1984ZM23.98 77.1188C22.9915 77.8826 22.0369 78.3283 21.1148 78.496L21.3652 79.8734C22.5551 79.657 23.7125 79.0947 24.836 78.2266L23.98 77.1188ZM21.141 78.4917C20.195 78.6268 19.3056 78.6253 18.4692 78.4932L18.2508 79.8761C19.2384 80.032 20.269 80.0305 21.339 79.8776L21.141 78.4917ZM18.5042 78.4997C17.6601 78.322 16.9185 78.0362 16.2721 77.6484L15.5519 78.8489C16.3455 79.3251 17.2359 79.6634 18.2158 79.8697L18.5042 78.4997ZM16.3003 77.6662C15.6214 77.2136 15.1697 76.7905 14.9015 76.4072L13.7545 77.2101C14.1583 77.7869 14.7626 78.3237 15.5237 78.8311L16.3003 77.6662ZM14.887 76.3873L7.83097 67.0273L6.71303 67.87L13.769 77.23L14.887 76.3873ZM7.72199 67.9849L40.41 40.5529L39.51 39.4805L6.82202 66.9125L7.72199 67.9849ZM39.96 40.7167H58.392V39.3167H39.96V40.7167ZM57.692 40.0167V128.865H59.092V40.0167H57.692ZM58.392 129.565H75.672V128.165H58.392V129.565Z" fill="#065D63"/>
<path d="M161.64 95.5052C161.64 104.673 160.656 112.617 158.688 119.337C156.72 126.057 153.984 131.625 150.48 136.041C147.024 140.457 142.896 143.745 138.096 145.905C133.344 148.065 128.184 149.145 122.616 149.145C117.048 149.145 111.888 148.065 107.136 145.905C102.432 143.745 98.352 140.457 94.896 136.041C91.44 131.625 88.728 126.057 86.76 119.337C84.84 112.617 83.88 104.673 83.88 95.5052C83.88 86.3372 84.84 78.3932 86.76 71.6732C88.728 64.9532 91.44 59.3852 94.896 54.9692C98.352 50.5532 102.432 47.2892 107.136 45.1772C111.888 43.0172 117.048 41.9372 122.616 41.9372C128.184 41.9372 133.344 43.0172 138.096 45.1772C142.896 47.2892 147.024 50.5532 150.48 54.9692C153.984 59.3852 156.72 64.9532 158.688 71.6732C160.656 78.3932 161.64 86.3372 161.64 95.5052ZM138.6 95.5052C138.6 88.2572 138.144 82.3292 137.232 77.7212C136.32 73.0652 135.096 69.4172 133.56 66.7772C132.072 64.1372 130.368 62.3372 128.448 61.3772C126.528 60.3692 124.584 59.8652 122.616 59.8652C120.648 59.8652 118.704 60.3692 116.784 61.3772C114.912 62.3372 113.232 64.1372 111.744 66.7772C110.304 69.4172 109.128 73.0652 108.216 77.7212C107.352 82.3292 106.92 88.2572 106.92 95.5052C106.92 102.801 107.352 108.753 108.216 113.361C109.128 117.969 110.304 121.617 111.744 124.305C113.232 126.945 114.912 128.769 116.784 129.777C118.704 130.737 120.648 131.217 122.616 131.217C124.584 131.217 126.528 130.737 128.448 129.777C130.368 128.769 132.072 126.945 133.56 124.305C135.096 121.617 136.32 117.969 137.232 113.361C138.144 108.753 138.6 102.801 138.6 95.5052Z" fill="#CCA146"/>
<path d="M157.64 93.5052C157.64 102.673 156.656 110.617 154.688 117.337C152.72 124.057 149.984 129.625 146.48 134.041C143.024 138.457 138.896 141.745 134.096 143.905C129.344 146.065 124.184 147.145 118.616 147.145C113.048 147.145 107.888 146.065 103.136 143.905C98.432 141.745 94.352 138.457 90.896 134.041C87.44 129.625 84.728 124.057 82.76 117.337C80.84 110.617 79.88 102.673 79.88 93.5052C79.88 84.3372 80.84 76.3932 82.76 69.6732C84.728 62.9532 87.44 57.3852 90.896 52.9692C94.352 48.5532 98.432 45.2892 103.136 43.1772C107.888 41.0172 113.048 39.9372 118.616 39.9372C124.184 39.9372 129.344 41.0172 134.096 43.1772C138.896 45.2892 143.024 48.5532 146.48 52.9692C149.984 57.3852 152.72 62.9532 154.688 69.6732C156.656 76.3932 157.64 84.3372 157.64 93.5052ZM134.6 93.5052C134.6 86.2572 134.144 80.3292 133.232 75.7212C132.32 71.0652 131.096 67.4172 129.56 64.7772C128.072 62.1372 126.368 60.3372 124.448 59.3772C122.528 58.3692 120.584 57.8652 118.616 57.8652C116.648 57.8652 114.704 58.3692 112.784 59.3772C110.912 60.3372 109.232 62.1372 107.744 64.7772C106.304 67.4172 105.128 71.0652 104.216 75.7212C103.352 80.3292 102.92 86.2572 102.92 93.5052C102.92 100.801 103.352 106.753 104.216 111.361C105.128 115.969 106.304 119.617 107.744 122.305C109.232 124.945 110.912 126.769 112.784 127.777C114.704 128.737 116.648 129.217 118.616 129.217C120.584 129.217 122.528 128.737 124.448 127.777C126.368 126.769 128.072 124.945 129.56 122.305C131.096 119.617 132.32 115.969 133.232 111.361C134.144 106.753 134.6 100.801 134.6 93.5052Z" fill="#F6C969"/>
<path d="M154.688 117.337L154.016 117.14L154.688 117.337ZM146.48 134.041L145.932 133.606L145.929 133.61L146.48 134.041ZM134.096 143.905L133.809 143.267L133.806 143.268L134.096 143.905ZM103.136 143.905L102.844 144.541L102.846 144.542L103.136 143.905ZM90.896 134.041L90.3447 134.473L90.896 134.041ZM82.76 117.337L82.0869 117.529L82.0882 117.534L82.76 117.337ZM82.76 69.6732L82.0882 69.4764L82.0869 69.4809L82.76 69.6732ZM90.896 52.9692L90.3447 52.5377V52.5377L90.896 52.9692ZM103.136 43.1772L103.423 43.8158L103.426 43.8144L103.136 43.1772ZM134.096 43.1772L133.806 43.8145L133.814 43.8179L134.096 43.1772ZM146.48 52.9692L145.929 53.4006L145.932 53.4043L146.48 52.9692ZM154.688 69.6732L154.016 69.8699L154.688 69.6732ZM133.232 75.7212L132.545 75.8557L132.545 75.8571L133.232 75.7212ZM129.56 64.7772L128.95 65.1209L128.955 65.1292L129.56 64.7772ZM124.448 59.3772L124.123 59.9971L124.135 60.0033L124.448 59.3772ZM112.784 59.3772L113.103 60.0001L113.109 59.9969L112.784 59.3772ZM107.744 64.7772L107.134 64.4334L107.129 64.442L107.744 64.7772ZM104.216 75.7212L103.529 75.5866L103.528 75.5922L104.216 75.7212ZM104.216 111.361L103.528 111.49L103.529 111.497L104.216 111.361ZM107.744 122.305L107.127 122.636L107.131 122.642L107.134 122.649L107.744 122.305ZM112.784 127.777L112.452 128.393L112.461 128.399L112.471 128.403L112.784 127.777ZM124.448 127.777L124.761 128.403L124.773 128.397L124.448 127.777ZM129.56 122.305L128.952 121.958L128.95 121.961L129.56 122.305ZM133.232 111.361L132.545 111.225L133.232 111.361ZM156.94 93.5052C156.94 102.626 155.961 110.501 154.016 117.14L155.36 117.534C157.351 110.734 158.34 102.72 158.34 93.5052H156.94ZM154.016 117.14C152.068 123.794 149.368 129.276 145.932 133.606L147.028 134.476C150.6 129.975 153.372 124.32 155.36 117.534L154.016 117.14ZM145.929 133.61C142.538 137.942 138.499 141.156 133.809 143.267L134.383 144.544C139.293 142.334 143.51 138.972 147.031 134.473L145.929 133.61ZM133.806 143.268C129.151 145.384 124.091 146.445 118.616 146.445V147.845C124.277 147.845 129.537 146.746 134.386 144.542L133.806 143.268ZM118.616 146.445C113.141 146.445 108.081 145.384 103.426 143.268L102.846 144.542C107.695 146.746 112.955 147.845 118.616 147.845V146.445ZM103.428 143.269C98.8339 141.159 94.8403 137.945 91.4473 133.61L90.3447 134.473C93.8637 138.969 98.0301 142.331 102.844 144.541L103.428 143.269ZM91.4473 133.61C88.0577 129.279 85.3808 123.796 83.4318 117.14L82.0882 117.534C84.0752 124.319 86.8223 129.972 90.3447 134.473L91.4473 133.61ZM83.4331 117.145C81.5355 110.503 80.58 102.627 80.58 93.5052H79.18C79.18 102.719 80.1445 110.731 82.0869 117.529L83.4331 117.145ZM80.58 93.5052C80.58 84.3832 81.5355 76.507 83.4331 69.8655L82.0869 69.4809C80.1445 76.2794 79.18 84.2911 79.18 93.5052H80.58ZM83.4318 69.8699C85.3808 63.2146 88.0577 57.7317 91.4473 53.4006L90.3447 52.5377C86.8223 57.0386 84.0752 62.6917 82.0882 69.4764L83.4318 69.8699ZM91.4473 53.4006C94.8395 49.0661 98.8313 45.8772 103.423 43.8157L102.849 42.5386C98.0327 44.7011 93.8645 48.0402 90.3447 52.5377L91.4473 53.4006ZM103.426 43.8144C108.081 41.6985 113.141 40.6372 118.616 40.6372V39.2372C112.955 39.2372 107.695 40.3358 102.846 42.5399L103.426 43.8144ZM118.616 40.6372C124.091 40.6372 129.151 41.6985 133.806 43.8144L134.386 42.5399C129.537 40.3358 124.277 39.2372 118.616 39.2372V40.6372ZM133.814 43.8179C138.501 45.8802 142.539 49.069 145.929 53.4006L147.031 52.5377C143.509 48.0373 139.291 44.6981 134.378 42.5364L133.814 43.8179ZM145.932 53.4043C149.368 57.7347 152.068 63.2163 154.016 69.8699L155.36 69.4764C153.372 62.69 150.6 57.0357 147.028 52.5341L145.932 53.4043ZM154.016 69.8699C155.961 76.5098 156.94 84.3844 156.94 93.5052H158.34C158.34 84.2899 157.351 76.2765 155.36 69.4764L154.016 69.8699ZM135.3 93.5052C135.3 86.2332 134.843 80.2552 133.919 75.5853L132.545 75.8571C133.445 80.4031 133.9 86.2811 133.9 93.5052H135.3ZM133.919 75.5866C132.999 70.8916 131.756 67.1591 130.165 64.4251L128.955 65.1292C130.436 67.6752 131.641 71.2387 132.545 75.8557L133.919 75.5866ZM130.17 64.4335C128.64 61.72 126.848 59.7943 124.761 58.7511L124.135 60.0033C125.888 60.88 127.504 62.5543 128.95 65.1209L130.17 64.4335ZM124.773 58.7574C122.763 57.7022 120.709 57.1652 118.616 57.1652V58.5652C120.459 58.5652 122.293 59.0362 124.123 59.9969L124.773 58.7574ZM118.616 57.1652C116.523 57.1652 114.469 57.7022 112.459 58.7574L113.109 59.9969C114.939 59.0362 116.773 58.5652 118.616 58.5652V57.1652ZM112.465 58.7543C110.428 59.7988 108.661 61.7241 107.134 64.4335L108.354 65.1209C109.803 62.5503 111.396 60.8755 113.103 60L112.465 58.7543ZM107.129 64.442C105.641 67.1702 104.448 70.896 103.529 75.5866L104.903 75.8557C105.808 71.2343 106.967 67.6641 108.359 65.1124L107.129 64.442ZM103.528 75.5922C102.653 80.2591 102.22 86.2346 102.22 93.5052H103.62C103.62 86.2798 104.051 80.3992 104.904 75.8502L103.528 75.5922ZM102.22 93.5052C102.22 100.823 102.653 106.823 103.528 111.49L104.904 111.232C104.051 106.683 103.62 100.779 103.62 93.5052H102.22ZM103.529 111.497C104.448 116.141 105.642 119.863 107.127 122.636L108.361 121.975C106.966 119.371 105.808 115.798 104.903 111.225L103.529 111.497ZM107.134 122.649C108.661 125.358 110.424 127.301 112.452 128.393L113.116 127.161C111.4 126.237 109.803 124.533 108.354 121.961L107.134 122.649ZM112.471 128.403C114.479 129.407 116.53 129.917 118.616 129.917V128.517C116.766 128.517 114.929 128.067 113.097 127.151L112.471 128.403ZM118.616 129.917C120.702 129.917 122.753 129.407 124.761 128.403L124.135 127.151C122.303 128.067 120.466 128.517 118.616 128.517V129.917ZM124.773 128.397C126.851 127.306 128.641 125.362 130.17 122.649L128.95 121.961C127.503 124.529 125.885 126.232 124.123 127.157L124.773 128.397ZM130.168 122.652C131.755 119.874 132.999 116.145 133.919 111.497L132.545 111.225C131.641 115.793 130.437 119.36 128.952 121.958L130.168 122.652ZM133.919 111.497C134.843 106.827 135.3 100.825 135.3 93.5052H133.9C133.9 100.778 133.445 106.679 132.545 111.225L133.919 111.497Z" fill="#065D63"/>
<path d="M249.64 95.5052C249.64 104.673 248.656 112.617 246.688 119.337C244.72 126.057 241.984 131.625 238.48 136.041C235.024 140.457 230.896 143.745 226.096 145.905C221.344 148.065 216.184 149.145 210.616 149.145C205.048 149.145 199.888 148.065 195.136 145.905C190.432 143.745 186.352 140.457 182.896 136.041C179.44 131.625 176.728 126.057 174.76 119.337C172.84 112.617 171.88 104.673 171.88 95.5052C171.88 86.3372 172.84 78.3932 174.76 71.6732C176.728 64.9532 179.44 59.3852 182.896 54.9692C186.352 50.5532 190.432 47.2892 195.136 45.1772C199.888 43.0172 205.048 41.9372 210.616 41.9372C216.184 41.9372 221.344 43.0172 226.096 45.1772C230.896 47.2892 235.024 50.5532 238.48 54.9692C241.984 59.3852 244.72 64.9532 246.688 71.6732C248.656 78.3932 249.64 86.3372 249.64 95.5052ZM226.6 95.5052C226.6 88.2572 226.144 82.3292 225.232 77.7212C224.32 73.0652 223.096 69.4172 221.56 66.7772C220.072 64.1372 218.368 62.3372 216.448 61.3772C214.528 60.3692 212.584 59.8652 210.616 59.8652C208.648 59.8652 206.704 60.3692 204.784 61.3772C202.912 62.3372 201.232 64.1372 199.744 66.7772C198.304 69.4172 197.128 73.0652 196.216 77.7212C195.352 82.3292 194.92 88.2572 194.92 95.5052C194.92 102.801 195.352 108.753 196.216 113.361C197.128 117.969 198.304 121.617 199.744 124.305C201.232 126.945 202.912 128.769 204.784 129.777C206.704 130.737 208.648 131.217 210.616 131.217C212.584 131.217 214.528 130.737 216.448 129.777C218.368 128.769 220.072 126.945 221.56 124.305C223.096 121.617 224.32 117.969 225.232 113.361C226.144 108.753 226.6 102.801 226.6 95.5052Z" fill="#CCA146"/>
<path d="M245.64 93.5052C245.64 102.673 244.656 110.617 242.688 117.337C240.72 124.057 237.984 129.625 234.48 134.041C231.024 138.457 226.896 141.745 222.096 143.905C217.344 146.065 212.184 147.145 206.616 147.145C201.048 147.145 195.888 146.065 191.136 143.905C186.432 141.745 182.352 138.457 178.896 134.041C175.44 129.625 172.728 124.057 170.76 117.337C168.84 110.617 167.88 102.673 167.88 93.5052C167.88 84.3372 168.84 76.3932 170.76 69.6732C172.728 62.9532 175.44 57.3852 178.896 52.9692C182.352 48.5532 186.432 45.2892 191.136 43.1772C195.888 41.0172 201.048 39.9372 206.616 39.9372C212.184 39.9372 217.344 41.0172 222.096 43.1772C226.896 45.2892 231.024 48.5532 234.48 52.9692C237.984 57.3852 240.72 62.9532 242.688 69.6732C244.656 76.3932 245.64 84.3372 245.64 93.5052ZM222.6 93.5052C222.6 86.2572 222.144 80.3292 221.232 75.7212C220.32 71.0652 219.096 67.4172 217.56 64.7772C216.072 62.1372 214.368 60.3372 212.448 59.3772C210.528 58.3692 208.584 57.8652 206.616 57.8652C204.648 57.8652 202.704 58.3692 200.784 59.3772C198.912 60.3372 197.232 62.1372 195.744 64.7772C194.304 67.4172 193.128 71.0652 192.216 75.7212C191.352 80.3292 190.92 86.2572 190.92 93.5052C190.92 100.801 191.352 106.753 192.216 111.361C193.128 115.969 194.304 119.617 195.744 122.305C197.232 124.945 198.912 126.769 200.784 127.777C202.704 128.737 204.648 129.217 206.616 129.217C208.584 129.217 210.528 128.737 212.448 127.777C214.368 126.769 216.072 124.945 217.56 122.305C219.096 119.617 220.32 115.969 221.232 111.361C222.144 106.753 222.6 100.801 222.6 93.5052Z" fill="#F6C969"/>
<path d="M242.688 117.337L242.016 117.14L242.688 117.337ZM234.48 134.041L233.932 133.606L233.929 133.61L234.48 134.041ZM222.096 143.905L221.809 143.267L221.806 143.268L222.096 143.905ZM191.136 143.905L190.844 144.541L190.846 144.542L191.136 143.905ZM178.896 134.041L178.345 134.473L178.896 134.041ZM170.76 117.337L170.087 117.529L170.088 117.534L170.76 117.337ZM170.76 69.6732L170.088 69.4764L170.087 69.4809L170.76 69.6732ZM178.896 52.9692L178.345 52.5377V52.5377L178.896 52.9692ZM191.136 43.1772L191.423 43.8158L191.426 43.8144L191.136 43.1772ZM222.096 43.1772L221.806 43.8145L221.814 43.8179L222.096 43.1772ZM234.48 52.9692L233.929 53.4006L233.932 53.4043L234.48 52.9692ZM242.688 69.6732L242.016 69.8699L242.688 69.6732ZM221.232 75.7212L220.545 75.8557L220.545 75.8571L221.232 75.7212ZM217.56 64.7772L216.95 65.1209L216.955 65.1292L217.56 64.7772ZM212.448 59.3772L212.123 59.9971L212.135 60.0033L212.448 59.3772ZM200.784 59.3772L201.103 60.0001L201.109 59.9969L200.784 59.3772ZM195.744 64.7772L195.134 64.4334L195.129 64.442L195.744 64.7772ZM192.216 75.7212L191.529 75.5866L191.528 75.5922L192.216 75.7212ZM192.216 111.361L191.528 111.49L191.529 111.497L192.216 111.361ZM195.744 122.305L195.127 122.636L195.131 122.642L195.134 122.649L195.744 122.305ZM200.784 127.777L200.452 128.393L200.461 128.399L200.471 128.403L200.784 127.777ZM212.448 127.777L212.761 128.403L212.773 128.397L212.448 127.777ZM217.56 122.305L216.952 121.958L216.95 121.961L217.56 122.305ZM221.232 111.361L220.545 111.225L221.232 111.361ZM244.94 93.5052C244.94 102.626 243.961 110.501 242.016 117.14L243.36 117.534C245.351 110.734 246.34 102.72 246.34 93.5052H244.94ZM242.016 117.14C240.068 123.794 237.368 129.276 233.932 133.606L235.028 134.476C238.6 129.975 241.372 124.32 243.36 117.534L242.016 117.14ZM233.929 133.61C230.538 137.942 226.499 141.156 221.809 143.267L222.383 144.544C227.293 142.334 231.51 138.972 235.031 134.473L233.929 133.61ZM221.806 143.268C217.151 145.384 212.091 146.445 206.616 146.445V147.845C212.277 147.845 217.537 146.746 222.386 144.542L221.806 143.268ZM206.616 146.445C201.141 146.445 196.081 145.384 191.426 143.268L190.846 144.542C195.695 146.746 200.955 147.845 206.616 147.845V146.445ZM191.428 143.269C186.834 141.159 182.84 137.945 179.447 133.61L178.345 134.473C181.864 138.969 186.03 142.331 190.844 144.541L191.428 143.269ZM179.447 133.61C176.058 129.279 173.381 123.796 171.432 117.14L170.088 117.534C172.075 124.319 174.822 129.972 178.345 134.473L179.447 133.61ZM171.433 117.145C169.535 110.503 168.58 102.627 168.58 93.5052H167.18C167.18 102.719 168.145 110.731 170.087 117.529L171.433 117.145ZM168.58 93.5052C168.58 84.3832 169.535 76.507 171.433 69.8655L170.087 69.4809C168.145 76.2794 167.18 84.2911 167.18 93.5052H168.58ZM171.432 69.8699C173.381 63.2146 176.058 57.7317 179.447 53.4006L178.345 52.5377C174.822 57.0386 172.075 62.6917 170.088 69.4764L171.432 69.8699ZM179.447 53.4006C182.839 49.0661 186.831 45.8772 191.423 43.8157L190.849 42.5386C186.033 44.7011 181.865 48.0402 178.345 52.5377L179.447 53.4006ZM191.426 43.8144C196.081 41.6985 201.141 40.6372 206.616 40.6372V39.2372C200.955 39.2372 195.695 40.3358 190.846 42.5399L191.426 43.8144ZM206.616 40.6372C212.091 40.6372 217.151 41.6985 221.806 43.8144L222.386 42.5399C217.537 40.3358 212.277 39.2372 206.616 39.2372V40.6372ZM221.814 43.8179C226.501 45.8802 230.539 49.069 233.929 53.4006L235.031 52.5377C231.509 48.0373 227.291 44.6981 222.378 42.5364L221.814 43.8179ZM233.932 53.4043C237.368 57.7347 240.068 63.2163 242.016 69.8699L243.36 69.4764C241.372 62.69 238.6 57.0357 235.028 52.5341L233.932 53.4043ZM242.016 69.8699C243.961 76.5098 244.94 84.3844 244.94 93.5052H246.34C246.34 84.2899 245.351 76.2765 243.36 69.4764L242.016 69.8699ZM223.3 93.5052C223.3 86.2332 222.843 80.2552 221.919 75.5853L220.545 75.8571C221.445 80.4031 221.9 86.2811 221.9 93.5052H223.3ZM221.919 75.5866C220.999 70.8916 219.756 67.1591 218.165 64.4251L216.955 65.1292C218.436 67.6752 219.641 71.2387 220.545 75.8557L221.919 75.5866ZM218.17 64.4335C216.64 61.72 214.848 59.7943 212.761 58.7511L212.135 60.0033C213.888 60.88 215.504 62.5543 216.95 65.1209L218.17 64.4335ZM212.773 58.7574C210.763 57.7022 208.709 57.1652 206.616 57.1652V58.5652C208.459 58.5652 210.293 59.0362 212.123 59.9969L212.773 58.7574ZM206.616 57.1652C204.523 57.1652 202.469 57.7022 200.459 58.7574L201.109 59.9969C202.939 59.0362 204.773 58.5652 206.616 58.5652V57.1652ZM200.465 58.7543C198.428 59.7988 196.661 61.7241 195.134 64.4335L196.354 65.1209C197.803 62.5503 199.396 60.8755 201.103 60L200.465 58.7543ZM195.129 64.442C193.641 67.1702 192.448 70.896 191.529 75.5866L192.903 75.8557C193.808 71.2343 194.967 67.6641 196.359 65.1124L195.129 64.442ZM191.528 75.5922C190.653 80.2591 190.22 86.2346 190.22 93.5052H191.62C191.62 86.2798 192.051 80.3992 192.904 75.8502L191.528 75.5922ZM190.22 93.5052C190.22 100.823 190.653 106.823 191.528 111.49L192.904 111.232C192.051 106.683 191.62 100.779 191.62 93.5052H190.22ZM191.529 111.497C192.448 116.141 193.642 119.863 195.127 122.636L196.361 121.975C194.966 119.371 193.808 115.798 192.903 111.225L191.529 111.497ZM195.134 122.649C196.661 125.358 198.424 127.301 200.452 128.393L201.116 127.161C199.4 126.237 197.803 124.533 196.354 121.961L195.134 122.649ZM200.471 128.403C202.479 129.407 204.53 129.917 206.616 129.917V128.517C204.766 128.517 202.929 128.067 201.097 127.151L200.471 128.403ZM206.616 129.917C208.702 129.917 210.753 129.407 212.761 128.403L212.135 127.151C210.303 128.067 208.466 128.517 206.616 128.517V129.917ZM212.773 128.397C214.851 127.306 216.641 125.362 218.17 122.649L216.95 121.961C215.503 124.529 213.885 126.232 212.123 127.157L212.773 128.397ZM218.168 122.652C219.755 119.874 220.999 116.145 221.919 111.497L220.545 111.225C219.641 115.793 218.437 119.36 216.952 121.958L218.168 122.652ZM221.919 111.497C222.843 106.827 223.3 100.825 223.3 93.5052H221.9C221.9 100.778 221.445 106.679 220.545 111.225L221.919 111.497Z" fill="#065D63"/>
<path d="M361.04 147.993H338.792C336.632 147.993 334.808 147.417 333.32 146.265C331.832 145.113 330.464 143.457 329.216 141.297L311.792 108.537C310.64 106.425 309.344 105.033 307.904 104.361C306.464 103.689 304.64 103.353 302.432 103.353H291.488V147.993H267.152V43.0892H291.488V85.5692H300.416C302.24 85.5692 303.8 85.2332 305.096 84.5612C306.44 83.8892 307.664 82.6652 308.768 80.8892L327.776 49.2812C328.88 47.4572 330.224 45.9692 331.808 44.8172C333.392 43.6652 335.312 43.0892 337.568 43.0892H358.448L332.888 84.3452C331.688 86.2652 330.248 87.8492 328.568 89.0972C326.888 90.3452 325.04 91.3772 323.024 92.1932C326.24 93.0572 328.976 94.4972 331.232 96.5132C333.488 98.4812 335.6 101.217 337.568 104.721L361.04 147.993Z" fill="#CCA146"/>
<path d="M357.04 145.993H334.792C332.632 145.993 330.808 145.417 329.32 144.265C327.832 143.113 326.464 141.457 325.216 139.297L307.792 106.537C306.64 104.425 305.344 103.033 303.904 102.361C302.464 101.689 300.64 101.353 298.432 101.353H287.488V145.993H263.152V41.0892H287.488V83.5692H296.416C298.24 83.5692 299.8 83.2332 301.096 82.5612C302.44 81.8892 303.664 80.6652 304.768 78.8892L323.776 47.2812C324.88 45.4572 326.224 43.9692 327.808 42.8172C329.392 41.6652 331.312 41.0892 333.568 41.0892H354.448L328.888 82.3452C327.688 84.2652 326.248 85.8492 324.568 87.0972C322.888 88.3452 321.04 89.3772 319.024 90.1932C322.24 91.0572 324.976 92.4972 327.232 94.5132C329.488 96.4812 331.6 99.2172 333.568 102.721L357.04 145.993Z" fill="#F6C969"/>
<path d="M357.04 145.993V146.693H358.216L357.655 145.659L357.04 145.993ZM325.216 139.297L324.598 139.626L324.604 139.637L324.61 139.647L325.216 139.297ZM307.792 106.537L308.41 106.208L308.407 106.202L307.792 106.537ZM303.904 102.361L303.608 102.995L303.904 102.361ZM287.488 101.353V100.653H286.788V101.353H287.488ZM287.488 145.993V146.693H288.188V145.993H287.488ZM263.152 145.993H262.452V146.693H263.152V145.993ZM263.152 41.0892V40.3892H262.452V41.0892H263.152ZM287.488 41.0892H288.188V40.3892H287.488V41.0892ZM287.488 83.5692H286.788V84.2692H287.488V83.5692ZM301.096 82.5612L300.783 81.935L300.774 81.9397L301.096 82.5612ZM304.768 78.8892L305.363 79.2588L305.368 79.2499L304.768 78.8892ZM323.776 47.2812L323.177 46.9187L323.176 46.9204L323.776 47.2812ZM327.808 42.8172L327.396 42.251L327.396 42.251L327.808 42.8172ZM354.448 41.0892L355.043 41.4578L355.705 40.3892H354.448V41.0892ZM328.888 82.3452L329.482 82.7162L329.483 82.7138L328.888 82.3452ZM324.568 87.0972L324.985 87.6591L324.568 87.0972ZM319.024 90.1932L318.761 89.5443L316.826 90.3275L318.842 90.8692L319.024 90.1932ZM327.232 94.5132L326.766 95.0352L326.772 95.0407L327.232 94.5132ZM333.568 102.721L334.183 102.387L334.178 102.378L333.568 102.721ZM357.04 145.293H334.792V146.693H357.04V145.293ZM334.792 145.293C332.763 145.293 331.096 144.755 329.749 143.712L328.891 144.819C330.52 146.079 332.501 146.693 334.792 146.693V145.293ZM329.749 143.712C328.352 142.63 327.039 141.053 325.822 138.947L324.61 139.647C325.889 141.862 327.312 143.596 328.891 144.819L329.749 143.712ZM325.834 138.968L308.41 106.208L307.174 106.866L324.598 139.626L325.834 138.968ZM308.407 106.202C307.218 104.023 305.829 102.487 304.2 101.727L303.608 102.995C304.859 103.579 306.062 104.828 307.177 106.872L308.407 106.202ZM304.2 101.727C302.639 100.998 300.705 100.653 298.432 100.653V102.053C300.575 102.053 302.289 102.38 303.608 102.995L304.2 101.727ZM298.432 100.653H287.488V102.053H298.432V100.653ZM286.788 101.353V145.993H288.188V101.353H286.788ZM287.488 145.293H263.152V146.693H287.488V145.293ZM263.852 145.993V41.0892H262.452V145.993H263.852ZM263.152 41.7892H287.488V40.3892H263.152V41.7892ZM286.788 41.0892V83.5692H288.188V41.0892H286.788ZM287.488 84.2692H296.416V82.8692H287.488V84.2692ZM296.416 84.2692C298.325 84.2692 300.001 83.9175 301.418 83.1826L300.774 81.9397C299.599 82.5488 298.155 82.8692 296.416 82.8692V84.2692ZM301.409 83.1873C302.906 82.439 304.216 81.1034 305.363 79.2587L304.174 78.5196C303.112 80.2269 301.974 81.3393 300.783 81.9351L301.409 83.1873ZM305.368 79.2499L324.376 47.6419L323.176 46.9204L304.168 78.5284L305.368 79.2499ZM324.375 47.6436C325.435 45.8922 326.717 44.4758 328.22 43.3833L327.396 42.251C325.731 43.4625 324.325 45.0222 323.177 46.9187L324.375 47.6436ZM328.22 43.3833C329.667 42.3311 331.437 41.7892 333.568 41.7892V40.3892C331.187 40.3892 329.117 40.9993 327.396 42.251L328.22 43.3833ZM333.568 41.7892H354.448V40.3892H333.568V41.7892ZM353.853 40.7205L328.293 81.9765L329.483 82.7138L355.043 41.4578L353.853 40.7205ZM328.294 81.9742C327.137 83.8262 325.755 85.3435 324.151 86.5352L324.985 87.6591C326.741 86.3549 328.239 84.7041 329.482 82.7162L328.294 81.9742ZM324.151 86.5352C322.52 87.7464 320.724 88.7497 318.761 89.5443L319.287 90.842C321.356 90.0046 323.256 88.9439 324.985 87.6591L324.151 86.5352ZM318.842 90.8692C321.964 91.7077 324.599 93.0991 326.766 95.0351L327.698 93.9912C325.353 91.8952 322.516 90.4066 319.206 89.5171L318.842 90.8692ZM326.772 95.0407C328.951 96.9416 331.016 99.6073 332.958 103.064L334.178 102.378C332.184 98.827 330.025 96.0208 327.692 93.9857L326.772 95.0407ZM332.953 103.055L356.425 146.327L357.655 145.659L334.183 102.387L332.953 103.055Z" fill="#065D63"/>
<path d="M442.4 109.608H415.76V138.264H397.616V109.608H371.12V93.624H397.616V65.112H415.76V93.624H442.4V109.608Z" fill="#CCA146"/>
<path d="M438.4 107.608H411.76V136.264H393.616V107.608H367.12V91.624H393.616V63.112H411.76V91.624H438.4V107.608Z" fill="#F6C969"/>
<path d="M438.4 107.608V108.308H439.1V107.608H438.4ZM411.76 107.608V106.908H411.06V107.608H411.76ZM411.76 136.264V136.964H412.46V136.264H411.76ZM393.616 136.264H392.916V136.964H393.616V136.264ZM393.616 107.608H394.316V106.908H393.616V107.608ZM367.12 107.608H366.42V108.308H367.12V107.608ZM367.12 91.624V90.924H366.42V91.624H367.12ZM393.616 91.624V92.324H394.316V91.624H393.616ZM393.616 63.112V62.412H392.916V63.112H393.616ZM411.76 63.112H412.46V62.412H411.76V63.112ZM411.76 91.624H411.06V92.324H411.76V91.624ZM438.4 91.624H439.1V90.924H438.4V91.624ZM438.4 106.908H411.76V108.308H438.4V106.908ZM411.06 107.608V136.264H412.46V107.608H411.06ZM411.76 135.564H393.616V136.964H411.76V135.564ZM394.316 136.264V107.608H392.916V136.264H394.316ZM393.616 106.908H367.12V108.308H393.616V106.908ZM367.82 107.608V91.624H366.42V107.608H367.82ZM367.12 92.324H393.616V90.924H367.12V92.324ZM394.316 91.624V63.112H392.916V91.624H394.316ZM393.616 63.812H411.76V62.412H393.616V63.812ZM411.06 63.112V91.624H412.46V63.112H411.06ZM411.76 92.324H438.4V90.924H411.76V92.324ZM437.7 91.624V107.608H439.1V91.624H437.7Z" fill="#065D63"/>
</svg>
