<svg width="158" height="144" viewBox="0 0 158 144" fill="none" xmlns="http://www.w3.org/2000/svg">
<path d="M16.4002 108.598C38.8886 136.234 77.5334 137.729 98.1922 128.673C134.185 112.893 149.915 76.4066 144.115 40.3442C140.855 20.0708 107.629 -5.43662 71.3774 14.0137C51.988 24.4169 -5.06114 74.4238 16.4002 108.598Z" fill="#EEEEEE"/>
<rect x="52" y="20.3784" width="59" height="104" rx="6" fill="#CCA146"/>
<path d="M100.558 121.378H56.08C52.1697 121.378 49 118.209 49 114.298V24.4584C49 20.5481 52.1697 17.3784 56.08 17.3784H100.558C104.468 17.3784 107.638 20.5481 107.638 24.4584V114.298C107.638 118.209 104.468 121.378 100.558 121.378Z" fill="#F6C969"/>
<path d="M49.0005 27.5049H107.637V111.252H49.0005V27.5049Z" fill="white"/>
<path d="M82.4447 23.8375H74.1927C73.5411 23.8375 73.0127 23.3091 73.0127 22.6575C73.0127 22.0059 73.5411 21.4775 74.1927 21.4775H82.4447C83.0963 21.4775 83.6247 22.0059 83.6247 22.6575C83.6247 23.3091 83.0963 23.8375 82.4447 23.8375Z" fill="white"/>
<path d="M87.9505 23.838C88.6024 23.838 89.131 23.3095 89.131 22.6575C89.131 22.0056 88.6024 21.4771 87.9505 21.4771C87.2985 21.4771 86.77 22.0056 86.77 22.6575C86.77 23.3095 87.2985 23.838 87.9505 23.838Z" fill="white"/>
<path d="M57.6663 42.8912H75.291C75.9426 42.8912 76.471 42.3628 76.471 41.7112C76.471 41.0597 75.9426 40.5312 75.291 40.5312H57.6663C57.0147 40.5312 56.4863 41.0597 56.4863 41.7112C56.4863 42.3628 57.0147 42.8912 57.6663 42.8912Z" fill="#F6C969"/>
<path d="M57.6663 47.233H68.211C68.8626 47.233 69.391 46.7046 69.391 46.053C69.391 45.4015 68.8626 44.873 68.211 44.873H57.6663C57.0147 44.873 56.4863 45.4015 56.4863 46.053C56.4863 46.7046 57.0147 47.233 57.6663 47.233Z" fill="#F6C969"/>
<path d="M99.7731 55.5476V76.6483C99.7731 77.6993 98.7657 78.6379 97.4053 78.6379H59.5829C58.2225 78.6379 57.2152 77.6993 57.2152 76.6483V55.5476C57.2152 54.4966 58.2225 53.558 59.5829 53.558H97.4053C98.7657 53.558 99.7731 54.4966 99.7731 55.5476Z" fill="#F6C969" stroke="#065D63" stroke-width="0.7"/>
<path d="M96.9723 54.9237C96.9723 56.5875 95.6224 57.9374 93.961 57.9374C92.2972 57.9374 90.9473 56.5875 90.9473 54.9237C90.9473 54.2582 91.162 53.647 91.5255 53.1514H96.3941C96.7576 53.647 96.9723 54.2582 96.9723 54.9237Z" fill="#CCA146"/>
<path d="M93.9596 56.1647C95.6232 56.1647 96.9719 54.8161 96.9719 53.1524C96.9719 51.4888 95.6232 50.1401 93.9596 50.1401C92.2959 50.1401 90.9473 51.4888 90.9473 53.1524C90.9473 54.8161 92.2959 56.1647 93.9596 56.1647Z" fill="#ECBF5E"/>
<path d="M100.123 90.9649V111.322H56.8652V90.9649C56.8652 89.6601 58.0801 88.6011 59.5829 88.6011H97.4053C98.9082 88.6011 100.123 89.6601 100.123 90.9649Z" fill="#ECBF5E"/>
<path d="M96.9723 90.3397C96.9723 92.0035 95.6224 93.3535 93.961 93.3535C92.2972 93.3535 90.9473 92.0035 90.9473 90.3397C90.9473 89.6789 91.162 89.0653 91.5255 88.5674H96.3941C96.7576 89.0653 96.9723 89.6789 96.9723 90.3397Z" fill="#CCA146"/>
<path d="M93.9596 91.5808C95.6232 91.5808 96.9719 90.2321 96.9719 88.5685C96.9719 86.9048 95.6232 85.5562 93.9596 85.5562C92.2959 85.5562 90.9473 86.9048 90.9473 88.5685C90.9473 90.2321 92.2959 91.5808 93.9596 91.5808Z" fill="#F6C969"/>
<path d="M94.6682 36.4565H58.0452C57.5317 36.4565 57.1152 36.0401 57.1152 35.5265V32.9251C57.1152 32.4116 57.5317 31.9951 58.0452 31.9951H94.6682C95.1817 31.9951 95.5982 32.4116 95.5982 32.9251V35.5265C95.5982 36.0401 95.1817 36.4565 94.6682 36.4565Z" fill="#F6C969" stroke="#065D63" stroke-width="0.5"/>
<path d="M90.0732 36.4565V31.9951H94.6679C95.1814 31.9951 95.5979 32.4114 95.5979 32.9251V35.5265C95.5979 36.0401 95.1814 36.4565 94.6679 36.4565H90.0732Z" fill="#CCA146" stroke="#065D63" stroke-width="0.5"/>
<path d="M79.0235 68.3784H63.5228C62.8712 68.3784 62.3428 68.9068 62.3428 69.5584C62.3428 70.21 62.8712 70.7384 63.5228 70.7384H79.0235C79.6751 70.7384 80.2035 70.21 80.2035 69.5584C80.2035 68.9068 79.6751 68.3784 79.0235 68.3784Z" fill="white"/>
<path d="M79.0235 63.7935H63.5228C62.8712 63.7935 62.3428 64.3219 62.3428 64.9735C62.3428 65.6251 62.8712 66.1535 63.5228 66.1535H79.0235C79.6751 66.1535 80.2035 65.6251 80.2035 64.9735C80.2035 64.3219 79.6751 63.7935 79.0235 63.7935Z" fill="white"/>
<path d="M66.2795 58.2842H63.5228C62.8712 58.2842 62.3428 58.8126 62.3428 59.4642C62.3428 60.1158 62.8712 60.6442 63.5228 60.6442H66.2795C66.9311 60.6442 67.4595 60.1158 67.4595 59.4642C67.4595 58.8126 66.9311 58.2842 66.2795 58.2842Z" fill="white"/>
<path d="M79.0235 103.818H63.5228C62.8712 103.818 62.3428 104.347 62.3428 104.998C62.3428 105.65 62.8712 106.178 63.5228 106.178H79.0235C79.6751 106.178 80.2035 105.65 80.2035 104.998C80.2035 104.347 79.6751 103.818 79.0235 103.818Z" fill="white"/>
<path d="M79.0235 99.2334H63.5228C62.8712 99.2334 62.3428 99.7618 62.3428 100.413C62.3428 101.065 62.8712 101.593 63.5228 101.593H79.0235C79.6751 101.593 80.2035 101.065 80.2035 100.413C80.2035 99.7618 79.6751 99.2334 79.0235 99.2334Z" fill="white"/>
<path d="M66.2795 93.7236H63.5228C62.8712 93.7236 62.3428 94.252 62.3428 94.9036C62.3428 95.5552 62.8712 96.0836 63.5228 96.0836H66.2795C66.9311 96.0836 67.4595 95.5552 67.4595 94.9036C67.4595 94.252 66.9311 93.7236 66.2795 93.7236Z" fill="white"/>
<rect x="49.5" y="17.8784" width="58" height="103" rx="5.5" stroke="#065D63"/>
</svg>
