<svg width="130" height="140" viewBox="0 0 130 140" fill="none" xmlns="http://www.w3.org/2000/svg">
<g clip-path="url(#clip0)">
<path d="M6.30756 32.8843C16.2142 14.6189 41.1528 -6.67349 75.3788 2.20121C109.605 11.0759 132.72 29.8572 128.937 62.501C125.153 95.1791 105.236 122.319 62.3763 123.11C19.482 123.901 -15.432 72.8892 6.30756 32.8843Z" fill="#EEEEEE"/>
<path opacity="0.2" d="M74.6308 89.5874C76.1122 91.0977 77.2687 92.8908 78.1519 94.8132C79.9052 98.6295 83.1377 104.879 85.7479 105.49C89.5094 106.402 108.435 121.007 110.231 123.499C110.231 123.499 114.856 120.131 114.703 117.179C114.596 114.223 118.218 112.846 120.274 107.342C122.33 101.838 85.7479 83.7502 85.7479 83.7502L68.75 71.2502L62.7887 69.2386C62.7887 74.5433 64.8696 79.6363 68.5842 83.4232L74.6308 89.5874Z" fill="black" fill-opacity="0.7"/>
<path opacity="0.2" d="M89.2756 67.4542C90.8002 67.6157 92.3864 68.037 93.0679 69.4103C93.9126 71.1125 94.5637 74.4062 93.2519 80.6251C96.7338 78.9354 104.529 79.8444 107.5 80.6251C107.5 80.6251 108.926 75.0844 106.93 72.9043C104.968 70.691 106.887 67.3242 104.972 61.7697C103.056 56.2152 93.2518 55.7843 93.2518 55.7843L72.185 56.9523L66.3056 59.1923C69.6801 63.2853 74.5255 65.8913 79.8006 66.4502L89.2756 67.4542Z" fill="black" fill-opacity="0.7"/>
<g opacity="0.1">
<path opacity="0.1" d="M112.323 63.4568C109.911 61.1713 108.323 60.7535 106.877 60.6076C106.877 60.6076 105.847 59.0938 104.079 59.0132C103.589 58.9335 103.081 58.9383 102.556 58.9176C100.881 58.8123 99.012 58.6887 99.012 58.6887C97.3204 57.3901 95.1904 55.8683 93.026 54.4054L93.3784 54.8311C91.1216 53.283 88.848 51.7093 88.1664 51.1712C88.1664 51.1712 88.1664 51.1712 88.1497 51.1457C88.8568 51.6671 89.5304 52.1374 90.2128 52.5655L79.608 43.3572C79.2301 42.9482 78.869 42.5648 78.5079 42.1813C77.5178 41.0063 75.536 38.8762 74.3985 39.3672C74.373 39.384 74.3219 39.4174 74.2964 39.4342C74.2964 39.4342 72.7882 39.694 74.1609 41.7859C73.0592 43.1658 73.2265 44.5887 73.8938 45.9392C74.0516 46.3465 74.3195 46.7547 74.6551 47.1549C74.9819 47.5973 75.351 48.0485 75.7289 48.4575L67.3131 45.4767L66.4944 45.1746L56.0864 41.4939L42.1079 36.5433C39.9133 35.7572 37.5353 36.9163 36.7492 39.111L32.0752 52.2875L30.2098 57.4532C28.3834 60.732 30.9726 63.1204 32.433 63.6218L62.7114 74.3354C62.5416 74.4104 62.4563 74.5028 62.4563 74.5028C62.4563 74.5028 61.2773 73.7072 60.2465 74.6391C60.017 74.7898 59.8376 75.017 59.7084 75.3207C59.5968 75.5399 59.5275 75.7679 59.5171 76.0302C59.4733 76.2415 59.4884 76.487 59.5036 76.7325C59.5697 78.1124 61.7125 80.2098 64.513 82.6421C64.6979 82.8127 64.8661 82.9578 65.0343 83.1028L65.0511 83.1284C65.295 83.3332 65.5222 83.5126 65.7661 83.7175C68.4574 86.0389 73.7132 90.6554 75.8017 93.2263C75.9947 93.4647 76.1788 93.7453 76.3717 93.9837C78.4898 97.1557 80.5433 103.399 82.5952 105.191C82.8559 105.422 83.1165 105.652 83.4027 105.866C84.8329 107.044 86.145 108.154 87.7378 109.079C89.71 110.194 91.785 111.131 93.8258 112.128C97.5446 113.957 101.323 115.711 105.136 117.406C106.891 118.189 108.715 118.744 110.53 119.341C111.374 119.626 112.913 119.857 113.577 120.48C113.577 120.48 122.77 115.469 125.642 109.168L120.63 102.531L111.524 81.5361C111.53 79.4881 112.605 74.8413 112.605 73.5635C112.627 72.9289 112.623 72.3111 112.619 71.6933C113.465 68.255 113.515 65.9958 112.786 63.8833C112.777 63.9255 112.617 63.7382 112.323 63.4568ZM84.7892 87.4014L84.688 87.3584C85.2301 87.2946 86.4505 87.0411 88.0298 86.3333C86.9257 86.8753 85.6773 87.4756 84.7892 87.4014ZM89.0151 85.8326C89.1849 85.7577 89.3379 85.6573 89.491 85.5568C89.3802 85.666 89.2104 85.741 89.0151 85.8326ZM84.57 87.2898L83.2132 86.5014C80.8568 84.6902 75.4041 80.3854 75.3618 80.3766C75.3618 80.3766 73.3872 78.4243 70.8865 76.6713C71.9292 76.4249 72.8404 75.6445 73.2207 74.5556L75.4584 68.2331C76.1017 68.2124 76.7538 68.1494 77.3469 68.0522L83.6734 68.572L89.2965 84.3706L84.57 87.2898ZM80.8755 44.7881C82.304 46.1864 84.3799 48.1817 86.6096 49.9667C84.9769 48.7023 82.8573 46.9182 80.8755 44.7881Z" fill="black"/>
<path opacity="0.1" d="M104.937 122.719L105.045 122.829C105.029 122.804 104.987 122.795 104.937 122.719Z" fill="black"/>
</g>
<path d="M77.766 47.557C77.9039 47.2111 80.3314 42.7349 86.1946 47.6097C92.0578 52.4845 101.107 61.4362 101.107 61.4362L97.2378 65.2164C97.2378 65.2164 91.6655 65.7345 84.3928 62.6605C84.3928 62.6605 78.327 64.7068 73.9896 62.9912C70.0404 61.4223 69.3605 46.6498 69.3605 46.6498L77.766 47.557Z" fill="white"/>
<path d="M91.4202 58.7432C91.3947 58.76 91.3691 58.7767 91.3014 58.7847C87.9787 59.5053 83.9968 57.7754 81.6348 56.7342C81.4323 56.6481 81.2298 56.562 81.0273 56.4759C80.8671 56.3986 80.7922 56.2288 80.8695 56.0686C80.9468 55.9084 81.1166 55.8334 81.2769 55.9107C81.4794 55.9968 81.6818 56.0829 81.8843 56.169C84.1874 57.1759 88.0513 58.8373 91.1874 58.1661C91.3484 58.1334 91.5254 58.2362 91.5581 58.3973C91.574 58.5328 91.5222 58.6763 91.4202 58.7432Z" fill="#1A2E35"/>
<path d="M93.7496 61.9581C93.7241 61.9749 93.6985 61.9916 93.6308 61.9996C88.6045 63.0717 83.1662 60.2903 82.1968 59.7586C81.6874 59.9834 80.8066 60.087 80.0357 60.1914C79.6969 60.2313 79.4258 60.2632 79.2393 60.3126C79.0783 60.3453 78.9013 60.2424 78.8686 60.0814C78.8359 59.9204 78.9388 59.7434 79.0998 59.7107C79.3031 59.6868 79.5996 59.6382 79.9384 59.5983C80.6415 59.5019 81.658 59.3823 82.0151 59.1479C82.1171 59.081 82.2271 59.0818 82.3029 59.1416C82.3619 59.1758 88.2363 62.5105 93.449 61.3889C93.6101 61.3562 93.787 61.4591 93.8197 61.6201C93.9202 61.7732 93.8516 61.8911 93.7496 61.9581Z" fill="#1A2E35"/>
<path d="M95.8758 65.1997C95.8503 65.2165 95.8248 65.2332 95.757 65.2412C90.7308 66.3133 85.3347 63.5407 84.323 63.0002C82.8873 63.7599 80.4647 64.0724 78.0126 63.7837C77.8436 63.7487 77.7176 63.6123 77.7527 63.4433C77.7878 63.2743 77.9241 63.1484 78.0931 63.1835C80.4607 63.4545 82.9256 63.1508 84.1836 62.3983C84.2856 62.3313 84.3956 62.3321 84.4713 62.3919C84.5303 62.4262 90.4047 65.7609 95.6175 64.6393C95.7785 64.6066 95.9555 64.7095 95.9882 64.8705C96.0464 65.0148 95.9778 65.1328 95.8758 65.1997Z" fill="#1A2E35"/>
<path d="M82.9776 50.1603L75.9016 70.132C75.2798 71.8539 73.3945 72.7626 71.6471 72.1575L35.1307 59.2237C33.4088 58.6019 32.5001 56.7165 33.1051 54.9691L40.1811 34.9974C40.8029 33.2755 42.6883 32.3668 44.4357 32.9719L80.952 45.9057C82.6739 46.5275 83.5827 48.4128 82.9776 50.1603Z" fill="#1A2E35"/>
<path d="M82.201 49.8663L75.7293 68.2006C74.9433 70.3953 72.5485 71.5288 70.3706 70.7683L35.5005 58.3965C34.9265 58.1892 34.4211 57.864 33.9755 57.463C32.8156 56.3629 32.3796 54.6418 32.9328 53.0378L34.7728 47.8889L39.4468 34.7123C40.2328 32.5177 42.6276 31.3841 44.8054 32.1446L58.784 37.0953L69.1919 40.776L79.6588 44.4909C81.828 45.2937 82.9615 47.6885 82.201 49.8663Z" fill="#FFD57B"/>
<path opacity="0.1" d="M58.7585 37.1126L34.7306 47.8807L39.4046 34.7041C40.1906 32.5095 42.5854 31.3759 44.7633 32.1364L58.7585 37.1126Z" fill="black"/>
<path opacity="0.1" d="M82.201 49.8667L75.7293 68.201C74.9433 70.3957 72.5486 71.5292 70.3707 70.7687L35.5005 58.3969C34.9266 58.1896 34.4211 57.8644 33.9755 57.4634L69.9851 41.0952L79.6334 44.5081C81.828 45.2941 82.9616 47.6888 82.201 49.8667Z" fill="black"/>
<path d="M50.3952 38.6602L49.2377 41.9016C49.0129 42.56 48.3082 42.8765 47.6497 42.6517L42.4752 40.8285C41.8168 40.6037 41.5003 39.899 41.7251 39.2405L42.8826 35.9992C43.1075 35.3407 43.8122 35.0242 44.4706 35.249L49.6451 37.0722C50.2781 37.3138 50.62 38.0018 50.3952 38.6602Z" fill="white"/>
<path d="M48.8427 42.6354C48.4856 42.8698 48.028 42.9511 47.6231 42.7789L42.4486 40.9557C41.7311 40.6966 41.3477 39.8898 41.6068 39.1724L42.7643 35.931C42.9022 35.5851 43.1414 35.2821 43.481 35.1323C43.8206 34.9824 44.2016 34.9513 44.5476 35.0892L49.7221 36.9125C50.4395 37.1715 50.823 37.9783 50.5639 38.6958L49.4064 41.9371C49.2772 42.2408 49.0723 42.4847 48.8427 42.6354ZM43.4698 35.5046C43.2657 35.6385 43.1374 35.8322 43.0258 36.0514L41.8682 39.2927C41.661 39.8667 41.9527 40.4782 42.5267 40.6854L47.7012 42.5086C48.2751 42.7159 48.8866 42.4242 49.0939 41.8502L50.2514 38.6089C50.4587 38.0349 50.1669 37.4235 49.5929 37.2162L44.4185 35.393C44.1315 35.2893 43.8437 35.2957 43.5718 35.4376C43.5463 35.4543 43.4953 35.4878 43.4698 35.5046Z" fill="#1A2E35"/>
<path d="M49.8905 40.4501C49.8394 40.4836 49.7972 40.4748 49.7549 40.4661L42.2854 37.7038C42.2009 37.6862 42.1762 37.5929 42.1937 37.5084C42.2112 37.4239 42.3045 37.3992 42.389 37.4168L49.8586 40.1791C49.9431 40.1966 49.9678 40.2899 49.9502 40.3744C49.9247 40.3911 49.916 40.4334 49.8905 40.4501Z" fill="#1A2E35"/>
<path d="M45.1667 41.8712C45.1157 41.9047 45.0734 41.8959 45.0312 41.8872C44.9467 41.8696 44.922 41.7763 44.9395 41.6918L46.9349 36.1124C46.9525 36.0279 47.0457 36.0032 47.1302 36.0207C47.2147 36.0383 47.2394 36.1315 47.2219 36.216L45.2265 41.7955C45.2177 41.8377 45.1922 41.8545 45.1667 41.8712Z" fill="#1A2E35"/>
<path d="M73.0416 67.6638L72.6709 68.6005L57.3587 63.1747L57.6871 62.2293L73.0416 67.6638Z" fill="#1A2E35"/>
<path d="M73.6121 66.0868L73.2669 67.0067L57.9379 61.5555L58.2831 60.6355L73.6121 66.0868Z" fill="#1A2E35"/>
<path d="M74.2074 64.4916L73.8622 65.4115L58.5078 59.977L58.8362 59.0315L74.2074 64.4916Z" fill="#1A2E35"/>
<path d="M74.8024 62.8957L74.4317 63.8324L59.2885 58.4417L59.6337 57.5218L74.8024 62.8957Z" fill="#1A2E35"/>
<path d="M75.4249 61.1745L75.0797 62.0945L59.8855 56.7372L60.2395 55.7751L75.4249 61.1745Z" fill="#1A2E35"/>
<path d="M67.138 48.5465L66.8095 49.4919L51.6153 44.1347L51.9693 43.1725L67.138 48.5465Z" fill="#1A2E35"/>
<path d="M37.0559 41.4057L36.5363 42.8726L79.3046 58.021L79.8242 56.5541L37.0559 41.4057Z" fill="#1A2E35"/>
<path d="M74.1388 70.4488C73.0419 71.1686 71.6269 71.4038 70.2932 70.9287L35.423 58.5568C34.8491 58.3496 34.3014 58.0155 33.8646 57.5723C32.6289 56.4124 32.2104 54.6068 32.7892 52.9861L39.2609 34.6518C39.6412 33.5629 40.4431 32.6716 41.4962 32.1631C42.5493 31.6545 43.7259 31.6122 44.8149 31.9925L79.685 44.3643C80.774 44.7446 81.6652 45.5465 82.1738 46.5996C82.6824 47.6527 82.7246 48.8293 82.3444 49.9183L75.8472 68.2693C75.5275 69.1725 74.9041 69.9466 74.1388 70.4488ZM41.1367 32.7275C40.3969 33.2129 39.8333 33.9113 39.5479 34.7555L33.0762 53.0898C32.5492 54.5669 32.9263 56.2538 34.0862 57.3539C34.5063 57.7716 34.995 58.0714 35.5522 58.2531L70.4223 70.6249C72.5157 71.3679 74.8595 70.2678 75.5857 68.1489L82.0574 49.8146C82.4201 48.8102 82.3436 47.6925 81.8852 46.716C81.4269 45.7394 80.6114 44.9973 79.5814 44.6513L44.7113 32.2795C43.7068 31.9167 42.5892 31.9933 41.6126 32.4516C41.4428 32.5266 41.2897 32.627 41.1367 32.7275Z" fill="#1A2E35"/>
<path d="M113.567 120.521C113.567 120.521 132.159 115.984 129.05 101.346C129.05 101.346 116.215 97.3601 115.464 87.7071C114.983 81.6357 115.307 67.3359 115.307 67.3359C115.307 67.3359 116.381 62.7992 115.474 59.526C115.474 59.526 113.014 56.8338 109.532 56.1993C109.532 56.1993 108.502 54.6854 106.734 54.6049C104.966 54.5243 101.667 54.2804 101.667 54.2804C101.667 54.2804 92.3949 47.9929 90.8213 46.7629C89.2477 45.5328 86.2511 43.3022 83.5726 40.3885C80.8941 37.4748 78.0737 34.2892 76.968 35.0513C76.968 35.0513 75.4598 35.3112 76.8325 37.403C76.8325 37.403 75.195 40.3023 77.3267 42.772C79.4583 45.2417 80.7194 46.3849 81.6218 47.9824C82.5242 49.58 86.4575 54.517 88.7701 55.3716C88.7701 55.3716 94.033 62.5016 95.9175 64.0386C95.9765 64.0729 96.01 64.1239 96.069 64.1582C97.7781 65.3723 95.4845 75.8919 93.12 79.8522C93.12 79.8522 93.2149 80.7754 91.7289 81.4585C90.2597 82.1672 87.9224 83.5551 86.8613 82.828C85.8258 82.0843 78.0757 76.0025 78.0757 76.0025C78.0757 76.0025 69.3793 67.3666 65.1702 70.1287C65.1702 70.1287 63.528 69.0167 62.4223 70.9466C61.3166 72.8766 65.4101 76.723 67.7482 78.7288C70.1285 80.7433 76.2676 86.094 78.5491 88.9033C80.8306 91.7126 83.0889 98.88 85.309 100.817C87.5292 102.754 89.2726 103.91 93.9002 106.457C98.4856 108.995 110.627 117.597 113.567 120.521Z" fill="white"/>
<path d="M113.735 120.777C113.633 120.844 113.481 120.834 113.363 120.765C113.253 120.655 102.095 110.714 92.3546 106.048C85.2199 102.629 83.62 99.1894 81.753 95.2322C81.0117 93.602 80.2113 91.9375 78.9892 90.0752C76.9302 86.9375 72.8678 83.4721 69.2845 80.4588C65.348 77.1297 61.9584 74.2447 61.862 72.3737C61.7887 70.816 62.3858 70.1687 62.9295 69.8849C64.1954 69.2001 66.2712 70.0276 67.7356 71.1469C68.8804 72.0015 69.4655 73.0043 69.4751 74.0199C69.4926 75.1033 68.8333 76.1564 67.5993 77.1122C67.4717 77.1959 67.2772 77.1775 67.168 77.0667C67.0675 76.9137 67.1026 76.7447 67.2134 76.6354C68.2856 75.8223 68.8509 74.904 68.8572 74.0239C68.8549 73.1861 68.3614 72.3785 67.3681 71.6435C65.7857 70.4557 64.0798 69.9694 63.2132 70.4286C62.6696 70.7124 62.428 71.3453 62.4631 72.3442C62.5444 73.9696 65.9929 76.8889 69.6687 79.9876C73.2855 83.052 77.3901 86.5262 79.4994 89.7404C80.7382 91.6282 81.5298 93.3349 82.2879 94.9907C84.1629 99.0157 85.6209 102.183 92.5954 105.526C102.395 110.226 113.629 120.226 113.738 120.337C113.847 120.447 113.871 120.651 113.76 120.76C113.786 120.743 113.76 120.76 113.735 120.777Z" fill="#1A2E35"/>
<path d="M92.18 85.8721C92.1035 85.9223 92.0102 85.947 91.909 85.904C88.3201 84.8286 82.3054 79.8342 77.4681 75.8554C75.3397 74.1135 73.5142 72.6108 72.1757 71.6279C67.8399 68.5244 65.4156 70.2248 65.3136 70.2917C65.186 70.3755 64.9915 70.3571 64.8823 70.2463C64.7986 70.1188 64.817 69.9242 64.9278 69.815C65.0553 69.7313 67.8032 67.7456 72.501 71.1225C73.8817 72.1142 75.7072 73.6169 77.8357 75.3587C82.6139 79.3032 88.6206 84.2299 92.0828 85.279C92.2518 85.3141 92.3434 85.5094 92.2916 85.6529C92.282 85.8051 92.231 85.8386 92.18 85.8721Z" fill="#1A2E35"/>
<path d="M93.112 80.9536C89.8213 83.1131 87.0861 83.3387 86.9347 83.2192C86.8 83.1251 86.7505 82.9386 86.8446 82.8038C86.8877 82.7026 87.0064 82.6611 87.1165 82.6619C87.3365 82.6635 92.4599 82.1844 97.0797 76.4887C97.1737 76.3539 97.377 76.33 97.5285 76.4496C97.6632 76.5437 97.6871 76.747 97.5675 76.8984C96.0903 78.7072 94.5406 80.0161 93.112 80.9536Z" fill="#1A2E35"/>
<path d="M74.2185 82.8043C74.193 82.821 74.1675 82.8378 74.1252 82.829C74.0407 82.8115 73.965 82.7517 73.9825 82.6672C74.1013 81.4579 74.9049 80.3466 76.017 79.8723C76.0935 79.8221 76.1947 79.8651 76.2195 79.9584C76.2697 80.0349 76.2266 80.1362 76.1334 80.1609C75.1401 80.5937 74.3963 81.6293 74.2871 82.6863C74.2783 82.7286 74.244 82.7875 74.2185 82.8043Z" fill="#1A2E35"/>
<path d="M75.6588 83.8317C75.6332 83.8484 75.6077 83.8651 75.5655 83.8564C75.481 83.8388 75.4308 83.7623 75.4228 83.6945C75.5232 82.6797 76.275 81.7119 77.2675 81.3891C77.3607 81.3644 77.4197 81.3987 77.47 81.4752C77.4947 81.5685 77.4604 81.6275 77.3839 81.6777C76.5101 81.9591 75.827 82.8089 75.7441 83.7392C75.693 83.7727 75.6843 83.8149 75.6588 83.8317Z" fill="#1A2E35"/>
<path d="M92.5176 81.2693C92.4155 81.3363 92.28 81.3522 92.1875 81.2669C92.0528 81.1728 92.0034 80.9863 92.123 80.8348C95.629 75.8334 96.5076 66.7168 95.7973 64.2998C95.2433 63.678 90.5679 58.3886 88.8603 55.7866C86.3676 54.1013 82.3386 50.687 81.3589 48.0818C81.068 47.3603 80.1863 46.4061 79.2456 45.4176C77.0454 43.0659 74.2824 40.1346 76.5887 37.1978C76.6828 37.0631 76.8861 37.0392 77.0208 37.1333C77.1555 37.2273 77.1794 37.4306 77.0854 37.5653C75.0868 40.0812 77.5389 42.7056 79.6889 44.9807C80.6965 46.0713 81.5869 46.9833 81.8938 47.8402C82.8409 50.2844 86.8865 53.7243 89.2278 55.29C89.2701 55.2987 89.3036 55.3498 89.3203 55.3753C91.0446 58.0028 96.2405 63.8629 96.274 63.9139C96.2908 63.9395 96.3242 63.9905 96.341 64.016C97.0935 66.4418 96.2372 75.9817 92.5861 81.1513C92.5686 81.2358 92.5431 81.2526 92.5176 81.2693Z" fill="#1A2E35"/>
<path d="M82.3776 41.7933C81.7398 42.2118 80.6652 42.187 79.5723 41.189C77.8655 39.6448 76.0799 37.313 76.209 35.8414C76.2377 35.3847 76.4689 35.014 76.8261 34.7796C78.4332 33.7249 81.4186 37.4956 82.0221 38.304C83.3151 39.7182 83.272 40.9873 82.6327 41.6259C82.5306 41.6928 82.4541 41.743 82.3776 41.7933ZM77.1186 35.281C76.9145 35.415 76.7862 35.6087 76.7758 35.8709C76.6993 37.089 78.3423 39.259 79.9565 40.7178C80.8645 41.5453 81.7614 41.5772 82.1536 41.1738C82.5713 40.7537 82.5442 39.8226 81.5198 38.7066L81.5031 38.6811C80.187 36.9536 77.9605 34.7286 77.1186 35.281Z" fill="#1A2E35"/>
<path d="M95.8739 50.236C95.7718 50.303 95.6618 50.3022 95.5438 50.2336C90.4722 47.0656 81.6292 38.8179 81.5367 38.7326C81.4275 38.6218 81.4036 38.4185 81.5144 38.3093C81.6252 38.2001 81.8285 38.1762 81.9377 38.287C82.0301 38.3723 90.8142 46.5857 95.8436 49.745C95.9783 49.839 96.0277 50.0256 95.9337 50.1603C95.9504 50.1858 95.8994 50.2193 95.8739 50.236Z" fill="#1A2E35"/>
<path d="M106.718 63.8131C106.667 63.8466 106.616 63.8801 106.574 63.8713C106.396 63.8785 106.27 63.7422 106.263 63.5644C106.212 61.2622 105.641 59.447 104.742 57.2994C103.837 56.1418 99.8981 53.1428 95.5439 50.2339C95.4092 50.1398 95.3597 49.9532 95.4538 49.8185C95.5479 49.6838 95.7344 49.6344 95.8691 49.7285C99.7179 52.3122 104.188 55.6197 105.21 56.9558C105.227 56.9813 105.244 57.0068 105.261 57.0323C106.176 59.2054 106.779 61.1816 106.838 63.5517C106.854 63.6872 106.794 63.7629 106.718 63.8131Z" fill="#1A2E35"/>
<path d="M111.075 63.9454C111.024 63.9789 110.999 63.9956 110.931 64.0036C110.753 64.0108 110.627 63.8745 110.595 63.7134C110.428 61.0126 109.837 58.4441 108.854 56.2789C108.13 54.6742 106.064 54.7523 104.058 54.8647C103.389 54.9021 102.678 54.9308 102.052 54.867C101.9 54.8575 101.757 54.6956 101.767 54.5434C101.776 54.3911 101.938 54.2484 102.09 54.258C102.699 54.2962 103.343 54.2755 104.012 54.2381C106.103 54.1432 108.498 54.0675 109.389 56.0374C110.422 58.279 111.038 60.9408 111.196 63.6839C111.195 63.7939 111.152 63.8952 111.075 63.9454Z" fill="#1A2E35"/>
<path d="M129.926 101.904C129.849 101.954 129.756 101.979 129.655 101.936C129.208 101.755 118.482 97.5894 115.989 91.2327C114.526 87.5577 114.706 80.2133 114.902 73.1144C114.95 71.1852 114.99 69.1883 115.02 67.3436C115.003 67.3181 115.029 67.3013 115.037 67.2591C115.84 63.9221 115.924 61.7139 115.245 59.6779C112.346 56.7626 110.638 56.6063 109.15 56.4516C108.997 56.4421 108.855 56.2803 108.864 56.128C108.874 55.9757 109.036 55.833 109.188 55.8426C110.718 56.006 112.621 56.1806 115.721 59.2921C115.738 59.3176 115.772 59.3686 115.805 59.4196C116.543 61.5999 116.483 63.9014 115.654 67.3651C115.65 69.193 115.584 71.2067 115.562 73.1192C115.401 80.1591 115.213 87.4357 116.608 91.0087C119.001 97.1024 129.829 101.311 129.93 101.354C130.073 101.406 130.165 101.601 130.113 101.744C130.037 101.795 129.977 101.87 129.926 101.904Z" fill="#1A2E35"/>
<path d="M98.9032 59.6357C98.8266 59.6859 98.6911 59.7019 98.5899 59.6588C98.4296 59.5815 98.3802 59.395 98.432 59.2515C99.1455 57.7249 100.517 56.5331 102.12 56.0285C102.281 55.9958 102.441 56.0731 102.499 56.2174C102.532 56.3785 102.455 56.5387 102.31 56.5969C100.877 57.0266 99.6334 58.1346 98.9805 59.4755C98.9885 59.5432 98.9542 59.6022 98.9032 59.6357Z" fill="#1A2E35"/>
<path d="M100.973 60.0642C100.871 60.1312 100.761 60.1304 100.66 60.0874C100.5 60.01 100.451 59.8235 100.528 59.6633C101 58.7696 101.767 58.0474 102.692 57.6225C102.837 57.5643 103.022 57.6249 103.08 57.7692C103.139 57.9135 103.078 58.0992 102.934 58.1574C102.153 58.5241 101.471 59.1539 101.068 59.9295C101.033 59.9885 101.025 60.0308 100.973 60.0642Z" fill="#1A2E35"/>
</g>
<defs>
<clipPath id="clip0">
<rect width="129.337" height="140" fill="white"/>
</clipPath>
</defs>
</svg>
