<svg width="133" height="124" viewBox="0 0 133 124" fill="none" xmlns="http://www.w3.org/2000/svg">
<path d="M6.38183 31.9425C16.0047 14.2003 40.2291 -6.48228 73.4749 2.13824C106.721 10.7588 129.174 29.0022 125.499 60.711C121.823 92.4533 102.477 118.816 60.8448 119.585C19.179 120.353 -14.7351 70.8017 6.38183 31.9425Z" fill="#EEEEEE"/>
<path opacity="0.2" d="M75.0543 83.7289C75.0543 83.7289 83.3022 95.5951 86.8553 97.1665C90.3827 98.7592 106.273 116.62 107.575 119.401C107.575 119.401 112.744 116.949 113.141 114.02C113.585 111.096 117.4 110.414 120.44 105.386C123.48 100.359 93.0778 69.8713 93.0778 69.8713L83.2651 57.7379L71.0144 57.2868L75.0543 83.7289Z" fill="black" fill-opacity="0.7"/>
<path d="M85.1738 84.3803C85.2332 84.5046 85.2455 84.6245 85.2153 84.6928C85.0164 86.2878 81.9367 90.4809 79.1635 93.9437C76.8505 96.8094 74.8006 99.1543 74.8006 99.1543C74.8006 99.1543 60.3696 85.4197 59.0497 83.8229C57.7299 82.2262 33.3313 58.7406 33.3313 58.7406L40.1579 52.5773L49.243 44.3738C49.243 44.3738 49.8693 45.0265 50.9728 46.1518C57.9258 53.4095 83.7994 80.3577 85.1738 84.3803Z" fill="#FFD57B"/>
<path opacity="0.2" d="M85.1738 84.3803L78.312 92.9136L75.7281 96.1333C74.197 96.0117 73.5319 96.5182 73.5319 96.5182L71.3585 94.4132L67.7958 90.9423L36.5036 60.3233C36.8292 59.1439 36.2575 57.6656 36.2575 57.6656L40.8728 53.547L48.8841 46.4044L50.9728 46.1518C57.9258 53.4095 83.7994 80.3577 85.1738 84.3803Z" fill="black" fill-opacity="0.7"/>
<path fill-rule="evenodd" clip-rule="evenodd" d="M48.7729 46.2801C48.7984 46.2574 48.8302 46.243 48.864 46.2389L50.9528 45.9863C51.0049 45.98 51.0571 45.9986 51.0934 46.0366C51.2383 46.1877 51.3913 46.3474 51.5521 46.5153C55.2524 50.3771 63.0904 58.5573 70.2881 66.3663C74.0432 70.4404 77.6253 74.4148 80.355 77.6228C81.7198 79.2266 82.8728 80.6405 83.7284 81.7805C84.1561 82.3504 84.5107 82.8535 84.7806 83.2786C85.0489 83.7013 85.2393 84.0559 85.3318 84.3267C85.3504 84.3809 85.3398 84.4408 85.304 84.4854L78.4423 93.0185L75.8584 96.2382C75.8237 96.2814 75.77 96.3046 75.7149 96.3002C74.97 96.2411 74.4423 96.3351 74.1055 96.44C73.9369 96.4925 73.8154 96.548 73.7378 96.589C73.699 96.6095 73.6711 96.6264 73.6538 96.6375C73.6497 96.6402 73.6462 96.6425 73.6432 96.6445C73.64 96.6466 73.6375 96.6484 73.6357 96.6496L73.6331 96.6514C73.5674 96.7015 73.475 96.696 73.4157 96.6385L71.2422 94.5336L71.2419 94.5333L67.6792 91.0624L36.3868 60.4431C36.3433 60.4006 36.3264 60.3378 36.3426 60.2792C36.4951 59.7265 36.4391 59.0924 36.3387 58.5849C36.289 58.3333 36.2293 58.1174 36.1821 57.9647C36.1585 57.8884 36.1382 57.8281 36.1238 57.7871C36.1166 57.7667 36.1109 57.7511 36.1071 57.7408L36.1029 57.7294L36.1019 57.7267L36.1017 57.7262C36.0766 57.6613 36.0944 57.5876 36.1463 57.5413L48.7729 46.2801ZM36.4526 57.7157C36.4664 57.7561 36.483 57.8066 36.5013 57.8661C36.5512 58.0273 36.614 58.2547 36.6665 58.5201C36.7653 59.0198 36.8307 59.6709 36.6893 60.2716L67.9126 90.8233L71.4747 94.2936L71.475 94.2939L73.5548 96.3081C73.5633 96.3034 73.5723 96.2986 73.5817 96.2936C73.6767 96.2434 73.8171 96.1799 74.0062 96.121C74.3703 96.0076 74.912 95.9122 75.6527 95.9607L78.1817 92.8094L84.9842 84.3498C84.8949 84.1253 84.7328 83.8267 84.4985 83.4577C84.235 83.0426 83.886 82.5472 83.4612 81.9811C82.6115 80.849 81.4634 79.4409 80.1006 77.8393C77.3752 74.6364 73.7966 70.6658 70.0424 66.5928C62.847 58.7863 55.0111 50.6082 51.3108 46.7463C51.1712 46.6007 51.0375 46.4611 50.91 46.328L48.9562 46.5644L36.4526 57.7157Z" fill="#1A2E35"/>
<path d="M64.5343 84.7944L67.2899 82.5166L67.9924 83.3665L67.4797 84.2671L65.8518 85.9162L64.5343 84.7944Z" fill="#FFD57B"/>
<path fill-rule="evenodd" clip-rule="evenodd" d="M64.3672 84.7931C64.3676 84.7437 64.3898 84.697 64.4278 84.6655L67.1835 82.3877C67.2546 82.3289 67.3599 82.3389 67.4187 82.41L68.1212 83.2599C68.1654 83.3134 68.1719 83.3886 68.1376 83.449L67.6249 84.3496C67.6177 84.3623 67.6089 84.3739 67.5986 84.3843L65.9706 86.0335C65.9092 86.0957 65.8101 86.1 65.7434 86.0433L64.426 84.9215C64.3884 84.8895 64.3669 84.8425 64.3672 84.7931ZM64.7942 84.7962L65.8419 85.6883L67.3454 84.1652L67.7902 83.3839L67.2676 82.7517L64.7942 84.7962Z" fill="#1A2E35"/>
<path d="M66.1836 86.4225L68.1285 84.6847L68.8822 84.4952L69.7932 85.6496L67.4451 87.6339L66.1836 86.4225Z" fill="#FFD57B"/>
<path fill-rule="evenodd" clip-rule="evenodd" d="M68.0172 84.5605C68.0374 84.5425 68.0616 84.5297 68.0878 84.5231L68.8415 84.3336C68.9053 84.3175 68.9726 84.3404 69.0134 84.3921L69.9243 85.5465C69.9801 85.6172 69.9698 85.7194 69.901 85.7776L67.553 87.7618C67.4876 87.8171 67.3911 87.814 67.3294 87.7547L66.0679 86.5433C66.0344 86.5111 66.0158 86.4663 66.0166 86.4198C66.0175 86.3733 66.0376 86.3292 66.0723 86.2982L68.0172 84.5605ZM66.4294 86.4272L67.4523 87.4095L69.5619 85.6267L68.8181 84.684L68.2092 84.8371L66.4294 86.4272Z" fill="#1A2E35"/>
<path d="M68.0036 87.9953L70.1937 85.9249L70.8705 86.796L70.1037 88.1235L68.8552 89.0255L68.0036 87.9953Z" fill="#FFD57B"/>
<path fill-rule="evenodd" clip-rule="evenodd" d="M70.2065 85.7582C70.2535 85.7618 70.2967 85.7851 70.3256 85.8223L71.0024 86.6934C71.0441 86.7471 71.0491 86.8206 71.0151 86.8795L70.2483 88.2069C70.2366 88.2273 70.2206 88.245 70.2015 88.2587L68.953 89.1607C68.8816 89.2123 68.7825 89.1996 68.7264 89.1318L67.8749 88.1016C67.8188 88.0339 67.8249 87.9342 67.8889 87.8738L70.0789 85.8034C70.1132 85.771 70.1595 85.7546 70.2065 85.7582ZM68.232 88.0092L68.8842 88.7982L69.9769 88.0088L70.6696 86.8096L70.1747 86.1726L68.232 88.0092Z" fill="#1A2E35"/>
<path d="M69.3717 89.3356L71.3111 87.9058L71.8745 88.2204L72.0383 88.9953L70.4495 90.4821L69.485 89.8922L69.3717 89.3356Z" fill="#FFD57B"/>
<path fill-rule="evenodd" clip-rule="evenodd" d="M69.208 89.3687C69.195 89.305 69.2202 89.2395 69.2725 89.2009L71.2119 87.7712C71.2647 87.7323 71.3353 87.7279 71.3925 87.7598L71.956 88.0743C71.9981 88.0979 72.028 88.1385 72.038 88.1857L72.2018 88.9607C72.2138 89.0179 72.1951 89.0772 72.1524 89.1172L70.5636 90.6039C70.5088 90.6553 70.4264 90.6637 70.3623 90.6245L69.3978 90.0345C69.3582 90.0103 69.3305 89.9708 69.3212 89.9253L69.208 89.3687ZM69.5566 89.4066L69.6342 89.7874L70.4282 90.2731L71.8554 88.9376L71.7268 88.3291L71.3236 88.104L69.5566 89.4066Z" fill="#1A2E35"/>
<path d="M72.8929 89.2428C73.183 89.4364 73.4776 89.583 73.7678 89.7767C73.947 89.8886 74.1688 90.0521 74.1936 90.2918C74.2227 90.4844 74.0637 90.6592 73.9137 90.7399C73.7379 90.8418 73.5878 90.9225 73.412 91.0245C72.9529 91.3606 72.8646 92.0405 72.363 92.3251C71.8253 91.9893 70.834 91.6816 71.2302 91.0073C71.3377 90.8751 73.1192 89.3592 72.8929 89.2428Z" fill="#FFD57B"/>
<path fill-rule="evenodd" clip-rule="evenodd" d="M72.7488 89.1579C72.7938 89.0816 72.8905 89.0536 72.9693 89.0941C72.9791 89.0991 72.9887 89.1051 72.9978 89.1118C73.1339 89.202 73.2718 89.2823 73.4143 89.3652L73.4163 89.3664C73.5605 89.4503 73.7097 89.5371 73.8584 89.6362C73.9507 89.694 74.0644 89.7713 74.1594 89.8709C74.2551 89.9711 74.3409 90.1035 74.3593 90.2707C74.3806 90.4199 74.3284 90.5531 74.2573 90.6539C74.1866 90.7543 74.0898 90.8342 73.9953 90.8855C73.9071 90.9366 73.8255 90.9824 73.7449 91.0276L73.7445 91.0278C73.6654 91.0721 73.5874 91.1158 73.5038 91.1642C73.3215 91.3006 73.2054 91.5031 73.068 91.7428C73.0615 91.7542 73.0549 91.7657 73.0483 91.7772C72.908 92.0214 72.7409 92.3026 72.4453 92.4703C72.392 92.5006 72.3264 92.4992 72.2744 92.4667C72.1748 92.4045 72.0596 92.3437 71.9344 92.2777C71.8986 92.2588 71.862 92.2395 71.8247 92.2197C71.662 92.1329 71.4894 92.0364 71.3448 91.9257C71.2017 91.8162 71.0683 91.6797 71.0069 91.5061C70.942 91.3226 70.9668 91.1256 71.0861 90.9225C71.0904 90.9153 71.0952 90.9083 71.1005 90.9018C71.1233 90.8738 71.1739 90.826 71.2281 90.7757C71.2855 90.7225 71.3606 90.6541 71.4461 90.5763L71.4547 90.5685C71.6334 90.4059 71.8578 90.2016 72.0714 89.998C72.2862 89.7935 72.4856 89.594 72.6165 89.4405C72.6729 89.3743 72.7108 89.3233 72.7321 89.288C72.7201 89.2456 72.7249 89.1987 72.7488 89.1579ZM72.9908 89.503C72.9571 89.5524 72.9156 89.6047 72.8708 89.6573C72.7279 89.8249 72.5177 90.0344 72.3019 90.24C72.0851 90.4465 71.858 90.6532 71.6796 90.8156L71.6719 90.8226C71.5856 90.9011 71.5116 90.9685 71.4554 91.0206C71.4265 91.0475 71.4031 91.0695 71.3856 91.0866C71.3765 91.0954 71.3702 91.1017 71.3661 91.1059C71.2955 91.2326 71.2965 91.3229 71.3219 91.3946C71.3517 91.4788 71.4254 91.5667 71.5478 91.6604C71.6687 91.7529 71.8199 91.8384 71.982 91.9249C72.0153 91.9426 72.0492 91.9605 72.0834 91.9785C72.1767 92.0277 72.2715 92.0777 72.3593 92.1283C72.5211 92.008 72.6337 91.8281 72.7585 91.6108C72.768 91.5943 72.7775 91.5776 72.7872 91.5607C72.9168 91.3336 73.0674 91.0696 73.3132 90.8896C73.318 90.8861 73.323 90.8828 73.3281 90.8799C73.4171 90.8283 73.4995 90.7821 73.5807 90.7366L73.5811 90.7363C73.6627 90.6906 73.7431 90.6455 73.8298 90.5952L73.8345 90.5926C73.8892 90.5632 73.9458 90.5159 73.9842 90.4615C74.0222 90.4075 74.0346 90.3584 74.0283 90.3167C74.0279 90.3141 74.0276 90.3114 74.0273 90.3088C74.02 90.2381 73.9832 90.1702 73.9177 90.1016C73.8516 90.0323 73.7658 89.9723 73.6792 89.9183L73.675 89.9155C73.5349 89.822 73.3931 89.7395 73.2462 89.654L73.2443 89.6529C73.1611 89.6045 73.0763 89.5551 72.9908 89.503Z" fill="#1A2E35"/>
<path d="M74.6384 91.354C74.8389 91.4917 75.0137 91.6507 75.1627 91.8309C75.3801 92.0414 75.5885 92.346 75.5146 92.6238C75.4755 92.7862 75.3467 92.8926 75.2393 93.0248C74.7925 93.4808 74.2987 93.9323 73.852 94.3883C73.8263 94.4096 73.1876 93.637 73.1237 93.5597C72.9243 93.1611 72.894 93.2294 73.0966 92.8452C73.4671 92.1921 74.3362 92.0373 74.6384 91.354Z" fill="#FFD57B"/>
<path fill-rule="evenodd" clip-rule="evenodd" d="M74.5928 91.1936C74.6406 91.18 74.692 91.1885 74.7329 91.2166C74.9431 91.3609 75.1276 91.528 75.2856 91.7178C75.4005 91.83 75.5172 91.9709 75.5966 92.1265C75.677 92.2839 75.7271 92.4726 75.6766 92.6652C75.6487 92.779 75.5907 92.8679 75.5332 92.9401C75.5046 92.976 75.4741 93.0102 75.4467 93.0409L75.4447 93.0432C75.417 93.074 75.3922 93.1018 75.3689 93.1306C75.3656 93.1346 75.3622 93.1384 75.3586 93.1421C75.1336 93.3718 74.897 93.6 74.6625 93.8263L74.6616 93.8271C74.4262 94.0543 74.1928 94.2795 73.9713 94.5056C73.9672 94.5097 73.9629 94.5137 73.9584 94.5174C73.9146 94.5537 73.8664 94.5577 73.8385 94.5557C73.812 94.5538 73.7919 94.5461 73.7822 94.542C73.7623 94.5335 73.7474 94.5228 73.741 94.5181C73.726 94.507 73.7116 94.4937 73.7003 94.4829C73.6761 94.4597 73.6457 94.4276 73.6129 94.3917C73.5465 94.3189 73.4608 94.2202 73.3751 94.1198C73.2033 93.9186 73.027 93.7053 72.995 93.6666L72.995 93.6665C72.9869 93.6568 72.98 93.6462 72.9743 93.6348C72.9502 93.5866 72.9285 93.5453 72.9092 93.5086C72.9068 93.5041 72.9044 93.4996 72.9021 93.4952C72.8858 93.4642 72.8704 93.435 72.8573 93.4088C72.8284 93.3508 72.7995 93.286 72.793 93.2122C72.786 93.1336 72.8056 93.0647 72.8332 92.9987C72.8575 92.9407 72.8943 92.8709 72.9385 92.7872C72.9419 92.7808 72.9453 92.7742 72.9488 92.7676L72.9513 92.7631C73.1482 92.416 73.4695 92.1974 73.7514 92.0057C73.7674 91.9948 73.7832 91.984 73.7989 91.9733C74.1042 91.7648 74.3563 91.5791 74.4856 91.2868C74.5057 91.2413 74.545 91.2072 74.5928 91.1936ZM73.2431 92.9258C73.2419 92.9282 73.2407 92.9305 73.2394 92.9329C73.1898 93.0269 73.1597 93.084 73.1414 93.1277C73.1244 93.1684 73.1255 93.1798 73.1258 93.1824C73.1258 93.1825 73.1258 93.1826 73.1258 93.1826C73.1264 93.1896 73.1298 93.2065 73.1564 93.2598C73.1676 93.2823 73.1809 93.3076 73.1976 93.3392C73.1999 93.3436 73.2023 93.3481 73.2048 93.3528C73.2222 93.3859 73.2422 93.4241 73.2645 93.4682C73.3159 93.5303 73.4746 93.7218 73.6292 93.9029C73.7095 93.9969 73.7876 94.0869 73.8487 94.1543C74.0383 93.9643 74.2342 93.7752 74.4287 93.5875L74.4296 93.5867C74.6632 93.3613 74.8948 93.1378 75.1147 92.9136C75.1415 92.8809 75.169 92.8501 75.1937 92.8225L75.1975 92.8183C75.2257 92.7867 75.25 92.7594 75.2719 92.7319C75.3151 92.6776 75.3407 92.6327 75.3522 92.585L75.3531 92.5812L75.3532 92.5812C75.3756 92.4966 75.3585 92.3949 75.2991 92.2784C75.24 92.1627 75.1468 92.0485 75.0465 91.9513C75.042 91.947 75.0378 91.9425 75.0339 91.9377C74.9333 91.816 74.8199 91.7045 74.6934 91.603C74.5092 91.889 74.2357 92.0797 73.9873 92.2492C73.978 92.2556 73.9687 92.262 73.9594 92.2683C73.6617 92.4714 73.4008 92.6494 73.2431 92.9258Z" fill="#1A2E35"/>
<path fill-rule="evenodd" clip-rule="evenodd" d="M39.0102 59.2925C39.0749 59.2267 39.1806 59.2257 39.2465 59.2903L39.1294 59.4095L39.0124 59.5288C38.9466 59.4641 38.9456 59.3583 39.0102 59.2925ZM39.1294 59.4095C39.0124 59.5288 39.0124 59.5287 39.0124 59.5288L39.2314 59.744C39.3714 59.8818 39.5725 60.0797 39.8165 60.3205C40.3047 60.8021 40.9648 61.455 41.653 62.1401C43.0325 63.5134 44.5159 65.0079 44.9602 65.5194C45.0207 65.589 45.1262 65.5965 45.1958 65.536C45.2655 65.4755 45.2729 65.3699 45.2124 65.3003C44.7581 64.7772 43.2631 63.2715 41.8888 61.9033C41.2001 61.2177 40.5395 60.5645 40.0512 60.0827C39.807 59.8418 39.6058 59.6437 39.4657 59.5058L39.2465 59.2903C39.2464 59.2903 39.2465 59.2903 39.1294 59.4095Z" fill="#1A2E35"/>
<path fill-rule="evenodd" clip-rule="evenodd" d="M40.2658 58.3421C40.3316 58.2775 40.4374 58.2784 40.5021 58.3442L43.229 61.1187C43.2937 61.1845 43.2927 61.2903 43.2269 61.355C43.1611 61.4197 43.0554 61.4187 42.9907 61.3529L40.2638 58.5784C40.1991 58.5126 40.2 58.4068 40.2658 58.3421Z" fill="#1A2E35"/>
<path d="M43.6438 53.8574L46.8737 57.0832L47.4056 56.7302L44.3347 53.3297L43.6438 53.8574Z" fill="#FFD57B"/>
<path fill-rule="evenodd" clip-rule="evenodd" d="M43.4771 53.8467C43.4803 53.7986 43.5041 53.7543 43.5424 53.725L44.2333 53.1973C44.3024 53.1445 44.4004 53.1535 44.4587 53.2181L47.5297 56.6186C47.5622 56.6547 47.5775 56.7032 47.5714 56.7514C47.5654 56.7997 47.5386 56.8429 47.498 56.8697L46.9661 57.2227C46.8999 57.2667 46.8119 57.2579 46.7557 57.2017L43.5258 53.976C43.4917 53.9419 43.474 53.8948 43.4771 53.8467ZM43.8971 53.8746L46.8952 56.8688L47.1517 56.6986L44.3138 53.5562L43.8971 53.8746Z" fill="#1A2E35"/>
<path opacity="0.2" d="M85.1735 84.3806C85.2329 84.5049 85.2453 84.6247 85.2151 84.693C85.0162 86.288 81.9364 90.4812 79.1633 93.944L77.2474 91.6262L71.3582 94.4135L70.4624 94.8505L67.7956 90.9425L57.5833 76.0183L40.8514 53.5214L40.1365 52.5517L49.2216 44.3482C49.2216 44.3482 49.8479 45.0009 50.9514 46.1262C57.9256 53.4097 83.7992 80.3579 85.1735 84.3806Z" fill="black" fill-opacity="0.7"/>
<path fill-rule="evenodd" clip-rule="evenodd" d="M49.131 44.2501C49.198 44.1896 49.301 44.1933 49.3635 44.2585L49.4783 44.3777C49.5542 44.4564 49.6669 44.5731 49.814 44.7249C50.1083 45.0285 50.5405 45.4728 51.0921 46.0352L51.0934 46.0365C51.2383 46.1877 51.3913 46.3475 51.5521 46.5153C55.2524 50.3771 63.0904 58.5573 70.2881 66.3663C74.0432 70.4404 77.6253 74.4148 80.355 77.6228C81.7197 79.2266 82.8728 80.6406 83.7284 81.7805C84.1561 82.3504 84.5107 82.8535 84.7806 83.2786C85.046 83.6967 85.2351 84.0481 85.3288 84.3178C85.3628 84.3912 85.385 84.4662 85.3939 84.5372C85.4017 84.5998 85.4003 84.6695 85.3784 84.7342C85.3196 85.164 85.0783 85.7408 84.723 86.4035C84.3591 87.0821 83.8653 87.8694 83.2929 88.7121C82.148 90.3978 80.6817 92.3156 79.2939 94.0485L79.2935 94.049C78.1359 95.4832 77.0442 96.787 76.242 97.7321C75.8409 98.2047 75.5121 98.5877 75.2835 98.8526C75.1692 98.9851 75.0799 99.088 75.0193 99.1579L74.9501 99.2374L74.9324 99.2577L74.9264 99.2645C74.9264 99.2645 74.9263 99.2646 74.8005 99.1546C74.6854 99.2756 74.6853 99.2756 74.6852 99.2755L74.5229 99.121C74.4169 99.02 74.2612 98.8716 74.0626 98.6823C73.6654 98.3036 73.0965 97.7608 72.4097 97.1044C71.036 95.7918 69.1908 94.0249 67.3042 92.2081C65.4177 90.3913 63.4896 88.5243 61.9505 87.0116C60.4156 85.503 59.2579 84.3374 58.921 83.9298C58.5982 83.5393 56.8355 81.7812 54.3574 79.3498C51.8848 76.9239 48.7115 73.8388 45.5793 70.8033C42.4471 67.768 39.3561 64.7825 37.0482 62.5558C35.8942 61.4425 34.936 60.5188 34.2663 59.8736C33.9315 59.5509 33.6687 59.2979 33.4897 59.1255L33.2157 58.8616C33.2155 58.8614 33.2154 58.8613 33.3313 58.741L33.2154 58.8613C33.182 58.8292 33.1635 58.7846 33.1642 58.7383C33.165 58.692 33.1849 58.648 33.2193 58.617L40.046 52.4537L49.131 44.2501ZM33.5762 58.7449L33.7215 58.8848C33.9005 59.0572 34.1633 59.3103 34.4981 59.6329C35.1679 60.2783 36.1261 61.2019 37.2802 62.3153C39.5882 64.5421 42.6794 67.5278 45.8118 70.5634C48.9442 73.599 52.1181 76.6846 54.5914 79.1113C57.0593 81.5326 58.8413 83.3089 59.1785 83.7169C59.5015 84.1076 60.6426 85.2576 62.1847 86.7733C63.7226 88.2849 65.6497 90.1509 67.536 91.9674C69.4221 93.7838 71.2671 95.5504 72.6405 96.8629C73.3272 97.5191 73.896 98.0618 74.2932 98.4404C74.4917 98.6298 74.6474 98.7781 74.7534 98.879L74.7892 98.9132C74.8485 98.8449 74.9297 98.7511 75.0305 98.6343C75.2586 98.37 75.5868 97.9877 75.9873 97.5159C76.7883 96.5722 77.8781 95.2707 79.0335 93.8392C80.4187 92.1094 81.8787 90.1995 83.0166 88.5243C83.5856 87.6865 84.0724 86.9099 84.4285 86.2456C84.7876 85.5758 85.0039 85.0382 85.0495 84.6725C85.0515 84.6563 85.0559 84.6405 85.0625 84.6256C85.0622 84.6263 85.0623 84.6263 85.0625 84.6256C85.0631 84.6226 85.066 84.608 85.0623 84.5786C85.0581 84.5445 85.0459 84.5007 85.023 84.4527C85.0202 84.4469 85.0177 84.4408 85.0156 84.4347C84.9364 84.2027 84.7636 83.8753 84.4985 83.4577C84.235 83.0426 83.886 82.5472 83.4611 81.9811C82.6115 80.849 81.4634 79.441 80.1005 77.8393C77.3751 74.6364 73.7966 70.6658 70.0424 66.5928C62.8471 58.7864 55.0112 50.6084 51.3109 46.7465C51.1503 46.5789 50.9975 46.4194 50.8529 46.2685C50.3012 45.7059 49.8687 45.2614 49.5741 44.9574C49.4267 44.8054 49.3139 44.6885 49.2378 44.6096L49.2348 44.6066L40.2699 52.7017L33.5762 58.7449ZM74.8005 99.1546L74.6852 99.2755C74.7182 99.3069 74.7627 99.3236 74.8082 99.3215C74.8537 99.3194 74.8965 99.2988 74.9264 99.2645L74.8005 99.1546Z" fill="#1A2E35"/>
<path d="M118.712 114.833C118.317 114.25 111.017 107.149 110.314 106.299C108.347 104.024 105.191 101.517 105.191 101.517C102.326 99.9402 97.1607 95.1068 91.8615 93.6782C86.5411 92.2238 83.1776 88.1548 79.913 85.0444C76.6271 81.9083 76.9855 82.1322 74.5553 78.9824C72.125 75.8326 70.4288 74.2001 68.5411 72.3359C66.6533 70.4717 63.2609 67.2068 62.5166 65.0477C61.7509 62.8628 63.0283 61.1566 66.1632 61.383C69.2982 61.6094 75.7031 67.8895 76.3843 68.7136C77.0868 69.5634 79.2795 72.2161 80.7278 72.7095C80.7278 72.7095 82.7356 68.0586 82.3311 67.5693C81.9267 67.08 78.2473 62.8386 78.5707 62.181L71.0865 57.2699L73.8212 52.7117C73.8212 52.7117 75.387 52.7179 77.5275 53.4195C78.4247 53.7183 79.4071 54.12 80.4186 54.7145C85.6174 57.6999 90.735 58.5416 92.2976 59.3308C93.8602 60.1199 101.494 70.4563 103.005 72.2848C104.517 74.1133 110.336 83.5654 111.533 84.9606C112.41 85.9694 116.277 89.2319 119.399 91.593C120.593 92.5133 128.955 99.4301 129.719 99.8823L118.712 114.833Z" fill="white"/>
<path fill-rule="evenodd" clip-rule="evenodd" d="M73.8161 52.4246L73.817 52.7587C73.8161 52.4246 73.8159 52.4246 73.8161 52.4246L73.8166 52.4246L73.8175 52.4246L73.82 52.4246L73.8286 52.4247C73.8358 52.4247 73.846 52.4248 73.8592 52.4251C73.8855 52.4255 73.9235 52.4265 73.9725 52.4284C74.0705 52.4322 74.2126 52.44 74.3932 52.4556C74.7544 52.4868 75.2699 52.5495 75.8949 52.6756C77.1444 52.9276 78.8358 53.4336 80.6065 54.4504C83.1774 55.9268 85.7319 56.8751 87.8454 57.5538C88.5987 57.7957 89.2923 58.0023 89.9131 58.1871C90.1649 58.2621 90.4047 58.3336 90.6318 58.4023C91.4063 58.637 92.0484 58.8454 92.4697 59.0582C92.7193 59.1843 93.0442 59.4699 93.4023 59.8286C93.7716 60.1984 94.2098 60.6808 94.6916 61.2377C95.6558 62.3522 96.8075 63.7802 97.9547 65.237C99.1142 66.7093 100.266 68.2064 101.22 69.4466C102.161 70.6707 102.91 71.6446 103.285 72.0976C104.056 73.0312 105.904 75.8757 107.689 78.6291L107.836 78.8554C108.682 80.1613 109.512 81.441 110.208 82.4895C110.95 83.607 111.525 84.4392 111.808 84.7688C111.941 84.9244 112.278 85.2484 112.789 85.7135C113.295 86.1728 113.957 86.7561 114.727 87.4234C116.268 88.7579 118.24 90.4248 120.261 92.1004C122.282 93.7761 124.352 95.4594 126.088 96.827C127.831 98.2003 129.219 99.2405 129.887 99.6431C130.045 99.7383 130.096 99.9436 130.001 100.102C129.906 100.26 129.701 100.311 129.543 100.216C128.831 99.7871 127.408 98.7182 125.674 97.3519C123.933 95.9798 121.859 94.2928 119.835 92.6149C117.81 90.937 115.835 89.2669 114.29 87.9285C113.517 87.2595 112.851 86.6724 112.34 86.2081C111.835 85.7496 111.466 85.397 111.3 85.2038C110.985 84.8359 110.384 83.9633 109.651 82.8591C108.953 81.8077 108.122 80.5255 107.276 79.2213L107.128 78.9927C105.327 76.2141 103.509 73.4183 102.769 72.5234C102.391 72.066 101.629 71.0749 100.676 69.8365C99.7203 68.5937 98.5727 67.1017 97.4297 65.6505C96.2843 64.1959 95.1401 62.7776 94.1862 61.6749C93.709 61.1233 93.2826 60.6544 92.9295 60.3008C92.5651 59.9359 92.3096 59.726 92.1685 59.6547C91.8086 59.473 91.2249 59.2803 90.438 59.0419C90.2161 58.9747 89.9794 58.9042 89.7294 58.8297C89.1065 58.6442 88.4015 58.4343 87.641 58.1901C85.5054 57.5043 82.9017 56.5391 80.2738 55.03C78.5786 54.0565 76.9585 53.5718 75.7628 53.3307C75.1653 53.2101 74.6749 53.1507 74.3357 53.1214C74.1992 53.1096 74.0872 53.1026 74.0028 53.0986L71.5339 57.2136L78.7498 61.9487C78.88 62.0341 78.9325 62.1967 78.8813 62.3402C78.8815 62.3419 78.8817 62.3438 78.882 62.3459C78.8863 62.3774 78.8997 62.4298 78.9297 62.5064C78.9896 62.6592 79.0965 62.8612 79.2454 63.1037C79.5417 63.5859 79.9752 64.1818 80.4381 64.781C81.1872 65.7506 81.9928 66.703 82.3835 67.1649C82.4756 67.2737 82.5446 67.3553 82.5844 67.4035C82.6688 67.5056 82.6964 67.6266 82.7072 67.7138C82.7187 67.8076 82.7161 67.9088 82.7068 68.0087C82.6882 68.209 82.6378 68.451 82.5704 68.7101C82.4348 69.2311 82.2172 69.8706 81.9904 70.4856C81.7628 71.1025 81.5229 71.7032 81.3401 72.149C81.2487 72.372 81.1713 72.5567 81.1169 72.6858C81.0896 72.7503 81.068 72.8009 81.0533 72.8355L81.0363 72.8751L81.0308 72.888L81.0304 72.8887C81.0304 72.8888 81.0303 72.889 80.7236 72.7566L81.0304 72.8887C80.9608 73.0501 80.778 73.1302 80.6123 73.0716C80.1937 72.9237 79.7486 72.6359 79.3167 72.2949C78.8806 71.9507 78.4387 71.5365 78.026 71.1169C77.2015 70.2788 76.4757 69.4007 76.1239 68.9752L76.1226 68.9735C75.7909 68.5722 74.0378 66.8117 71.9701 65.1201C70.9389 64.2764 69.8389 63.4578 68.8076 62.8378C67.7652 62.2111 66.8356 61.8139 66.1349 61.7633C64.6203 61.6539 63.6383 62.0178 63.1192 62.5839C62.6105 63.1388 62.4725 63.9709 62.8276 64.9842C63.1861 66.0072 64.1773 67.3192 65.353 68.6366C66.3931 69.8019 67.5445 70.9362 68.4533 71.8315C68.5632 71.9397 68.6695 72.0444 68.7716 72.1452C68.8683 72.2408 68.9646 72.3358 69.0606 72.4304C70.8376 74.1831 72.4958 75.8187 74.8155 78.8253C75.241 79.3767 75.5795 79.8228 75.8661 80.2003C76.4047 80.9098 76.7596 81.3775 77.1628 81.8483C77.7751 82.5633 78.495 83.2803 80.1394 84.8498C80.6674 85.3537 81.1944 85.8779 81.7281 86.4088C84.5565 89.2223 87.5748 92.2247 91.9443 93.4026L91.9454 93.4029C94.6615 94.1454 97.3219 95.7321 99.641 97.3148C100.553 97.9374 101.418 98.5634 102.214 99.1396C102.431 99.2966 102.643 99.45 102.85 99.5986C103.819 100.296 104.66 100.884 105.351 101.273C105.373 101.286 105.394 101.301 105.413 101.318L105.187 101.564C105.413 101.318 105.413 101.318 105.413 101.318L105.549 101.444C105.638 101.526 105.768 101.646 105.935 101.8C106.268 102.108 106.746 102.55 107.323 103.087C108.479 104.162 110.035 105.618 111.637 107.143C113.239 108.668 114.889 110.263 116.232 111.616C117.563 112.958 118.621 114.09 119.011 114.673C119.114 114.827 119.073 115.034 118.92 115.137C118.766 115.239 118.559 115.198 118.456 115.045C118.109 114.526 117.104 113.445 115.757 112.087C114.421 110.741 112.777 109.15 111.176 107.627C109.576 106.104 108.022 104.65 106.868 103.576C106.291 103.04 105.814 102.598 105.481 102.291C105.315 102.137 105.185 102.017 105.096 101.935L104.989 101.836C104.267 101.427 103.409 100.825 102.459 100.141C102.25 99.9905 102.037 99.8359 101.819 99.6781C101.023 99.1025 100.168 98.4836 99.2643 97.8668C96.9585 96.2931 94.3736 94.7595 91.7693 94.0476C87.2132 92.819 84.0517 89.6692 81.2266 86.8547C80.7011 86.3311 80.1871 85.8191 79.678 85.3332C78.0366 83.7666 77.2927 83.0274 76.6552 82.2829C76.2393 81.7972 75.867 81.3069 75.3178 80.5833C75.0322 80.2071 74.6988 79.7679 74.2865 79.2336C71.9945 76.263 70.3627 74.6534 68.59 72.9048C68.4944 72.8106 68.3985 72.716 68.302 72.6207C68.2005 72.5204 68.0944 72.416 67.9846 72.3078C67.0772 71.414 65.9099 70.2641 64.8545 69.0816C63.6813 67.7671 62.6041 66.3671 62.197 65.2052C61.7864 64.0336 61.9043 62.9202 62.6266 62.1323C63.3386 61.3558 64.5627 60.9798 66.183 61.0968C67.0498 61.1594 68.0938 61.6289 69.1519 62.2651C70.2213 62.908 71.3489 63.7485 72.3933 64.6029C74.4768 66.3075 76.2668 68.0992 76.6376 68.5477C76.9889 68.9727 77.6992 69.8318 78.5024 70.6483C78.904 71.0565 79.3244 71.4496 79.7308 71.7704C80.0233 72.0014 80.299 72.1872 80.5477 72.3154C80.5957 72.2009 80.6549 72.0586 80.7218 71.8955C80.9028 71.4539 81.1396 70.8612 81.3634 70.2543C81.588 69.6454 81.7965 69.0305 81.9237 68.5418C81.9876 68.2961 82.0277 68.0944 82.0414 67.9467C82.0481 67.8756 82.0475 67.8278 82.0443 67.7992C82.0064 67.7537 81.9507 67.688 81.8805 67.605C81.4952 67.1496 80.6705 66.1748 79.9093 65.1896C79.4423 64.5851 78.9913 63.9667 78.676 63.4535C78.5192 63.1982 78.3886 62.9571 78.3075 62.7501C78.2671 62.6469 78.2342 62.5403 78.22 62.4372C78.2182 62.4244 78.2167 62.4111 78.2154 62.3973L70.899 57.5963C70.7491 57.4979 70.7035 57.2988 70.7958 57.145L73.5305 52.5868C73.5907 52.4865 73.699 52.4249 73.8161 52.4246Z" fill="#1A2E35"/>
<path fill-rule="evenodd" clip-rule="evenodd" d="M80.8055 72.5991C80.8055 72.5991 80.8055 72.5991 80.8055 72.5991L80.8059 72.5994L80.8073 72.6005L80.8134 72.6053C80.8188 72.6095 80.8271 72.6159 80.8381 72.6244C80.86 72.6412 80.8927 72.6662 80.9353 72.6981C81.0206 72.762 81.1456 72.8538 81.3037 72.9651C81.62 73.1877 82.0679 73.4875 82.5941 73.7961C83.6515 74.4162 85.0058 75.0602 86.2378 75.2002C86.3295 75.2107 86.3953 75.2934 86.3849 75.3851C86.3745 75.4768 86.2917 75.5427 86.2 75.5322C84.8962 75.3841 83.4922 74.7102 82.4251 74.0844C81.8891 73.77 81.4333 73.4649 81.1114 73.2383C80.9504 73.125 80.8227 73.0312 80.735 72.9655C80.6912 72.9327 80.6574 72.9069 80.6344 72.8892C80.6229 72.8804 80.6141 72.8736 80.6081 72.869L80.6013 72.8636L80.5995 72.8622L80.599 72.8618C80.5989 72.8618 80.5988 72.8616 80.7021 72.7304L80.599 72.8618C80.5265 72.8047 80.5138 72.6995 80.5709 72.627C80.628 72.5545 80.733 72.542 80.8055 72.5991Z" fill="#1A2E35"/>
<path fill-rule="evenodd" clip-rule="evenodd" d="M81.8395 73.8729C81.7693 73.7022 81.8508 73.507 82.0214 73.4368L82.1485 73.7458L82.2756 74.0549C82.1049 74.125 81.9097 74.0436 81.8395 73.8729ZM82.1485 73.7458C82.2756 74.0549 82.2756 74.0549 82.2756 74.0549L82.2854 74.0508L82.3132 74.0393C82.3376 74.0292 82.3732 74.0143 82.419 73.9951C82.5104 73.9568 82.6421 73.9011 82.8035 73.8318C83.1263 73.6931 83.5686 73.4992 84.0467 73.2787C84.9907 72.8432 86.1133 72.2862 86.7084 71.8402C86.8561 71.7295 86.8861 71.5201 86.7754 71.3724C86.6647 71.2247 86.4553 71.1948 86.3076 71.3054C85.7785 71.702 84.7214 72.2315 83.7667 72.6719C83.2954 72.8893 82.8587 73.0807 82.5397 73.2178C82.3802 73.2863 82.2504 73.3412 82.1605 73.3789C82.1156 73.3977 82.0806 73.4123 82.057 73.4221L82.0303 73.4332L82.0214 73.4368L82.1485 73.7458Z" fill="#1A2E35"/>
<path fill-rule="evenodd" clip-rule="evenodd" d="M82.2802 67.612L81.9786 67.4682C81.8992 67.6348 81.9698 67.8342 82.1364 67.9136C82.3029 67.993 82.5023 67.9224 82.5817 67.7559L82.5821 67.7552L82.584 67.7513L82.5925 67.7339C82.6004 67.7182 82.6124 67.6943 82.6284 67.6634C82.6605 67.6015 82.7085 67.5115 82.7714 67.4016C82.8973 67.1814 83.0811 66.8836 83.3125 66.5729C83.7863 65.9367 84.4146 65.3078 85.1092 65.1076C85.2865 65.0565 85.3888 64.8713 85.3377 64.694C85.2866 64.5167 85.1014 64.4144 84.9241 64.4655C84.0083 64.7295 83.2684 65.5133 82.7765 66.1738C82.5251 66.5114 82.3268 66.8329 82.1913 67.07C82.1234 67.1887 82.0709 67.2868 82.0351 67.3559C82.0172 67.3904 82.0034 67.4178 81.994 67.4368C81.9892 67.4464 81.9856 67.4538 81.983 67.4591L81.98 67.4653L81.9791 67.4672L81.9788 67.4678C81.9788 67.4679 81.9786 67.4682 82.2802 67.612Z" fill="#1A2E35"/>
<path fill-rule="evenodd" clip-rule="evenodd" d="M79.4483 59.6265C79.6253 59.5744 79.811 59.6758 79.8631 59.8528C79.9601 60.1827 79.9166 60.5191 79.8222 60.8159C79.7274 61.1139 79.5738 61.3958 79.4185 61.6339C79.2623 61.8734 79.0976 62.0785 78.9727 62.2232C78.91 62.2958 78.8567 62.354 78.8185 62.3945C78.7995 62.4147 78.7841 62.4306 78.7733 62.4417L78.7605 62.4548L78.7567 62.4585L78.7556 62.4597L78.7552 62.4601C78.7551 62.4601 78.7549 62.4604 78.5196 62.2232L78.7549 62.4604C78.6239 62.5903 78.4123 62.5895 78.2824 62.4585C78.1524 62.3275 78.1532 62.116 78.2841 61.9861C78.2841 61.9861 78.2841 61.9861 78.2841 61.9861M78.2841 61.9861L78.2861 61.9841L78.2951 61.9749C78.3033 61.9665 78.3159 61.9535 78.332 61.9364C78.3644 61.902 78.4112 61.851 78.4668 61.7865C78.5786 61.657 78.7235 61.4762 78.8588 61.2687C78.9952 61.0598 79.1152 60.8338 79.1854 60.6134C79.2558 60.3918 79.2685 60.1996 79.2219 60.0412C79.1699 59.8642 79.2712 59.6785 79.4483 59.6265" fill="#1A2E35"/>
<path fill-rule="evenodd" clip-rule="evenodd" d="M92.6151 93.9742C92.6524 93.7935 92.8291 93.6772 93.0099 93.7145L92.9424 94.0417L92.8748 94.369C92.6941 94.3317 92.5778 94.1549 92.6151 93.9742ZM92.9424 94.0417L92.8748 94.369L92.8903 94.3722L92.9365 94.3818C92.9773 94.3904 93.0375 94.4031 93.115 94.4196C93.27 94.4527 93.4943 94.5013 93.7705 94.5628C94.3231 94.6858 95.083 94.8606 95.9126 95.0679C97.5823 95.485 99.4998 96.0252 100.592 96.532C100.759 96.6096 100.958 96.5369 101.036 96.3695C101.113 96.2021 101.041 96.0035 100.873 95.9258C99.715 95.3883 97.7374 94.8349 96.0746 94.4195C95.2379 94.2105 94.4722 94.0344 93.9157 93.9105C93.6374 93.8485 93.4113 93.7996 93.2546 93.7661C93.1762 93.7494 93.1152 93.7365 93.0737 93.7278L93.0263 93.7179L93.0099 93.7145C93.0098 93.7145 93.0099 93.7145 92.9424 94.0417Z" fill="#1A2E35"/>
<path fill-rule="evenodd" clip-rule="evenodd" d="M96.3664 65.6849C96.5264 65.593 96.7306 65.6483 96.8225 65.8084C97.7013 67.3397 99.5097 70.0765 101.219 72.6238C101.767 73.4405 102.306 74.2382 102.799 74.969C103.837 76.5078 104.676 77.7503 104.985 78.2508C105.082 78.4077 105.034 78.6136 104.877 78.7108C104.72 78.8079 104.514 78.7595 104.417 78.6026C104.114 78.1136 103.291 76.893 102.261 75.3662C101.765 74.6313 101.221 73.8255 100.664 72.9962C98.9589 70.455 97.1358 67.697 96.2429 66.141C96.151 65.9809 96.2063 65.7767 96.3664 65.6849Z" fill="#1A2E35"/>
<path fill-rule="evenodd" clip-rule="evenodd" d="M93.1044 60.0522C93.1736 59.9912 93.2792 59.9979 93.3402 60.0671C94.3996 61.2694 95.045 62.3147 95.4262 63.0624C95.6168 63.4362 95.7413 63.7355 95.8185 63.9426C95.8571 64.0462 95.8839 64.1268 95.9012 64.1821C95.9099 64.2098 95.9161 64.2312 95.9203 64.2459C95.9224 64.2533 95.924 64.2591 95.9251 64.2631L95.9264 64.268L95.9268 64.2694L95.9269 64.2699C95.927 64.27 95.927 64.2703 95.7652 64.3119L95.927 64.2703C95.95 64.3596 95.8962 64.4507 95.8069 64.4737C95.7176 64.4967 95.6265 64.443 95.6035 64.3537C95.6035 64.3537 95.6035 64.3537 95.6035 64.3537L95.6034 64.3533L95.6026 64.3505C95.6019 64.3478 95.6007 64.3434 95.599 64.3373C95.5955 64.3253 95.5901 64.3067 95.5823 64.2818C95.5667 64.2321 95.5419 64.1572 95.5054 64.0593C95.4325 63.8636 95.3131 63.5761 95.1286 63.2142C94.7595 62.4904 94.1297 61.4685 93.0895 60.288C93.0285 60.2188 93.0352 60.1132 93.1044 60.0522Z" fill="#1A2E35"/>
<path d="M43.8356 43.3394L66.8213 32.7055C66.8213 32.7055 76.8243 58.337 77.5243 61.9634L89.8022 81.3793C89.8022 81.3793 77.3027 90.8014 70.3563 93.7257C70.3563 93.7257 58.7442 72.5456 56.9021 69.95C55.1541 67.3633 43.8356 43.3394 43.8356 43.3394Z" fill="#FFD57B"/>
<path opacity="0.2" d="M57.2912 67.8511L46.7531 46.6068C46.7531 46.6068 47.8108 44.2152 47.8204 42.8634L64.5127 35.5243C64.5127 35.5243 65.6712 36.8209 67.1463 37.0321L76.5858 62.3491L86.9228 78.2107C86.9228 78.2107 84.857 80.2218 85.9922 82.0145C85.9922 82.0145 79.1779 88.2977 73.3447 90.9954C73.3447 90.9954 71.3305 89.7125 69.544 89.2819L57.2912 67.8511Z" fill="black" fill-opacity="0.7"/>
<path d="M61.5082 65.9252C61.5082 65.9252 58.9125 60.2677 63.9202 57.5154C68.9493 54.7889 71.2074 62.5027 71.2074 62.5027C71.2074 62.5027 75.0437 67.0913 71.0091 69.3426C67.5232 71.3138 64.5383 71.0068 61.5082 65.9252Z" fill="#FFD57B"/>
<path fill-rule="evenodd" clip-rule="evenodd" d="M61.6571 65.8483C63.1615 68.3687 64.6354 69.6715 66.1359 70.119C67.6342 70.566 69.2026 70.173 70.9273 69.1976L70.9281 69.1972C71.9029 68.6533 72.3874 67.9783 72.5817 67.2798C72.7776 66.5754 72.6842 65.8261 72.4625 65.1295C72.241 64.4338 71.8955 63.8034 71.6034 63.3451C71.4576 63.1164 71.3259 62.9318 71.231 62.8047C71.1835 62.7412 71.1453 62.6921 71.1191 62.6591C71.106 62.6426 71.096 62.6301 71.0893 62.6219L71.0818 62.6129L71.0801 62.6107L71.0797 62.6103M61.6571 65.8483L61.6542 65.8419C61.6498 65.8319 61.6431 65.8166 61.6346 65.7964C61.6175 65.7559 61.5928 65.6956 61.5629 65.6175C61.5032 65.4612 61.4229 65.2339 61.3418 64.9524C61.1795 64.3886 61.015 63.6107 61.0038 62.7507C60.9814 61.0371 61.5647 59.0016 64.0007 57.6625C65.22 57.0015 66.2539 56.9802 67.123 57.3015C68 57.6258 68.73 58.3068 69.3166 59.0874C69.9022 59.8666 70.3355 60.7324 70.6228 61.406C70.7662 61.7422 70.8727 62.0293 70.9432 62.2319C70.9785 62.3332 71.0047 62.4133 71.0221 62.4678C71.0307 62.4951 71.0372 62.5159 71.0414 62.5298L71.0461 62.5454L71.0472 62.5491L71.0475 62.5499C71.0539 62.572 71.065 62.5927 71.0797 62.6103M71.3582 62.4231C71.3538 62.4087 71.3478 62.3897 71.3405 62.3665C71.3223 62.3094 71.2951 62.2264 71.2588 62.1221C71.1862 61.9135 71.077 61.6192 70.9301 61.2749C70.6369 60.5874 70.1913 59.6951 69.5837 58.8867C68.9772 58.0796 68.1997 57.3434 67.2389 56.9881C66.2702 56.63 65.1361 56.6668 63.8411 57.369L63.8402 57.3694C61.2688 58.7827 60.6462 60.9519 60.6697 62.755C60.6814 63.6534 60.8529 64.4619 61.0208 65.0448C61.1048 65.3367 61.1882 65.5729 61.2508 65.7368C61.2822 65.8187 61.3083 65.8826 61.3268 65.9264C61.3361 65.9483 61.3434 65.9651 61.3485 65.9767L61.3544 65.9901L61.3561 65.9937L61.3565 65.9947L61.3567 65.9951C61.3567 65.9952 61.3568 65.9953 61.5086 65.9256L61.3567 65.9951C61.3592 66.0005 61.3621 66.006 61.3651 66.0112C62.8891 68.567 64.4211 69.9562 66.0404 70.4392C67.6634 70.9234 69.3303 70.4845 71.0913 69.4888C72.1337 68.907 72.6825 68.1642 72.9036 67.3693C73.1231 66.5801 73.0139 65.7602 72.7809 65.0282C72.5476 64.2953 72.1862 63.6379 71.8851 63.1655C71.7342 62.9288 71.5977 62.7373 71.4987 62.6047C71.4491 62.5384 71.4089 62.4867 71.3808 62.4513C71.372 62.4403 71.3645 62.4309 71.3582 62.4231Z" fill="#1A2E35"/>
<path fill-rule="evenodd" clip-rule="evenodd" d="M49.7082 46.814C49.7914 46.774 49.8912 46.809 49.9311 46.8922L49.7806 46.9646L49.63 47.0369C49.59 46.9538 49.625 46.854 49.7082 46.814ZM49.7806 46.9646C49.63 47.0369 49.63 47.0369 49.63 47.0369L49.7629 47.3139C49.8478 47.4911 49.9697 47.7457 50.1175 48.0552C50.4132 48.6742 50.8126 49.5129 51.2274 50.3915C52.0588 52.1526 52.9471 54.0635 53.1921 54.6969C53.2254 54.7829 53.3221 54.8257 53.4082 54.7924C53.4942 54.7592 53.537 54.6624 53.5037 54.5764C53.2532 53.9286 52.3579 52.0035 51.5295 50.2488C51.1144 49.3696 50.7148 48.5305 50.419 47.9112C50.2711 47.6015 50.1492 47.3468 50.0642 47.1695L49.9311 46.8922C49.9311 46.8921 49.9311 46.8922 49.7806 46.9646Z" fill="#1A2E35"/>
<path fill-rule="evenodd" clip-rule="evenodd" d="M51.2272 46.3403C51.311 46.3018 51.4102 46.3384 51.4488 46.4223L53.0817 49.971C53.1203 50.0549 53.0836 50.1541 52.9998 50.1927C52.916 50.2312 52.8168 50.1945 52.7782 50.1107L51.1453 46.5619C51.1067 46.4781 51.1434 46.3789 51.2272 46.3403Z" fill="#1A2E35"/>
<path d="M62.5332 40.6287L65.9007 39.4057L66.2773 40.4382L65.4532 41.1195L63.3871 42.1337L62.5332 40.6287Z" fill="#FFD57B"/>
<path fill-rule="evenodd" clip-rule="evenodd" d="M62.3765 40.5708C62.3935 40.5246 62.43 40.4883 62.4762 40.4715L65.8437 39.2485C65.9303 39.2171 66.0261 39.2617 66.0576 39.3483L66.4343 40.3808C66.4585 40.4473 66.4383 40.5218 66.3838 40.5669L65.5597 41.2481C65.5496 41.2564 65.5386 41.2635 65.5269 41.2693L63.4608 42.2835C63.3814 42.3225 63.2855 42.2929 63.2418 42.216L62.3879 40.711C62.3637 40.6682 62.3595 40.6169 62.3765 40.5708ZM62.7761 40.7181L63.4548 41.9143L65.362 40.978L66.08 40.3845L65.8009 39.6196L62.7761 40.7181Z" fill="#1A2E35"/>
<path d="M63.5216 42.7157L65.964 41.7372L66.7166 41.8086L67.1774 43.2051L64.3195 44.3104L63.5216 42.7157Z" fill="#FFD57B"/>
<path fill-rule="evenodd" clip-rule="evenodd" d="M63.3654 42.6568C63.382 42.6131 63.4161 42.5784 63.4594 42.561L65.9018 41.5825C65.9265 41.5726 65.9533 41.5687 65.9798 41.5712L66.7324 41.6427C66.7984 41.6489 66.8545 41.6937 66.8753 41.7566L67.336 43.1531C67.3639 43.2376 67.3207 43.3292 67.2377 43.3613L64.3798 44.4665C64.2994 44.4976 64.2087 44.4625 64.1701 44.3855L63.3722 42.7908C63.3513 42.7491 63.3488 42.7004 63.3654 42.6568ZM63.7522 42.8036L64.4009 44.1001L66.969 43.107L66.5922 41.965L65.9885 41.9077L63.7522 42.8036Z" fill="#1A2E35"/>
<path d="M64.7242 44.8001L67.4757 43.5661L67.8479 44.6457L66.6632 45.6249L65.1726 46.0768L64.7242 44.8001Z" fill="#FFD57B"/>
<path fill-rule="evenodd" clip-rule="evenodd" d="M64.5665 44.8553C64.5377 44.7734 64.5765 44.6831 64.6557 44.6475L67.4072 43.4135C67.45 43.3943 67.4989 43.394 67.542 43.4127C67.585 43.4313 67.6182 43.4672 67.6335 43.5115L68.0057 44.5911C68.0284 44.6569 68.0079 44.7299 67.9542 44.7743L66.7695 45.7536C66.7525 45.7677 66.7328 45.7782 66.7116 45.7847L65.221 46.2365C65.1354 46.2624 65.0445 46.2164 65.0149 46.132L64.5665 44.8553ZM64.9326 44.8895L65.2771 45.8703L66.5825 45.4746L67.6521 44.5905L67.3772 43.7932L64.9326 44.8895Z" fill="#1A2E35"/>
<path d="M65.5554 46.5399L67.8556 45.809L68.2814 46.324L68.21 47.0767L66.2043 47.9543L65.5018 47.1044L65.5554 46.5399Z" fill="#FFD57B"/>
<path fill-rule="evenodd" clip-rule="evenodd" d="M65.3891 46.524C65.3954 46.4573 65.441 46.4009 65.5048 46.3806L67.8051 45.6496C67.87 45.629 67.941 45.6499 67.9844 45.7024L68.4102 46.2175C68.4384 46.2516 68.4519 46.2956 68.4477 46.3397L68.3763 47.0923C68.3706 47.1527 68.3326 47.2053 68.277 47.2296L66.2713 48.1072C66.203 48.1371 66.1231 48.1181 66.0756 48.0606L65.3731 47.2108C65.3448 47.1766 65.3313 47.1326 65.3355 47.0885L65.3891 46.524ZM65.7113 46.6656L65.6747 47.0512L66.2528 47.7506L68.053 46.9629L68.1086 46.377L67.7988 46.0022L65.7113 46.6656Z" fill="#1A2E35"/>
<path d="M68.9183 47.619C69.1312 47.8765 69.3654 48.1598 69.5782 48.4173C69.7273 48.5976 69.8718 48.8249 69.8282 49.0344C69.7633 49.2181 69.5875 49.32 69.4162 49.375C69.2448 49.4299 69.0309 49.4333 68.8595 49.4883C68.3198 49.6744 68.0008 50.2849 67.4229 50.3724C67.0184 49.8831 66.1995 49.2595 66.7963 48.7229C66.8993 48.6377 69.0673 47.7993 68.9183 47.619Z" fill="#FFD57B"/>
<path fill-rule="evenodd" clip-rule="evenodd" d="M66.8987 48.8554C66.7858 48.9603 66.753 49.0545 66.7526 49.139C66.752 49.2345 66.7924 49.3456 66.875 49.4756C66.957 49.6045 67.07 49.7359 67.1935 49.8707C67.2269 49.9071 67.2614 49.9441 67.2961 49.9814C67.3607 50.0507 67.4259 50.1206 67.4855 50.1885C67.6837 50.1343 67.8544 50.004 68.0472 49.8399C68.0682 49.8221 68.0895 49.8037 68.1112 49.785C68.3054 49.6179 68.5291 49.4253 68.8051 49.3302L68.8085 49.329C68.907 49.2974 69.0146 49.2812 69.1065 49.2673L69.1128 49.2663C69.2121 49.2513 69.2946 49.2384 69.3651 49.2157C69.5149 49.1677 69.6247 49.0927 69.6666 48.9894C69.6748 48.9351 69.6625 48.8677 69.6241 48.7855C69.5834 48.6984 69.52 48.609 69.4494 48.5236L68.9241 47.8881C68.8732 47.9253 68.8121 47.9631 68.7471 48.0004C68.5558 48.1099 68.2893 48.237 68.0207 48.3586C67.7934 48.4616 67.5604 48.5624 67.3642 48.6472C67.3277 48.6631 67.2924 48.6783 67.2587 48.6929C67.1508 48.7397 67.0597 48.7795 66.9925 48.8102C66.9588 48.8256 66.9326 48.838 66.914 48.8474C66.9066 48.8511 66.9017 48.8538 66.8987 48.8554ZM68.7524 47.5988C68.7188 47.6264 68.662 47.6641 68.5811 47.7104C68.4045 47.8115 68.1505 47.9331 67.8829 48.0543C67.6584 48.1559 67.4283 48.2554 67.2322 48.3403C67.1954 48.3562 67.1599 48.3716 67.1258 48.3864C67.0182 48.433 66.9242 48.4741 66.8537 48.5063C66.8186 48.5223 66.7878 48.5368 66.7633 48.5492C66.7453 48.5583 66.7132 48.5746 66.6898 48.594C66.688 48.5954 66.6862 48.5969 66.6845 48.5985C66.5065 48.7586 66.4196 48.9408 66.4184 49.1371C66.4173 49.3248 66.4951 49.5008 66.5931 49.6549C66.6918 49.8102 66.8221 49.9599 66.9472 50.0964C66.9854 50.1381 67.0228 50.1782 67.059 50.2171C67.1455 50.3099 67.2254 50.3956 67.2941 50.4787C67.3315 50.5239 67.3898 50.5462 67.4479 50.5374C67.7888 50.4858 68.0454 50.2803 68.2638 50.0944C68.2845 50.0767 68.3049 50.0593 68.325 50.0421C68.5274 49.8687 68.7011 49.7199 68.9122 49.6467C68.9824 49.6244 69.0643 49.6116 69.1628 49.5967L69.1691 49.5957C69.2611 49.5818 69.3686 49.5655 69.4671 49.5339C69.6548 49.4737 69.8944 49.3484 69.9857 49.0899C69.9882 49.0828 69.9902 49.0756 69.9917 49.0683C70.0237 48.9149 69.9844 48.7673 69.9268 48.644C69.8689 48.5201 69.7854 48.4057 69.707 48.3107L69.0471 47.5124C68.9883 47.4413 68.883 47.4313 68.8118 47.4901C68.7775 47.5185 68.7574 47.5578 68.7524 47.5988Z" fill="#1A2E35"/>
<path d="M69.8619 50.1765C69.9852 50.3781 70.1085 50.5796 70.206 50.8025C70.3461 51.0768 70.4302 51.4408 70.2667 51.6626C70.1592 51.7948 70.0092 51.8755 69.8849 51.9349C69.2891 52.2106 68.7191 52.465 68.1447 52.7665C68.1189 52.7878 67.7804 51.8538 67.7423 51.7553C67.7141 51.3017 67.6369 51.3655 67.9504 51.063C68.4699 50.5902 69.3592 50.7221 69.8619 50.1765Z" fill="#FFD57B"/>
<path fill-rule="evenodd" clip-rule="evenodd" d="M68.0646 51.1854C67.9851 51.2621 67.9391 51.3075 67.9099 51.3424C67.8846 51.3728 67.8825 51.3831 67.8818 51.3866C67.8818 51.3867 67.8818 51.3868 67.8818 51.3869C67.8795 51.3977 67.8786 51.4174 67.8851 51.4819C67.8863 51.4943 67.8878 51.5079 67.8894 51.5228C67.8948 51.5735 67.9018 51.6388 67.9074 51.7198C67.9159 51.7427 67.9286 51.7769 67.9441 51.8188C67.9853 51.9299 68.0465 52.0951 68.1042 52.2467C68.1456 52.3553 68.1861 52.4595 68.2192 52.5401C68.6471 52.321 69.074 52.1247 69.5084 51.9248C69.6098 51.8782 69.7115 51.8314 69.8138 51.7841C69.9338 51.7267 70.0524 51.66 70.1344 51.5609C70.1798 51.4972 70.1995 51.4007 70.1843 51.2722C70.169 51.1436 70.1207 51.0032 70.0572 50.8788C70.0557 50.8758 70.0543 50.8728 70.0529 50.8698C69.9872 50.7196 69.9088 50.579 69.8243 50.4371C69.5596 50.6419 69.241 50.7319 68.9559 50.8087C68.9426 50.8123 68.9294 50.8159 68.9162 50.8194C68.5714 50.9121 68.2797 50.9905 68.0646 51.1854ZM68.0682 52.6183C68.0579 52.6236 68.0478 52.6302 68.0382 52.6381C68.0472 52.6307 68.0568 52.6243 68.0671 52.6189C68.0674 52.6187 68.0678 52.6185 68.0682 52.6183ZM68.869 50.4861C69.2236 50.3906 69.5247 50.2963 69.7391 50.0637C69.7746 50.0251 69.8261 50.0055 69.8783 50.0106C69.9304 50.0157 69.9771 50.045 70.0045 50.0897L70.007 50.0939C70.1279 50.2915 70.2553 50.4998 70.357 50.7313C70.4326 50.8804 70.4953 51.0573 70.5161 51.233C70.5369 51.4085 70.5178 51.6039 70.4012 51.7621C70.3996 51.7642 70.398 51.7663 70.3964 51.7684C70.2637 51.9315 70.0838 52.0253 69.9569 52.086L69.9551 52.0869L69.9551 52.0869C69.851 52.135 69.7479 52.1824 69.6457 52.2295C69.1614 52.4523 68.6956 52.6666 68.2264 52.9126C68.187 52.9349 68.1431 52.9385 68.1058 52.93C68.0693 52.9216 68.0451 52.9032 68.0354 52.8952C68.0151 52.8785 68.0025 52.8603 67.9985 52.8545C67.9878 52.8388 67.9786 52.8212 67.972 52.808C67.9576 52.7791 67.9404 52.7398 67.9221 52.696C67.8851 52.6074 67.8384 52.4875 67.792 52.3656C67.7311 52.2056 67.6723 52.0468 67.6325 51.9395C67.6101 51.8788 67.5937 51.8346 67.5865 51.8159C67.5803 51.7999 67.5766 51.783 67.5755 51.7659C67.5703 51.6813 67.5634 51.6171 67.5575 51.5616C67.5558 51.5456 67.5541 51.5302 67.5526 51.5154C67.5465 51.4548 67.5405 51.3865 67.5547 51.3188C67.5704 51.2433 67.6068 51.1842 67.6534 51.1284C67.6968 51.0763 67.7582 51.0166 67.8344 50.9432L67.8379 50.9398C68.1154 50.6873 68.4824 50.5893 68.8051 50.5032C68.8266 50.4975 68.8479 50.4918 68.869 50.4861Z" fill="#1A2E35"/>
<path d="M55.9215 43.2757L57.8559 47.399L58.464 47.2431L56.7524 43.0223L55.9215 43.2757Z" fill="#FFD57B"/>
<path fill-rule="evenodd" clip-rule="evenodd" d="M55.7688 43.2082C55.7885 43.164 55.8264 43.1304 55.8728 43.1163L56.7037 42.8629C56.7864 42.8377 56.8747 42.8798 56.9072 42.9599L58.6188 47.1807C58.6369 47.2253 58.6349 47.2757 58.6132 47.3187C58.5914 47.3617 58.5522 47.3933 58.5055 47.4053L57.8974 47.5611C57.8197 47.5811 57.7387 47.5429 57.7047 47.4703L55.7702 43.347C55.7497 43.3032 55.7491 43.2525 55.7688 43.2082ZM56.1546 43.3796L57.9484 47.2031L58.2374 47.1291L56.655 43.227L56.1546 43.3796Z" fill="#1A2E35"/>
<path d="M63.9996 75.1802L67.2056 73.6571L67.7021 74.6772L66.9676 75.4144L64.9778 76.6258L63.9996 75.1802Z" fill="#FFD57B"/>
<path fill-rule="evenodd" clip-rule="evenodd" d="M63.8384 75.1361C63.8512 75.0891 63.8839 75.05 63.9279 75.0291L67.134 73.506C67.2167 73.4667 67.3158 73.5014 67.3559 73.5838L67.8523 74.604C67.8835 74.668 67.8707 74.7446 67.8205 74.795L67.086 75.5322C67.0765 75.5417 67.066 75.55 67.0545 75.557L65.0646 76.7683C64.9885 76.8147 64.8894 76.7931 64.8394 76.7193L63.8612 75.2737C63.8339 75.2333 63.8255 75.1831 63.8384 75.1361ZM64.2469 75.2475L65.0269 76.4001L66.8635 75.2821L67.4999 74.6434L67.1278 73.8789L64.2469 75.2475Z" fill="#1A2E35"/>
<path d="M65.164 77.1656L67.5089 75.9642L68.266 75.9886L68.8253 77.347L66.0649 78.6751L65.164 77.1656Z" fill="#FFD57B"/>
<path fill-rule="evenodd" clip-rule="evenodd" d="M65.0034 77.1199C65.0161 77.0755 65.0467 77.0383 65.0878 77.0173L67.4327 75.8159C67.4579 75.803 67.486 75.7967 67.5142 75.7976L68.2714 75.822C68.3371 75.8241 68.3954 75.8646 68.4205 75.9254L68.9798 77.2837C69.0135 77.3656 68.9775 77.4595 68.8977 77.4979L66.1373 78.826C66.0594 78.8635 65.9658 78.8353 65.9215 78.7611L65.0205 77.2516C64.9968 77.2119 64.9906 77.1643 65.0034 77.1199ZM65.3988 77.2334L66.1301 78.4587L68.6108 77.2652L68.1526 76.1525L67.5466 76.1329L65.3988 77.2334Z" fill="#1A2E35"/>
<path d="M66.542 79.1477L69.1746 77.6651L69.6196 78.7278L68.5201 79.8101L67.0889 80.3862L66.542 79.1477Z" fill="#FFD57B"/>
<path fill-rule="evenodd" clip-rule="evenodd" d="M66.3891 79.215C66.3544 79.1363 66.3851 79.0442 66.46 79.002L69.0927 77.5194C69.1342 77.496 69.1838 77.4914 69.2289 77.5069C69.274 77.5224 69.3103 77.5564 69.3287 77.6004L69.7737 78.6631C69.8001 78.7261 69.7855 78.7988 69.7368 78.8467L68.6373 79.929C68.6216 79.9445 68.603 79.9567 68.5825 79.9649L67.1513 80.541C67.0677 80.5747 66.9725 80.536 66.9361 80.4536L66.3891 79.215ZM66.756 79.2187L67.1765 80.1707L68.4267 79.6674L69.4219 78.6879L69.093 77.9026L66.756 79.2187Z" fill="#1A2E35"/>
<path d="M67.5026 80.7819L69.7479 79.8796L70.2252 80.3521L70.2008 81.1092L68.2971 82.1626L67.4961 81.3509L67.5026 80.7819Z" fill="#FFD57B"/>
<path fill-rule="evenodd" clip-rule="evenodd" d="M67.3355 80.7799C67.3363 80.7124 67.3776 80.652 67.4403 80.6268L69.6856 79.7245C69.7474 79.6996 69.8181 79.7139 69.8654 79.7608L70.3427 80.2333C70.3757 80.2659 70.3936 80.3109 70.3921 80.3574L70.3677 81.1145C70.3658 81.1733 70.3331 81.2268 70.2816 81.2553L68.378 82.3087C68.3124 82.3449 68.2308 82.3332 68.1782 82.2799L67.3771 81.4681C67.3458 81.4364 67.3285 81.3934 67.329 81.3489L67.3355 80.7799ZM67.6683 80.8952L67.6639 81.283L68.327 81.955L70.0368 81.0089L70.0558 80.4194L69.7084 80.0754L67.6683 80.8952Z" fill="#1A2E35"/>
<path d="M70.9645 81.5613C71.2031 81.7975 71.4417 82.0338 71.7017 82.2957C71.8764 82.4547 72.0467 82.6608 71.9774 82.8915C71.9595 83.0797 71.758 83.2029 71.5866 83.2579C71.4153 83.3128 71.2226 83.342 71.0513 83.3969C70.5328 83.6088 70.2564 84.2708 69.6998 84.3841C69.2438 83.9373 68.3733 83.3563 68.9489 82.7939C69.0216 82.7771 71.1135 81.7415 70.9645 81.5613Z" fill="#FFD57B"/>
<path fill-rule="evenodd" clip-rule="evenodd" d="M68.899 82.6343C68.9026 82.6328 68.9086 82.6303 68.9174 82.6264C68.9348 82.6187 68.9595 82.6073 68.9909 82.5924C69.0534 82.5628 69.1393 82.5208 69.2406 82.4701C69.4431 82.3686 69.7047 82.233 69.9591 82.0925C70.2146 81.9514 70.4582 81.8079 70.6272 81.6903C70.709 81.6333 70.7656 81.5877 70.7975 81.5553C70.799 81.5119 70.8173 81.4693 70.8517 81.4378C70.9174 81.3778 71.0187 81.3798 71.082 81.4424L71.0824 81.4428C71.3199 81.678 71.5581 81.9137 71.8173 82.175C71.9083 82.2581 72.0089 82.3628 72.0771 82.4854C72.1456 82.6087 72.1861 82.7594 72.1418 82.924C72.1226 83.0686 72.0371 83.1779 71.946 83.2533C71.8513 83.3315 71.7375 83.3848 71.6376 83.4168C71.5453 83.4464 71.4486 83.4688 71.3598 83.4893L71.3566 83.49C71.2667 83.5108 71.1847 83.5298 71.1086 83.5539C70.9091 83.6373 70.7489 83.8003 70.5596 83.9929C70.5429 84.0099 70.5259 84.0272 70.5087 84.0447C70.3077 84.2483 70.0672 84.4796 69.7331 84.5476C69.6787 84.5587 69.6224 84.5421 69.5828 84.5033C69.5134 84.4353 69.437 84.3666 69.3547 84.2928C69.3039 84.2472 69.2508 84.1996 69.1959 84.1489C69.0577 84.0215 68.9146 83.8808 68.8036 83.7322C68.6936 83.5849 68.6029 83.4138 68.5924 83.2259C68.5815 83.0289 68.6602 82.8422 68.8321 82.6743C68.8509 82.6558 68.8739 82.6422 68.899 82.6343ZM68.8973 82.635C68.8962 82.6354 68.8957 82.6356 68.8958 82.6356C68.8958 82.6355 68.8963 82.6353 68.8973 82.635ZM69.7473 84.1983C69.9331 84.1353 70.0905 83.9927 70.2709 83.8099C70.2893 83.7913 70.308 83.7722 70.327 83.7527C70.5076 83.5679 70.718 83.3525 70.9881 83.2421C70.9921 83.2405 70.9962 83.239 71.0003 83.2377C71.0926 83.2081 71.1893 83.1858 71.278 83.1652L71.2813 83.1645C71.3736 83.1432 71.4577 83.1236 71.5356 83.0986C71.607 83.0757 71.6797 83.0399 71.7331 82.9957C71.7865 82.9516 71.8077 82.9107 71.811 82.8756C71.8121 82.8646 71.8142 82.8538 71.8174 82.8433C71.8354 82.7831 71.8258 82.7211 71.7851 82.6478C71.7425 82.5713 71.6721 82.4946 71.5892 82.4192C71.5871 82.4173 71.5851 82.4153 71.583 82.4133C71.3776 82.2062 71.1855 82.0153 70.9959 81.8274C70.9459 81.872 70.8844 81.9184 70.818 81.9645C70.6344 82.0923 70.3785 82.2426 70.1206 82.385C69.8615 82.5281 69.5958 82.6658 69.3903 82.7688C69.2875 82.8203 69.1993 82.8634 69.134 82.8943C69.1015 82.9097 69.0739 82.9225 69.0528 82.9318C69.0495 82.9333 69.0463 82.9347 69.0432 82.9361C68.946 83.0396 68.9217 83.1291 68.9261 83.2074C68.9312 83.3006 68.9786 83.4082 69.0713 83.5323C69.163 83.655 69.2871 83.7785 69.4224 83.9033C69.4696 83.9468 69.5193 83.9915 69.569 84.0362C69.63 84.0909 69.6909 84.1457 69.7473 84.1983Z" fill="#1A2E35"/>
<path d="M72.1268 84.0682C72.2758 84.2485 72.3991 84.45 72.5223 84.6516C72.6882 84.9047 72.798 85.2473 72.6301 85.5162C72.5439 85.6741 72.3939 85.7548 72.2696 85.8142C71.7164 86.1414 71.1632 86.4687 70.5887 86.7701C70.563 86.7914 70.1259 85.8955 70.1135 85.7757C70.0384 85.3177 69.9824 85.4073 70.2746 85.079C70.7258 84.576 71.6453 84.6396 72.1268 84.0682Z" fill="#FFD57B"/>
<path fill-rule="evenodd" clip-rule="evenodd" d="M70.3989 85.1901C70.3839 85.2069 70.3701 85.2223 70.3574 85.2365C70.3053 85.2948 70.2716 85.3326 70.2475 85.3638C70.2337 85.3818 70.227 85.3925 70.2237 85.399C70.2211 85.4041 70.2208 85.4061 70.2206 85.4069L70.2206 85.4069C70.2197 85.4124 70.2186 85.4277 70.2299 85.4893C70.2329 85.5054 70.2367 85.5248 70.2411 85.5471C70.2514 85.5993 70.2648 85.6675 70.2781 85.7484C70.2786 85.7517 70.2791 85.755 70.2794 85.7583C70.2792 85.7561 70.279 85.7549 70.2791 85.7549C70.2794 85.7549 70.2822 85.7665 70.293 85.7959C70.3047 85.8279 70.3216 85.8696 70.3426 85.9185C70.3845 86.016 70.4399 86.1362 70.4963 86.253C70.5502 86.3646 70.6039 86.4712 70.6463 86.5502C71.1682 86.2711 71.6744 85.9717 72.1842 85.6702C72.1884 85.6677 72.1928 85.6653 72.1972 85.6632C72.3199 85.6046 72.4247 85.5429 72.4831 85.4359C72.4847 85.433 72.4864 85.4302 72.4881 85.4274C72.6012 85.2463 72.5397 84.9832 72.3823 84.7429L72.3795 84.7385C72.2899 84.5919 72.2039 84.4517 72.1104 84.3213C71.8515 84.5466 71.5282 84.6596 71.2431 84.7571C71.237 84.7591 71.231 84.7612 71.225 84.7633C70.8733 84.8834 70.5861 84.9815 70.3989 85.1901ZM70.513 86.6207C70.5025 86.6261 70.492 86.6328 70.482 86.6411C70.4909 86.6337 70.5006 86.6273 70.5108 86.6219C70.5115 86.6215 70.5123 86.6211 70.513 86.6207ZM71.135 84.4409C71.487 84.3206 71.7921 84.2055 71.9987 83.9603C72.0306 83.9224 72.0777 83.9006 72.1272 83.9009C72.1768 83.9011 72.2237 83.9233 72.2552 83.9615C72.4118 84.151 72.5403 84.361 72.6616 84.5594L72.6632 84.562C72.8362 84.827 72.9924 85.2456 72.7741 85.6003C72.6618 85.8025 72.4731 85.9014 72.348 85.9615C71.7989 86.2863 71.2456 86.6135 70.6705 86.9154C70.6313 86.9377 70.5894 86.9404 70.5571 86.9346C70.524 86.9286 70.501 86.9142 70.491 86.9074C70.4704 86.8934 70.4567 86.8776 70.4518 86.8718C70.4394 86.8573 70.4283 86.8406 70.4202 86.8278C70.4025 86.8 70.381 86.7621 70.3581 86.7197C70.3117 86.6339 70.253 86.5177 70.1954 86.3982C70.1377 86.2786 70.0799 86.1537 70.0355 86.0502C70.0134 85.9987 69.9939 85.9509 69.9793 85.911C69.9678 85.8797 69.9529 85.8369 69.9479 85.7994C69.9356 85.725 69.9246 85.6691 69.9149 85.6199C69.91 85.5953 69.9055 85.5724 69.9013 85.5498C69.8901 85.489 69.8792 85.4204 69.8914 85.3499C69.9047 85.2733 69.9412 85.2139 69.983 85.1596C70.0152 85.118 70.0595 85.0684 70.1125 85.0092C70.1244 84.9959 70.1368 84.982 70.1495 84.9677L70.1499 84.9672L70.1499 84.9672C70.397 84.6918 70.7613 84.568 71.0821 84.4589C71.0999 84.4529 71.1175 84.4469 71.135 84.4409Z" fill="#1A2E35"/>
<path fill-rule="evenodd" clip-rule="evenodd" d="M79.1492 69.5936C79.2203 69.5348 79.3256 69.5448 79.3844 69.6159C79.6672 69.958 81.073 71.9752 82.3996 73.8939C83.0649 74.8561 83.7128 75.7973 84.1944 76.498C84.4352 76.8484 84.6345 77.1386 84.7735 77.3412L84.9912 77.6586C84.9912 77.6586 84.9914 77.6589 84.8536 77.7533C84.7158 77.8478 84.7158 77.8478 84.7157 77.8477L84.498 77.5302C84.359 77.3277 84.1598 77.0375 83.9191 76.6873C83.4376 75.9868 82.7898 75.0458 82.1248 74.084C80.7908 72.1546 79.3976 70.1563 79.1269 69.8288C79.0681 69.7577 79.0781 69.6524 79.1492 69.5936ZM84.948 77.8911C84.8719 77.9433 84.7679 77.9238 84.7157 77.8477L84.8536 77.7533L84.9914 77.6589C85.0436 77.735 85.0241 77.839 84.948 77.8911Z" fill="#1A2E35"/>
<path fill-rule="evenodd" clip-rule="evenodd" d="M80.1272 73.9012C80.2029 73.8485 80.307 73.8672 80.3597 73.943C80.5888 74.2724 81.373 75.3784 82.1008 76.4031C82.4645 76.9153 82.8139 77.4067 83.0723 77.7702L83.4981 78.3689C83.4981 78.3689 83.4982 78.369 83.3621 78.4659C83.226 78.5628 83.226 78.5627 83.226 78.5627L82.8 77.9638C82.5416 77.6003 82.1922 77.1088 81.8284 76.5966C81.1012 75.5728 80.3157 74.4649 80.0854 74.1337C80.0327 74.058 80.0514 73.9539 80.1272 73.9012ZM83.459 78.602C83.3838 78.6555 83.2795 78.6379 83.226 78.5627L83.3621 78.4659L83.4981 78.3689C83.5516 78.4441 83.5341 78.5485 83.459 78.602Z" fill="#1A2E35"/>
<path d="M76.4687 79.829L78.9869 84.5536L79.8109 83.8723L77.0611 79.3394L76.4687 79.829Z" fill="#FFD57B"/>
<path fill-rule="evenodd" clip-rule="evenodd" d="M76.3213 79.9075C76.2839 79.8374 76.3011 79.7507 76.3623 79.7001L76.9546 79.2105C76.992 79.1796 77.041 79.1665 77.0889 79.1745C77.1367 79.1826 77.1787 79.2111 77.2039 79.2526L79.9538 83.7855C79.9968 83.8564 79.9813 83.9481 79.9174 84.001L79.0933 84.6822C79.0546 84.7141 79.0036 84.727 78.9544 84.7173C78.9052 84.7076 78.863 84.6763 78.8394 84.632L76.3213 79.9075ZM76.6803 79.8707L79.0381 84.2943L79.5932 83.8354L77.0185 79.5912L76.6803 79.8707Z" fill="#1A2E35"/>
<path opacity="0.2" d="M77.5374 61.8221C75.4624 62.9304 73.3973 63.6837 71.5741 63.8904C71.5741 63.8904 74.4463 65.6344 80.9551 67.3202L89.849 81.3835C89.849 81.3835 81.6918 87.5629 74.8913 91.4504C72.4621 84.7883 67.7161 72.2815 65.7332 70.6694C62.9997 68.4638 62.2825 63.7679 62.2825 63.7679C67.3374 57.7686 69.402 48.519 70.2173 41.4291C73.1474 49.0644 76.9699 59.3 77.5374 61.8221Z" fill="black" fill-opacity="0.7"/>
<path fill-rule="evenodd" clip-rule="evenodd" d="M43.6786 43.2822C43.6938 43.2404 43.7251 43.2063 43.7655 43.1877L66.7511 32.5538C66.793 32.5344 66.8409 32.5332 66.8837 32.5504C66.9264 32.5676 66.9601 32.6017 66.9769 32.6446L66.8213 32.7054C66.9769 32.6446 66.9768 32.6444 66.9769 32.6446L67.0895 32.9335C67.1629 33.1222 67.2707 33.3993 67.4082 33.7533C67.6831 34.4614 68.0766 35.4769 68.551 36.7068C69.4998 39.1667 70.7723 42.4844 72.0666 45.9155C73.3608 49.3464 74.6773 52.8915 75.714 55.8058C76.7368 58.6811 77.4934 60.9585 77.6822 61.9003L89.9434 81.2898C89.9899 81.3633 89.9722 81.4602 89.9028 81.5125L89.866 81.4638C89.9027 81.5126 89.9029 81.5125 89.9028 81.5125L89.9022 81.513L89.9004 81.5143L89.8665 81.5398C89.8425 81.5578 89.8069 81.5845 89.7602 81.6194C89.6668 81.6893 89.5289 81.7921 89.351 81.9239C88.9953 82.1876 88.4794 82.5674 87.8387 83.0322C86.5574 83.9619 84.7765 85.2321 82.7782 86.5938C78.7858 89.3143 73.9116 92.41 70.4211 93.8795C70.3422 93.9127 70.251 93.8809 70.2098 93.8058L70.3563 93.7255C70.2098 93.8058 70.2099 93.806 70.2098 93.8058L70.079 93.5674C69.9935 93.4117 69.8679 93.1829 69.7073 92.8908C69.3863 92.3067 68.9255 91.4693 68.3668 90.4563C67.2495 88.4302 65.7405 85.7018 64.1741 82.8924C61.0373 77.2667 57.6801 71.3347 56.7658 70.0465L56.7636 70.0434C56.3189 69.3853 55.2779 67.3862 53.9736 64.7753C52.6661 62.1583 51.087 58.912 49.5628 55.747C48.0386 52.582 46.569 49.4979 45.4805 47.2051C44.9363 46.0587 44.4873 45.11 44.1743 44.448C44.0179 44.117 43.8954 43.8576 43.8121 43.681L43.6846 43.4108C43.6845 43.4106 43.6845 43.4105 43.8356 43.3393L43.6846 43.4108C43.6657 43.3705 43.6634 43.324 43.6786 43.2822ZM44.0585 43.4202L44.1142 43.5384C44.1976 43.715 44.32 43.9743 44.4764 44.3052C44.7893 44.9671 45.2382 45.9156 45.7824 47.0618C46.8707 49.3543 48.34 52.4378 49.8639 55.6021C51.3878 58.7665 52.9661 62.0111 54.2725 64.626C55.5809 67.245 56.6096 69.2179 57.0395 69.8548C57.969 71.1655 61.3373 77.1187 64.4659 82.7297C66.0327 85.5397 67.5419 88.2686 68.6594 90.2949C69.2182 91.3081 69.679 92.1456 70.0001 92.7299C70.1607 93.022 70.2864 93.2508 70.3719 93.4066L70.4301 93.5126C73.8761 92.0349 78.6493 89.003 82.5901 86.3176C84.585 84.9583 86.3631 83.6901 87.6425 82.7618C88.2822 82.2977 88.7971 81.9185 89.1521 81.6555C89.3296 81.5239 89.467 81.4214 89.5601 81.3518C89.5665 81.3471 89.5726 81.3425 89.5786 81.338L77.3831 62.0525C77.3719 62.0349 77.3642 62.0154 77.3602 61.9949C77.1882 61.1038 76.4373 58.8361 75.3992 55.9178C74.3635 53.0064 73.0479 49.4636 71.7539 46.0334C70.46 42.6033 69.1879 39.2865 68.2393 36.8271C67.765 35.5974 67.3716 34.5821 67.0967 33.8743C66.9593 33.5204 66.8515 33.2433 66.7781 33.0547L66.7301 32.9316L44.0585 43.4202Z" fill="#1A2E35"/>
<path d="M87.4623 74.7721L100.733 96.2285C99.0976 95.4562 95.7083 94.6598 93.9901 94.2593C93.3405 94.1028 92.9428 94.0413 92.9428 94.0413L91.8832 93.7034C86.5628 92.249 83.1993 88.18 79.9347 85.0696C76.6488 81.9335 77.0072 82.1574 74.577 79.0075C72.1468 75.8577 70.4506 74.2253 68.5628 72.361C66.6751 70.4968 63.2827 67.2319 62.5384 65.0728C62.1662 63.9932 62.2812 63.0311 62.8657 62.3746C63.4759 61.6968 64.5812 61.3033 66.185 61.4081C69.32 61.6345 75.7249 67.9146 76.4061 68.7387C77.1086 69.5886 79.3013 72.2412 80.7496 72.7347C80.7025 72.7302 84.9266 74.4839 87.4623 74.7721Z" fill="white"/>
<path fill-rule="evenodd" clip-rule="evenodd" d="M62.7287 62.2183C63.3924 61.4944 64.556 61.1214 66.1499 61.2365C66.9751 61.2961 67.9905 61.7475 69.0447 62.3813C70.1046 63.0185 71.2253 63.8536 72.2664 64.7053C74.3459 66.4067 76.1267 68.1905 76.4877 68.6273C76.839 69.0522 77.5534 69.9164 78.3621 70.7385C78.7665 71.1496 79.1923 71.548 79.6061 71.8747C80.0219 72.203 80.4162 72.4514 80.7581 72.5722C80.7599 72.5728 80.7617 72.5735 80.7636 72.5742C80.7645 72.5746 80.7655 72.575 80.7665 72.5754L80.7693 72.5766L80.7783 72.5803L80.8137 72.5948C80.845 72.6076 80.8913 72.6265 80.9513 72.6506C81.0711 72.6989 81.2454 72.7683 81.4624 72.8525C81.8966 73.0208 82.5019 73.2483 83.186 73.4847C84.5582 73.9589 86.233 74.4638 87.4811 74.6056C87.5727 74.616 87.6386 74.6988 87.6282 74.7905C87.6178 74.8821 87.535 74.948 87.4433 74.9376C86.1556 74.7913 84.4505 74.2752 83.0768 73.8005C82.3879 73.5624 81.7787 73.3334 81.3416 73.164C81.1231 73.0792 80.9475 73.0093 80.8264 72.9606C80.7659 72.9362 80.719 72.9171 80.6872 72.9041L80.6509 72.8892L80.6425 72.8857C80.2507 72.7464 79.824 72.4725 79.399 72.1369C78.9704 71.7985 78.5339 71.3896 78.1239 70.9729C77.3045 70.1399 76.5824 69.2662 76.2309 68.841L76.2302 68.8402C75.8887 68.4271 74.1264 66.6588 72.0548 64.9639C71.0203 64.1175 69.9133 63.2934 68.8726 62.6677C67.8262 62.0386 66.868 61.6233 66.1258 61.5698C64.5848 61.4585 63.5422 61.8254 62.9749 62.4441C62.4129 63.0572 62.2799 63.9597 62.6488 65.0126C63.0195 66.0703 64.0322 67.4043 65.2073 68.721C66.2511 69.8906 67.4065 71.0287 68.315 71.9237C68.4248 72.0318 68.531 72.1365 68.633 72.2372C68.7297 72.3327 68.8259 72.4276 68.9218 72.5221C70.6977 74.2738 72.3493 75.9029 74.6621 78.9005C75.0842 79.4476 75.4215 79.892 75.7078 80.2692C76.2491 80.9823 76.6084 81.4556 77.0147 81.9301C77.6333 82.6525 78.3592 83.375 80.0029 84.9438C80.5261 85.4431 81.0498 85.9643 81.5815 86.4934C84.4092 89.3073 87.4634 92.3465 91.8795 93.5371C91.882 93.5377 91.8844 93.5385 91.8868 93.5392L92.9381 93.8745L92.9456 93.876L92.9927 93.8859C93.034 93.8945 93.0948 93.9074 93.173 93.9241C93.3293 93.9574 93.5549 94.0063 93.8327 94.0681C94.3882 94.1918 95.1525 94.3676 95.9874 94.5762C97.6519 94.992 99.6145 95.5421 100.756 96.0719C100.84 96.1108 100.876 96.2101 100.837 96.2938C100.799 96.3775 100.699 96.4139 100.616 96.375C99.5069 95.8606 97.5743 95.3171 95.9064 94.9004C95.075 94.6927 94.3137 94.5175 93.7601 94.3943C93.4834 94.3327 93.2587 94.284 93.1032 94.2508C93.0255 94.2342 92.9651 94.2215 92.9241 94.2129L92.8776 94.2032L92.8629 94.2001L92.8621 94.2C92.8621 94.2 92.8619 94.1999 92.8957 94.0363L92.8621 94.2C92.859 94.1993 92.8557 94.1986 92.8527 94.1977C92.8501 94.197 92.8475 94.1963 92.8449 94.1955L91.7889 93.8587C87.2811 92.6422 84.1561 89.5301 81.3307 86.7163C80.8031 86.1909 80.286 85.6758 79.7722 85.1855C78.13 83.6181 77.3921 82.8845 76.7609 82.1474C76.3482 81.6654 75.9803 81.1808 75.4337 80.4607C75.1478 80.0841 74.8131 79.6432 74.3976 79.1046C72.0987 76.125 70.4602 74.5089 68.6865 72.7593C68.5908 72.665 68.4948 72.5703 68.3983 72.4749C68.2966 72.3745 68.1905 72.27 68.0806 72.1618C67.1729 71.2676 66.0095 70.1217 64.958 68.9434C63.7842 67.6282 62.7285 66.2502 62.3335 65.1231C61.9368 63.991 62.0597 62.948 62.7287 62.2183Z" fill="#1A2E35"/>
<path fill-rule="evenodd" clip-rule="evenodd" d="M71.8751 74.1497C71.8389 74.2346 71.7408 74.274 71.6559 74.2378C71.5711 74.2016 71.5316 74.1034 71.5678 74.0186L71.7215 74.0841C71.5678 74.0186 71.5678 74.0186 71.5678 74.0186L71.5689 74.016L71.572 74.0089L71.5837 73.9818C71.594 73.9581 71.6093 73.9235 71.6291 73.8791C71.6686 73.7905 71.7264 73.6631 71.7996 73.5077C71.946 73.1971 72.1544 72.7737 72.4021 72.323C72.6496 71.8727 72.9378 71.3926 73.2442 70.9697C73.5487 70.5493 73.8793 70.1739 74.214 69.9439C74.29 69.8916 74.394 69.9109 74.4463 69.987C74.4985 70.063 74.4792 70.167 74.4032 70.2193C74.1158 70.4167 73.812 70.7554 73.5148 71.1657C73.2195 71.5734 72.9387 72.0405 72.6949 72.4839C72.4514 72.927 72.2462 73.3439 72.1019 73.6502C72.0298 73.8032 71.9729 73.9285 71.9342 74.0153C71.9148 74.0587 71.9 74.0925 71.89 74.1153L71.8788 74.1412L71.876 74.1477L71.8751 74.1497Z" fill="#1A2E35"/>
</svg>
