<svg xmlns="http://www.w3.org/2000/svg" width="57" height="48" viewBox="0 0 57 48" fill="none">
<path d="M23.7454 48C18.5241 47.7906 13.8621 46.0633 10.2569 42.9226C0.74655 34.6521 0.933027 19.0534 0.933027 17.3261V1.04689C0.933027 0.471101 1.49246 0 2.17621 0H21.2591C21.9428 0 22.5023 0.471101 22.5023 1.04689V17.1167C22.5023 17.6925 21.9428 18.1636 21.2591 18.1636H11.5001C11.5001 19.5245 11.6866 31.4068 17.8403 36.7459C19.5186 38.1592 21.4456 38.9444 23.8698 39.1014C24.4914 39.1538 25.0508 39.5725 25.0508 40.1483V46.9531C25.0508 47.2148 24.9265 47.5289 24.6778 47.6859C24.4292 47.8953 24.0562 48 23.7454 48Z" fill="#F4B42D"/>
<path d="M55.6948 47.6859C55.4461 47.8953 55.1353 48 54.7624 48C49.541 47.7906 44.8791 46.0633 41.2738 42.9226C31.7635 34.6521 31.95 19.0534 31.95 17.3261V1.04689C31.95 0.471101 32.5094 0 33.1931 0H52.3382C53.0219 0 53.5814 0.471101 53.5814 1.04689V17.1167C53.5814 17.6925 53.0219 18.1636 52.3382 18.1636H42.5792C42.5792 19.5245 42.7657 31.4068 48.9194 36.7459C50.5977 38.1592 52.5246 38.9444 54.9489 39.1014C55.5705 39.1538 56.1299 39.5725 56.1299 40.1483V46.9531C56.0677 47.2148 55.9434 47.4766 55.6948 47.6859Z" fill="#F4B42D"/>
</svg>