<svg xmlns="http://www.w3.org/2000/svg" width="27" height="26" viewBox="0 0 16 15" fill="none">
<path d="M7.40699 0.432812C7.58385 -0.144271 8.41615 -0.144271 8.59301 0.432812L9.97259 4.93416C10.0528 5.19581 10.3009 5.3728 10.5792 5.36683L15.3659 5.264C15.9796 5.25082 16.2368 6.02797 15.7324 6.37144L11.7983 9.05061C11.5696 9.20634 11.4748 9.49272 11.5666 9.75068L13.1454 14.1885C13.3478 14.7574 12.6744 15.2377 12.1859 14.8729L8.37487 12.0274C8.15335 11.862 7.84665 11.862 7.62513 12.0274L3.81413 14.8729C3.32555 15.2377 2.65221 14.7574 2.85462 14.1885L4.4334 9.75068C4.52518 9.49272 4.4304 9.20634 4.20172 9.0506L0.267607 6.37144C-0.236755 6.02797 0.0204372 5.25082 0.634108 5.264L5.42085 5.36683C5.69909 5.3728 5.94722 5.19581 6.02741 4.93416L7.40699 0.432812Z" fill="#EFB84C"/>
</svg>