<svg width="135" height="119" viewBox="0 0 135 119" fill="none" xmlns="http://www.w3.org/2000/svg">
<path d="M128.5 37.8199C115.91 14.6068 93.9833 -6.42614 58.5 2.77455C23.0166 11.9753 7.62939e-05 41.7504 7.62939e-05 75.8199C7.62939e-05 101.381 18.6111 123.398 56.5 117.32C114.669 107.989 150.351 78.1069 128.5 37.8199Z" fill="#EEEEEE"/>
<rect x="18.0283" y="20.0381" width="101.081" height="85.1208" rx="6" fill="#CCA146"/>
<rect x="15.3364" y="17.8779" width="100.081" height="84.1208" rx="5.5" fill="white" stroke="#065D63"/>
<path d="M58.1785 36.4054L59.5209 28.351H59.5249H59.5356H59.5462H59.5569H59.5675H59.5781H59.5888H59.5994H59.61H59.6206H59.6312H59.6418H59.6524H59.663H59.6736H59.6842H59.6947H59.7053H59.7159H59.7264H59.737H59.7475H59.7581H59.7686H59.7792H59.7897H59.8002H59.8107H59.8212H59.8318H59.8423H59.8528H59.8633H59.8738H59.8843H59.8947H59.9052H59.9157H59.9262H59.9366H59.9471H59.9576H59.968H59.9785H59.9889H59.9993H60.0098H60.0202H60.0306H60.0411H60.0515H60.0619H60.0723H60.0827H60.0931H60.1035H60.1139H60.1243H60.1347H60.1451H60.1555H60.1658H60.1762H60.1866H60.197H60.2073H60.2177H60.228H60.2384H60.2487H60.2591H60.2694H60.2797H60.2901H60.3004H60.3107H60.321H60.3314H60.3417H60.352H60.3623H60.3726H60.3829H60.3932H60.4035H60.4138H60.424H60.4343H60.4446H60.4549H60.4652H60.4754H60.4857H60.496H60.5062H60.5165H60.5267H60.537H60.5472H60.5575H60.5677H60.5779H60.5882H60.5984H60.6086H60.6189H60.6291H60.6393H60.6495H60.6597H60.67H60.6802H60.6904H60.7006H60.7108H60.721H60.7312H60.7414H60.7516H60.7618H60.7719H60.7821H60.7923H60.8025H60.8127H60.8228H60.833H60.8432H60.8533H60.8635H60.8737H60.8838H60.894H60.9041H60.9143H60.9245H60.9346H60.9447H60.9549H60.965H60.9752H60.9853H60.9955H61.0056H61.0157H61.0258H61.036H61.0461H61.0562H61.0664H61.0765H61.0866H61.0967H61.1068H61.1169H61.1271H61.1372H61.1473H61.1574H61.1675H61.1776H61.1877H61.1978H61.2079H61.218H61.2281H61.2382H61.2483H61.2584H61.2685H61.2785H61.2886H61.2987H61.3088H61.3189H61.329H61.3391H61.3491H61.3592H61.3693H61.3794H61.3894H61.3995H61.4096H61.4197H61.4297H61.4398H61.4499H61.4599H61.47H61.4801H61.4901H61.5002H61.5103H61.5203H61.5304H61.5405H61.5505H61.5606H61.5706H61.5807H61.5908H61.6008H61.6109H61.6209H61.631H61.641H61.6511H61.6611H61.6712H61.6813H61.6913H61.7014H61.7114H61.7215H61.7315H61.7416H61.7516H61.7617H61.7717H61.7818H61.7918H61.8019H61.8119H61.822H61.832H61.8421H61.8521H61.8622H61.8722H61.8823H61.8923H61.9024H61.9124H61.9225H61.9325H61.9426H61.9526H61.9627H61.9727H61.9828H61.9928H62.0029H62.0129H62.023H62.033H62.0431H62.0531H62.0632H62.0732H62.0833H62.0934H62.1034H62.1135H62.1235H62.1336H62.1436H62.1537H62.1638H62.1738H62.1839H62.1939H62.204H62.2141H62.2241H62.2342H62.2443H62.2543H62.2644H62.2745H62.2845H62.2946H62.3047H62.3148H62.3248H62.3349H62.345H62.3551H62.3651H62.3752H62.3853H62.3954H62.4055H62.4155H62.4256H62.4357H62.4458H62.4559H62.466H62.4761H62.4862H62.4963H62.5064H62.5165H62.5266H62.5367H62.5468H62.5569H62.567H62.5771H62.5872H62.5973H62.6074H62.6175H62.6276H62.6378H62.6479H62.658H62.6681H62.6782H62.6884H62.6985H62.7086H62.7188H62.7289H62.739H62.7492H62.7593H62.7695H62.7796H62.7898H62.7999H62.8101H62.8202H62.8304H62.8405H62.8507H62.8608H62.871H62.8812H62.8913H62.9015H62.9117H62.9219H62.932H62.9422H62.9524H62.9626H62.9728H62.983H62.9932H63.0034H63.0136H63.0238H63.034H63.0442H63.0544H63.0646H63.0748H63.085H63.0953H63.1055H63.1157H63.1259H63.1362H63.1464H63.1567H63.1669H63.1771H63.1874H63.1976H63.2079H63.2182H63.2284H63.2387H63.2489H63.2592H63.2695H63.2798H63.29H63.3003H63.3106H63.3209H63.3312H63.3415H63.3518H63.3621H63.3724H63.3827H63.393H63.4033H63.4137H63.424H63.4343H63.4446H63.455H63.4653H63.4757H63.486H63.4964H63.5067H63.5171H63.5274H63.5378H63.5482H63.5585H63.5689H63.5793H63.5897H63.6001H63.6105H63.6208H63.6313H63.6417H63.6521H63.6625H63.6729H63.6833H63.6937H63.7042H63.7146H63.725H63.7355H63.7459H63.7564H63.7668H63.7773H63.7878H63.7982H63.8087H63.8192H63.8297H63.8401H63.8506H63.8611H63.8716H63.8821H63.8926H63.9031H63.9137H63.9242H63.9347H63.9452H63.9558H63.9663H63.9769H63.9874H63.998H64.0085H64.0191H64.0297H64.0403H64.0508H64.0614H64.072H64.0826H64.0932H64.1038H64.1144H64.125H64.1357H64.1463H64.1569H64.1676H64.17L66.0023 59.501L64.17 90.651H59.5209L58.1785 82.5966L58.1422 82.3787L57.9299 82.3177C56.2199 81.8263 54.5747 81.1438 53.0146 80.2789L52.8213 80.1717L52.6414 80.3002L45.9943 85.0481L38.9528 78.0066L43.7008 71.3595L43.8293 71.1797L43.7221 70.9864C42.8561 69.424 42.1739 67.7781 41.6833 66.0711L41.6223 65.8588L41.4044 65.8225L33.35 64.4801V54.5219L41.4044 53.1795L41.6223 53.1432L41.6833 52.9309C42.1746 51.2213 42.8573 49.5757 43.7221 48.0155L43.8293 47.8223L43.7008 47.6424L38.9528 40.9953L45.9943 33.9538L52.6414 38.7018L52.8213 38.8302L53.0146 38.7231C54.5769 37.8571 56.2228 37.1749 57.9299 36.6842L58.1422 36.6232L58.1785 36.4054Z" fill="#ECBF5E" stroke="#065D63" stroke-width="0.7"/>
<path d="M71.1668 82.6541C72.8994 82.1563 74.5697 81.4638 76.1551 80.585C78.0219 81.9185 81.9441 84.72 83.0435 85.5053L90.5043 78.0445C89.1708 76.1777 86.3693 72.2556 85.584 71.1561C86.4616 69.5731 87.1544 67.903 87.6531 66.1677C89.9237 65.7892 94.6761 64.9972 96 64.7765C96 63.4941 96 55.5113 96 54.2254C93.7294 53.847 88.977 53.0548 87.6531 52.8342C87.1552 51.1015 86.4629 49.4314 85.584 47.8459C86.9175 45.9791 89.719 42.0569 90.5043 40.9575C89.5975 40.0507 83.9527 34.4059 83.0435 33.4967C81.1767 34.8302 77.2545 37.6317 76.1551 38.417C74.5721 37.5394 72.902 36.8465 71.1668 36.3479C70.7883 34.0774 69.9962 29.325 69.7756 28.001C67.9302 28.001 66.3453 28.001 64.5 28.001V91.001H69.7756C70.1539 88.7304 70.9461 83.978 71.1668 82.6541Z" fill="#CCA146"/>
<path d="M48.75 59.501C48.75 68.1853 55.8151 75.251 64.5 75.251L66.3529 59.501L64.5 43.751C55.8156 43.751 48.75 50.8161 48.75 59.501Z" fill="#F6C969"/>
<path d="M64.85 74.8971V44.1049C73.1806 44.2916 79.9 51.1269 79.9 59.501C79.9 67.8756 73.1801 74.7103 64.85 74.8971Z" fill="#ECBF5E" stroke="#065D63" stroke-width="0.7"/>
<path d="M52.4561 59.5011C52.4561 62.6969 53.7153 65.7212 55.9513 67.9764L66.3531 59.5011L64.5002 47.457C57.8592 47.457 52.4561 52.8598 52.4561 59.5011Z" fill="white"/>
<path d="M73.0125 50.9886C70.8316 48.8078 67.8206 47.457 64.5 47.457V59.5011L73.0489 67.9764C77.7206 63.2643 77.7106 55.6868 73.0125 50.9886Z" fill="white"/>
<path d="M55.9512 67.9761C58.2084 70.2527 61.2624 71.545 64.5 71.545C64.5 70.3864 65.7353 66.9126 65.7353 66.9126C65.7353 66.9126 64.5 63.0585 64.5 62.2803C60.7085 62.2803 57.3724 64.5842 55.9512 67.9761Z" fill="#ECBF5E"/>
<path d="M64.5 62.2803V71.545C67.7318 71.545 70.7875 70.2568 73.0489 67.9761C71.6299 64.5895 68.2973 62.2803 64.5 62.2803Z" fill="#CCA146"/>
<path d="M58.0146 59.5009C58.0146 63.0767 60.9238 65.9862 64.4999 65.9862L66.3529 59.5009L64.4999 53.0156C60.924 53.0156 58.0146 55.9247 58.0146 59.5009Z" fill="#ECBF5E"/>
<path d="M70.9853 59.5009C70.9853 55.9251 68.0762 53.0156 64.5 53.0156V65.9862C68.0758 65.9862 70.9853 63.077 70.9853 59.5009Z" fill="#ECBF5E"/>
</svg>
