<svg width="153" height="143" viewBox="0 0 153 143" fill="none" xmlns="http://www.w3.org/2000/svg">
<path d="M24.0001 23C46.4885 -4.63568 78.3413 9.94124 99.0001 18.9982C134.993 34.7778 146.8 59.9377 141 96C134.567 136 52.5 142.5 28 116.499C8.43073 95.7317 2.53881 57.174 24.0001 23Z" fill="#EEEEEE"/>
<rect x="32.0283" y="24.8584" width="101.081" height="85.1208" rx="6" fill="#CCA146"/>
<rect x="29.3364" y="22.6982" width="100.081" height="84.1208" rx="5.5" fill="white" stroke="#065D63"/>
<path d="M108.724 60.0195V78.6615C108.724 86.4453 95.126 90.6732 82.2979 90.6732C69.4697 90.6732 55.8721 86.4453 55.8721 78.6615V60.0195C55.8721 58.722 56.9287 57.6172 58.2744 57.6172H106.321C107.667 57.6172 108.724 58.722 108.724 60.0195Z" fill="#ECBF5E"/>
<path d="M108.724 60.0195V78.6615C108.724 86.4453 95.126 90.6732 82.2979 90.6732V57.6172H106.321C107.667 57.6172 108.724 58.722 108.724 60.0195Z" fill="#CCA146"/>
<path d="M123.298 54.6377C123.298 55.6468 122.673 56.5596 121.76 56.8955L83.1623 71.3096C82.8745 71.406 82.5861 71.4541 82.2977 71.4541C82.0093 71.4541 81.7209 71.406 81.4331 71.3096L42.8354 56.8955V52.3793L81.4331 37.9652C81.7209 37.8695 82.0093 37.8213 82.2977 37.8213C82.5861 37.8213 82.8745 37.8695 83.1623 37.9652L121.76 52.3793C122.673 52.7158 123.298 53.6286 123.298 54.6377Z" fill="#F6C969"/>
<path d="M123.298 54.6377C123.298 55.6468 122.674 56.5596 121.76 56.8955L83.1624 71.3096C82.8747 71.406 82.5863 71.4541 82.2979 71.4541V37.8213C82.5863 37.8213 82.8747 37.8695 83.1624 37.9652L121.76 52.3793C122.674 52.7158 123.298 53.6286 123.298 54.6377Z" fill="#ECBF5E"/>
<path d="M46.058 55.5546H45.708V55.9046V86.2026V86.268L45.7316 86.329L50.3486 98.2526L50.3485 98.2526L50.3505 98.2573C50.6865 99.0888 50.1815 100.077 49.1105 100.36L49.1105 100.36L49.1035 100.362C47.949 100.692 46.8339 100.161 46.5307 99.3144L46.5308 99.3144L46.5272 99.3053L46.384 98.9384L45.9447 97.8128L45.7144 98.999C45.5613 99.7874 44.7294 100.471 43.6779 100.471C42.4858 100.471 41.6479 99.6811 41.6479 98.7796V53.863C41.6479 52.961 42.4857 52.1713 43.6779 52.1713H81.9178C83.11 52.1713 83.9479 52.961 83.9479 53.863C83.9479 54.7644 83.1099 55.5546 81.9178 55.5546H46.058Z" fill="#CCA146" stroke="#065D63" stroke-width="0.7"/>
</svg>
