<svg width="133" height="124" viewBox="0 0 133 124" fill="none" xmlns="http://www.w3.org/2000/svg">
<path d="M7.99987 34.5003C20.59 11.2873 45.0167 -6.70045 80.5 2.50024C115.983 11.7009 133 37.9305 133 71.9999C133 97.5608 112.889 129.078 75 123C16.8314 113.669 -13.8508 74.7874 7.99987 34.5003Z" fill="#EEEEEE"/>
<rect x="17.7305" y="17.0371" width="101.081" height="85.1208" rx="6" fill="#CCA146"/>
<path d="M115.62 93.0292V21.293H17.6572L14.5386 23.8961V92.7591C14.5386 96.4807 17.6211 99.4977 21.4235 99.4977L110.3 99.2317C113.105 98.3634 115.62 96.0621 115.62 93.0292Z" fill="white"/>
<path d="M115.804 20.2267C115.804 17.4839 113.766 15.1622 110.956 14.377H21.436C17.6267 14.377 14.5386 17.1054 14.5386 20.471V31.4216H115.804V20.2267Z" fill="#F6C969"/>
<path d="M26.2463 24.542C27.0862 24.542 27.7671 23.8611 27.7671 23.0212C27.7671 22.1814 27.0862 21.5005 26.2463 21.5005C25.4065 21.5005 24.7256 22.1814 24.7256 23.0212C24.7256 23.8611 25.4065 24.542 26.2463 24.542Z" fill="white"/>
<path d="M33.4133 24.5415C34.2532 24.5415 34.9341 23.8606 34.9341 23.0208C34.9341 22.1809 34.2532 21.5 33.4133 21.5C32.5734 21.5 31.8926 22.1809 31.8926 23.0208C31.8926 23.8606 32.5734 24.5415 33.4133 24.5415Z" fill="white"/>
<path d="M40.5808 24.5415C41.4207 24.5415 42.1016 23.8606 42.1016 23.0208C42.1016 22.1809 41.4207 21.5 40.5808 21.5C39.7409 21.5 39.0601 22.1809 39.0601 23.0208C39.0601 23.8606 39.7409 24.5415 40.5808 24.5415Z" fill="white"/>
<path d="M106.708 23.0209V23.021C106.708 23.7252 106.137 24.2962 105.432 24.2962H96.5014C95.7969 24.2962 95.2261 23.7253 95.2261 23.0209C95.2261 22.3164 95.797 21.7456 96.5014 21.7456H105.432C106.137 21.7456 106.708 22.3165 106.708 23.0209Z" fill="white" stroke="#065D63" stroke-width="0.5"/>
<path d="M79.8097 65.9077C79.8097 53.4801 71.446 43.0062 60.0402 39.8071C47.7705 42.162 38.4995 52.9512 38.4995 65.9077C38.4995 78.8643 47.7707 89.6535 60.0402 92.0084C71.446 88.8093 79.8097 78.3352 79.8097 65.9077Z" fill="#ECBF5E"/>
<path d="M65.079 39.3281C62.7849 39.3281 60.5587 39.6187 58.4351 40.1652C69.8997 43.1155 78.3709 53.5223 78.3709 65.9077C78.3709 78.2931 69.8997 88.7001 58.4351 91.6502C60.5585 92.1967 62.7847 92.4873 65.079 92.4873C79.7584 92.4873 91.6587 80.5871 91.6587 65.9075C91.6587 51.2282 79.7584 39.3281 65.079 39.3281Z" fill="#CCA146"/>
<path d="M76.2401 47.4312C73.3295 42.2058 69.3656 39.3281 65.0789 39.3281C60.7923 39.3281 56.8284 42.2058 53.9178 47.4312C51.1556 52.3901 49.6343 58.9517 49.6343 65.9079C49.6343 72.8639 51.1556 79.4257 53.9178 84.3846C56.8284 89.6098 60.7923 92.4877 65.0789 92.4877C69.3656 92.4877 73.3295 89.6098 76.2401 84.3846C79.0023 79.4257 80.5236 72.8639 80.5236 65.9079C80.5236 58.9519 79.0023 52.3901 76.2401 47.4312ZM63.6364 89.4408C60.9705 88.844 58.4562 86.603 56.4383 82.9805C53.9111 78.4439 52.5194 72.3808 52.5194 65.9079C52.5194 59.4349 53.9111 53.3719 56.4383 48.8353C58.456 45.2127 60.9705 42.9718 63.6364 42.375V89.4408ZM73.7196 82.9805C71.7019 86.603 69.1873 88.844 66.5215 89.4408V42.375C69.1873 42.9718 71.7017 45.2127 73.7196 48.8353C76.2468 53.3719 77.6385 59.4349 77.6385 65.9079C77.6385 72.3808 76.2468 78.4439 73.7196 82.9805Z" fill="#F6C969"/>
<path d="M103.65 56.3064V75.6936C103.65 77.8336 101.631 79.6502 99.0334 79.65H31.9669C29.3685 79.65 27.35 77.8335 27.35 75.6936V56.3064C27.35 54.1665 29.3685 52.35 31.9669 52.35H99.0334C101.632 52.35 103.65 54.1665 103.65 56.3064Z" fill="#F6C969" stroke="#065D63" stroke-width="0.7"/>
<path d="M54.4705 72.1324C55.3023 72.1324 55.9766 71.4581 55.9766 70.6263C55.9766 69.7944 55.3023 69.1201 54.4705 69.1201C53.6387 69.1201 52.9644 69.7944 52.9644 70.6263C52.9644 71.4581 53.6387 72.1324 54.4705 72.1324Z" fill="white"/>
<path d="M75.7581 72.1324C76.5899 72.1324 77.2642 71.4581 77.2642 70.6263C77.2642 69.7944 76.5899 69.1201 75.7581 69.1201C74.9263 69.1201 74.252 69.7944 74.252 70.6263C74.252 71.4581 74.9263 72.1324 75.7581 72.1324Z" fill="white"/>
<path d="M50.8969 59.8196C50.1024 59.5414 49.2316 59.9594 48.9528 60.7546L47.1288 65.9589L45.3333 60.6956C45.3317 60.691 45.3297 60.6871 45.3281 60.6825C45.1147 60.0752 44.5436 59.6695 43.9025 59.6642C43.8765 59.664 43.8502 59.6638 43.824 59.665C43.2147 59.6911 42.6724 60.0776 42.4574 60.6653C42.456 60.6691 42.4542 60.6725 42.4529 60.6764L40.5525 66.0088L38.7535 60.7747C38.4799 59.9781 37.613 59.554 36.8152 59.8279C36.0186 60.1015 35.5946 60.9696 35.8684 61.7662L39.0836 71.1219C39.2943 71.7349 39.8694 72.1477 40.5177 72.1515H40.5262C41.171 72.1515 41.7465 71.746 41.963 71.1381L43.8581 65.8205L45.6655 71.1185C45.8754 71.7339 46.4527 72.1485 47.103 72.1513H47.1093C47.757 72.1513 48.3343 71.7422 48.5489 71.1304L51.8323 61.7634C52.1106 60.9688 51.6919 60.0981 50.8969 59.8196Z" fill="white"/>
<path d="M72.1237 59.8195C71.3295 59.5413 70.4585 59.9595 70.1797 60.7545L68.3557 65.9588L66.5601 60.6955C66.5585 60.6909 66.5566 60.687 66.555 60.6824C66.3461 60.0876 65.7998 59.6987 65.2003 59.6657C65.1768 59.6643 65.1535 59.6643 65.1302 59.6641C64.482 59.658 63.9064 60.058 63.6843 60.6651C63.6829 60.6688 63.6811 60.6722 63.6797 60.6761L61.7793 66.0085L59.9806 60.7744C59.707 59.9776 58.8391 59.5536 58.0423 59.8276C57.2457 60.1012 56.8216 60.9693 57.0954 61.7659L60.3105 71.1216C60.5209 71.7346 61.0962 72.1474 61.7444 72.1512H61.7531C62.3978 72.1512 62.9733 71.7457 63.1899 71.1378L65.085 65.8202L66.8926 71.1185C67.1026 71.7338 67.6797 72.1484 68.33 72.1512H68.3363C68.9841 72.1512 69.5614 71.7421 69.776 71.1303L73.0591 61.7633C73.3375 60.9687 72.9188 60.0981 72.1237 59.8195Z" fill="white"/>
<path d="M93.3515 59.8195C92.557 59.5413 91.686 59.9593 91.4074 60.7545L89.5834 65.9588L87.7879 60.6954C87.7863 60.6909 87.7843 60.687 87.7827 60.6824C87.5772 60.0974 87.0377 59.6996 86.4284 59.6657C86.4047 59.6643 86.381 59.6643 86.3571 59.6641C85.6973 59.6592 85.1288 60.0724 84.912 60.665C84.9106 60.6688 84.9088 60.6721 84.9074 60.6761L83.0068 66.0085L81.2081 60.7744C80.9345 59.9776 80.0666 59.5535 79.2698 59.8276C78.4732 60.1012 78.0491 60.9693 78.323 61.7659L81.538 71.1216C81.7485 71.7346 82.3238 72.1474 82.9719 72.1512H82.9806C83.6254 72.1512 84.2009 71.7459 84.4174 71.1378L86.3127 65.8202L88.1201 71.1184C88.33 71.7338 88.9073 72.1484 89.5576 72.1512H89.5639C90.2116 72.1512 90.7889 71.7421 91.0035 71.1303L94.2869 61.7633C94.5652 60.9687 94.1465 60.098 93.3515 59.8195Z" fill="white"/>
<rect x="14.8886" y="14.727" width="100.381" height="84.4208" rx="5.65" stroke="#065D63" stroke-width="0.7"/>
</svg>
